; NON-PLATED HOLES START AT T1
; THROUGH (PLATED) HOLES START AT T100
M48
INCH
T1C0.055118
T100C0.078740
T101C0.039370
T102C0.031497
T103C0.035433
T104C0.036000
T105C0.035000
T106C0.055118
%
T1
X004502Y021309
X008436Y021309
T100
X023172Y012136
X002707Y012136
X027707Y012136
X031172Y012136
X010707Y012136
X014172Y012136
X019707Y012136
X006172Y012136
T101
X004439Y001380
X029439Y009380
X015439Y004380
X012439Y009380
X005424Y009380
X025439Y004380
X015439Y001380
X020439Y004380
X020439Y001380
X020455Y009380
X002439Y004380
X003455Y009380
X013439Y004380
X021439Y009380
X023439Y004380
X028455Y009380
X013439Y001380
X030424Y009380
X004439Y004380
X031439Y004380
X007439Y001380
X025439Y001380
X009439Y001380
X029439Y001380
X009439Y004380
X029439Y004380
X002439Y001380
X007439Y004380
X004439Y009380
X018439Y001380
X011455Y009380
X013424Y009380
X018439Y004380
X022424Y009380
X023439Y001380
X031439Y001380
T102
X014424Y007380
X013439Y007380
X030424Y007380
X007439Y007380
X029439Y007380
X002439Y007380
X018439Y007380
X019424Y007380
X024424Y007380
X008424Y007380
X023439Y007380
X003424Y007380
T103
X014497Y002820
X032737Y017940
X029137Y017940
X030817Y019860
X006337Y015540
X018337Y012180
X008737Y014580
X012577Y011940
X019057Y019140
X027217Y018180
T104
X030439Y021380
X029439Y021380
X025439Y021380
X031439Y015380
X021439Y021380
X020439Y015380
X022439Y021380
X019439Y015380
X026439Y015380
X028439Y021380
X017439Y021380
X024439Y021380
X023439Y021380
X026439Y021380
X022439Y015380
X031439Y021380
X018439Y015380
X018439Y021380
X029439Y015380
X030439Y015380
X020439Y021380
X028439Y015380
X017439Y015380
X024439Y015380
X021439Y015380
X019439Y021380
X023439Y015380
X027439Y021380
X025439Y015380
X027439Y015380
T105
X011439Y016380
X001439Y006380
X001439Y020380
X016439Y006380
X028439Y006380
X006439Y006380
X026439Y006380
X021439Y006380
X012439Y006380
X011439Y020380
X032439Y006380
X001439Y016380
X005439Y006380
X017439Y006380
X022439Y006380
X010439Y006380
T106
X008439Y016388
X004502Y016384
X009439Y017380
X006475Y017376
X003530Y017380
T00
M30
