G04 MADE WITH FRITZING*
G04 WWW.FRITZING.ORG*
G04 DOUBLE SIDED*
G04 HOLES PLATED*
G04 CONTOUR ON CENTER OF CONTOUR VECTOR*
%ASAXBY*%
%FSLAX23Y23*%
%MOIN*%
%OFA0B0*%
%SFA1.0B1.0*%
%ADD10C,0.085433*%
%ADD11C,0.080000*%
%ADD12C,0.069370*%
%ADD13C,0.072992*%
%ADD14C,0.084000*%
%ADD15C,0.108740*%
%ADD16C,0.085118*%
%ADD17C,0.065118*%
%ADD18C,0.085000*%
%ADD19R,0.080000X0.079972*%
%ADD20R,0.072992X0.072992*%
%ADD21R,0.001000X0.001000*%
%LNMASK0*%
G90*
G70*
G54D10*
X1834Y1218D03*
X2722Y1818D03*
X2914Y1794D03*
X1906Y1914D03*
X634Y1554D03*
X874Y1458D03*
X1258Y1194D03*
X3082Y1986D03*
X3274Y1794D03*
X1450Y282D03*
G54D11*
X1744Y1538D03*
X1844Y1538D03*
X1944Y1538D03*
X2044Y1538D03*
X2144Y1538D03*
X2244Y1538D03*
X2344Y1538D03*
X2444Y1538D03*
X2544Y1538D03*
X2644Y1538D03*
X2744Y1538D03*
X2844Y1538D03*
X2944Y1538D03*
X3044Y1538D03*
X3144Y1538D03*
X1744Y2138D03*
X1844Y2138D03*
X1944Y2138D03*
X2044Y2138D03*
X2144Y2138D03*
X2244Y2138D03*
X2344Y2138D03*
X2444Y2138D03*
X2544Y2138D03*
X2644Y2138D03*
X2744Y2138D03*
X2844Y2138D03*
X2944Y2138D03*
X3044Y2138D03*
X3144Y2138D03*
G54D12*
X3144Y438D03*
X3144Y138D03*
X2944Y438D03*
X2944Y138D03*
X2544Y438D03*
X2544Y138D03*
X2344Y438D03*
X2344Y138D03*
X2044Y438D03*
X2044Y138D03*
X1844Y438D03*
X1844Y138D03*
X1544Y438D03*
X1544Y138D03*
X1344Y438D03*
X1344Y138D03*
X944Y438D03*
X944Y138D03*
X744Y438D03*
X744Y138D03*
X444Y438D03*
X444Y138D03*
X244Y438D03*
X244Y138D03*
G54D13*
X2944Y738D03*
X3042Y738D03*
X2344Y738D03*
X2442Y738D03*
X1844Y738D03*
X1942Y738D03*
X744Y738D03*
X842Y738D03*
X244Y738D03*
X342Y738D03*
X1344Y738D03*
X1442Y738D03*
G54D14*
X2046Y938D03*
X2144Y938D03*
X2242Y938D03*
G54D15*
X1971Y1214D03*
X2317Y1214D03*
G54D14*
X346Y938D03*
X444Y938D03*
X542Y938D03*
G54D15*
X271Y1214D03*
X617Y1214D03*
G54D14*
X2846Y938D03*
X2944Y938D03*
X3042Y938D03*
G54D15*
X2771Y1214D03*
X3117Y1214D03*
G54D14*
X1146Y938D03*
X1244Y938D03*
X1342Y938D03*
G54D15*
X1071Y1214D03*
X1417Y1214D03*
G54D16*
X648Y1738D03*
X353Y1738D03*
X944Y1738D03*
X844Y1639D03*
X450Y1638D03*
G54D17*
X844Y2131D03*
X450Y2131D03*
G54D18*
X144Y2038D03*
X144Y1638D03*
X144Y638D03*
X544Y638D03*
X644Y638D03*
X1044Y638D03*
X1244Y638D03*
X1644Y638D03*
X1744Y638D03*
X2144Y638D03*
X2244Y638D03*
X2644Y638D03*
X2844Y638D03*
X3244Y638D03*
X1144Y2038D03*
X1144Y1638D03*
G54D19*
X1744Y1538D03*
G54D20*
X2944Y738D03*
X2344Y738D03*
X1844Y738D03*
X744Y738D03*
X244Y738D03*
X1344Y738D03*
G54D21*
X304Y981D02*
X386Y981D01*
X402Y981D02*
X485Y981D01*
X501Y981D02*
X583Y981D01*
X1104Y981D02*
X1186Y981D01*
X1202Y981D02*
X1285Y981D01*
X1300Y981D02*
X1383Y981D01*
X2004Y981D02*
X2086Y981D01*
X2102Y981D02*
X2185Y981D01*
X2200Y981D02*
X2283Y981D01*
X2803Y981D02*
X2886Y981D01*
X2902Y981D02*
X2984Y981D01*
X3000Y981D02*
X3083Y981D01*
X304Y980D02*
X387Y980D01*
X402Y980D02*
X485Y980D01*
X500Y980D02*
X583Y980D01*
X1103Y980D02*
X1186Y980D01*
X1202Y980D02*
X1285Y980D01*
X1300Y980D02*
X1383Y980D01*
X2003Y980D02*
X2086Y980D01*
X2102Y980D02*
X2185Y980D01*
X2200Y980D02*
X2283Y980D01*
X2803Y980D02*
X2886Y980D01*
X2902Y980D02*
X2985Y980D01*
X3000Y980D02*
X3083Y980D01*
X304Y979D02*
X387Y979D01*
X402Y979D02*
X485Y979D01*
X500Y979D02*
X583Y979D01*
X1103Y979D02*
X1186Y979D01*
X1202Y979D02*
X1285Y979D01*
X1300Y979D02*
X1383Y979D01*
X2003Y979D02*
X2086Y979D01*
X2102Y979D02*
X2185Y979D01*
X2200Y979D02*
X2283Y979D01*
X2803Y979D02*
X2886Y979D01*
X2902Y979D02*
X2985Y979D01*
X3000Y979D02*
X3083Y979D01*
X304Y978D02*
X387Y978D01*
X402Y978D02*
X485Y978D01*
X500Y978D02*
X583Y978D01*
X1103Y978D02*
X1186Y978D01*
X1202Y978D02*
X1285Y978D01*
X1300Y978D02*
X1383Y978D01*
X2003Y978D02*
X2086Y978D01*
X2102Y978D02*
X2185Y978D01*
X2200Y978D02*
X2283Y978D01*
X2803Y978D02*
X2886Y978D01*
X2902Y978D02*
X2985Y978D01*
X3000Y978D02*
X3083Y978D01*
X304Y977D02*
X387Y977D01*
X402Y977D02*
X485Y977D01*
X500Y977D02*
X583Y977D01*
X1103Y977D02*
X1186Y977D01*
X1202Y977D02*
X1285Y977D01*
X1300Y977D02*
X1383Y977D01*
X2003Y977D02*
X2086Y977D01*
X2102Y977D02*
X2185Y977D01*
X2200Y977D02*
X2283Y977D01*
X2803Y977D02*
X2886Y977D01*
X2902Y977D02*
X2985Y977D01*
X3000Y977D02*
X3083Y977D01*
X304Y976D02*
X387Y976D01*
X402Y976D02*
X485Y976D01*
X500Y976D02*
X583Y976D01*
X1103Y976D02*
X1186Y976D01*
X1202Y976D02*
X1285Y976D01*
X1300Y976D02*
X1383Y976D01*
X2003Y976D02*
X2086Y976D01*
X2102Y976D02*
X2185Y976D01*
X2200Y976D02*
X2283Y976D01*
X2803Y976D02*
X2886Y976D01*
X2902Y976D02*
X2985Y976D01*
X3000Y976D02*
X3083Y976D01*
X304Y975D02*
X387Y975D01*
X402Y975D02*
X485Y975D01*
X500Y975D02*
X583Y975D01*
X1103Y975D02*
X1186Y975D01*
X1202Y975D02*
X1285Y975D01*
X1300Y975D02*
X1383Y975D01*
X2003Y975D02*
X2086Y975D01*
X2102Y975D02*
X2185Y975D01*
X2200Y975D02*
X2283Y975D01*
X2803Y975D02*
X2886Y975D01*
X2902Y975D02*
X2985Y975D01*
X3000Y975D02*
X3083Y975D01*
X304Y974D02*
X387Y974D01*
X402Y974D02*
X485Y974D01*
X500Y974D02*
X583Y974D01*
X1103Y974D02*
X1186Y974D01*
X1202Y974D02*
X1285Y974D01*
X1300Y974D02*
X1383Y974D01*
X2003Y974D02*
X2086Y974D01*
X2102Y974D02*
X2185Y974D01*
X2200Y974D02*
X2283Y974D01*
X2803Y974D02*
X2886Y974D01*
X2902Y974D02*
X2985Y974D01*
X3000Y974D02*
X3083Y974D01*
X304Y973D02*
X387Y973D01*
X402Y973D02*
X485Y973D01*
X500Y973D02*
X583Y973D01*
X1103Y973D02*
X1186Y973D01*
X1202Y973D02*
X1285Y973D01*
X1300Y973D02*
X1383Y973D01*
X2003Y973D02*
X2086Y973D01*
X2102Y973D02*
X2185Y973D01*
X2200Y973D02*
X2283Y973D01*
X2803Y973D02*
X2886Y973D01*
X2902Y973D02*
X2985Y973D01*
X3000Y973D02*
X3083Y973D01*
X304Y972D02*
X387Y972D01*
X402Y972D02*
X485Y972D01*
X500Y972D02*
X583Y972D01*
X1103Y972D02*
X1186Y972D01*
X1202Y972D02*
X1285Y972D01*
X1300Y972D02*
X1383Y972D01*
X2003Y972D02*
X2086Y972D01*
X2102Y972D02*
X2185Y972D01*
X2200Y972D02*
X2283Y972D01*
X2803Y972D02*
X2886Y972D01*
X2902Y972D02*
X2985Y972D01*
X3000Y972D02*
X3083Y972D01*
X304Y971D02*
X387Y971D01*
X402Y971D02*
X485Y971D01*
X500Y971D02*
X583Y971D01*
X1103Y971D02*
X1186Y971D01*
X1202Y971D02*
X1285Y971D01*
X1300Y971D02*
X1383Y971D01*
X2003Y971D02*
X2086Y971D01*
X2102Y971D02*
X2185Y971D01*
X2200Y971D02*
X2283Y971D01*
X2803Y971D02*
X2886Y971D01*
X2902Y971D02*
X2985Y971D01*
X3000Y971D02*
X3083Y971D01*
X304Y970D02*
X387Y970D01*
X402Y970D02*
X485Y970D01*
X500Y970D02*
X583Y970D01*
X1103Y970D02*
X1186Y970D01*
X1202Y970D02*
X1285Y970D01*
X1300Y970D02*
X1383Y970D01*
X2003Y970D02*
X2086Y970D01*
X2102Y970D02*
X2185Y970D01*
X2200Y970D02*
X2283Y970D01*
X2803Y970D02*
X2886Y970D01*
X2902Y970D02*
X2985Y970D01*
X3000Y970D02*
X3083Y970D01*
X304Y969D02*
X387Y969D01*
X402Y969D02*
X485Y969D01*
X500Y969D02*
X583Y969D01*
X1103Y969D02*
X1186Y969D01*
X1202Y969D02*
X1285Y969D01*
X1300Y969D02*
X1383Y969D01*
X2003Y969D02*
X2086Y969D01*
X2102Y969D02*
X2185Y969D01*
X2200Y969D02*
X2283Y969D01*
X2803Y969D02*
X2886Y969D01*
X2902Y969D02*
X2985Y969D01*
X3000Y969D02*
X3083Y969D01*
X304Y968D02*
X387Y968D01*
X402Y968D02*
X485Y968D01*
X500Y968D02*
X583Y968D01*
X1103Y968D02*
X1186Y968D01*
X1202Y968D02*
X1285Y968D01*
X1300Y968D02*
X1383Y968D01*
X2003Y968D02*
X2086Y968D01*
X2102Y968D02*
X2185Y968D01*
X2200Y968D02*
X2283Y968D01*
X2803Y968D02*
X2886Y968D01*
X2902Y968D02*
X2985Y968D01*
X3000Y968D02*
X3083Y968D01*
X304Y967D02*
X387Y967D01*
X402Y967D02*
X485Y967D01*
X500Y967D02*
X583Y967D01*
X1103Y967D02*
X1186Y967D01*
X1202Y967D02*
X1285Y967D01*
X1300Y967D02*
X1383Y967D01*
X2003Y967D02*
X2086Y967D01*
X2102Y967D02*
X2185Y967D01*
X2200Y967D02*
X2283Y967D01*
X2803Y967D02*
X2886Y967D01*
X2902Y967D02*
X2985Y967D01*
X3000Y967D02*
X3083Y967D01*
X304Y966D02*
X387Y966D01*
X402Y966D02*
X485Y966D01*
X500Y966D02*
X583Y966D01*
X1103Y966D02*
X1186Y966D01*
X1202Y966D02*
X1285Y966D01*
X1300Y966D02*
X1383Y966D01*
X2003Y966D02*
X2086Y966D01*
X2102Y966D02*
X2185Y966D01*
X2200Y966D02*
X2283Y966D01*
X2803Y966D02*
X2886Y966D01*
X2902Y966D02*
X2985Y966D01*
X3000Y966D02*
X3083Y966D01*
X304Y965D02*
X387Y965D01*
X402Y965D02*
X485Y965D01*
X500Y965D02*
X583Y965D01*
X1103Y965D02*
X1186Y965D01*
X1202Y965D02*
X1285Y965D01*
X1300Y965D02*
X1383Y965D01*
X2003Y965D02*
X2086Y965D01*
X2102Y965D02*
X2185Y965D01*
X2200Y965D02*
X2283Y965D01*
X2803Y965D02*
X2886Y965D01*
X2902Y965D02*
X2985Y965D01*
X3000Y965D02*
X3083Y965D01*
X304Y964D02*
X387Y964D01*
X402Y964D02*
X485Y964D01*
X500Y964D02*
X583Y964D01*
X1103Y964D02*
X1186Y964D01*
X1202Y964D02*
X1285Y964D01*
X1300Y964D02*
X1383Y964D01*
X2003Y964D02*
X2086Y964D01*
X2102Y964D02*
X2185Y964D01*
X2200Y964D02*
X2283Y964D01*
X2803Y964D02*
X2886Y964D01*
X2902Y964D02*
X2985Y964D01*
X3000Y964D02*
X3083Y964D01*
X304Y963D02*
X387Y963D01*
X402Y963D02*
X485Y963D01*
X500Y963D02*
X583Y963D01*
X1103Y963D02*
X1186Y963D01*
X1202Y963D02*
X1285Y963D01*
X1300Y963D02*
X1383Y963D01*
X2003Y963D02*
X2086Y963D01*
X2102Y963D02*
X2185Y963D01*
X2200Y963D02*
X2283Y963D01*
X2803Y963D02*
X2886Y963D01*
X2902Y963D02*
X2985Y963D01*
X3000Y963D02*
X3083Y963D01*
X304Y962D02*
X387Y962D01*
X402Y962D02*
X485Y962D01*
X500Y962D02*
X583Y962D01*
X1103Y962D02*
X1186Y962D01*
X1202Y962D02*
X1285Y962D01*
X1300Y962D02*
X1383Y962D01*
X2003Y962D02*
X2086Y962D01*
X2102Y962D02*
X2185Y962D01*
X2200Y962D02*
X2283Y962D01*
X2803Y962D02*
X2886Y962D01*
X2902Y962D02*
X2985Y962D01*
X3000Y962D02*
X3083Y962D01*
X304Y961D02*
X387Y961D01*
X402Y961D02*
X485Y961D01*
X500Y961D02*
X583Y961D01*
X1103Y961D02*
X1186Y961D01*
X1202Y961D02*
X1285Y961D01*
X1300Y961D02*
X1383Y961D01*
X2003Y961D02*
X2086Y961D01*
X2102Y961D02*
X2185Y961D01*
X2200Y961D02*
X2283Y961D01*
X2803Y961D02*
X2886Y961D01*
X2902Y961D02*
X2985Y961D01*
X3000Y961D02*
X3083Y961D01*
X304Y960D02*
X387Y960D01*
X402Y960D02*
X485Y960D01*
X500Y960D02*
X583Y960D01*
X1103Y960D02*
X1186Y960D01*
X1202Y960D02*
X1285Y960D01*
X1300Y960D02*
X1383Y960D01*
X2003Y960D02*
X2086Y960D01*
X2102Y960D02*
X2185Y960D01*
X2200Y960D02*
X2283Y960D01*
X2803Y960D02*
X2886Y960D01*
X2902Y960D02*
X2985Y960D01*
X3000Y960D02*
X3083Y960D01*
X304Y959D02*
X387Y959D01*
X402Y959D02*
X485Y959D01*
X500Y959D02*
X583Y959D01*
X1103Y959D02*
X1186Y959D01*
X1202Y959D02*
X1285Y959D01*
X1300Y959D02*
X1383Y959D01*
X2003Y959D02*
X2086Y959D01*
X2102Y959D02*
X2185Y959D01*
X2200Y959D02*
X2283Y959D01*
X2803Y959D02*
X2886Y959D01*
X2902Y959D02*
X2985Y959D01*
X3000Y959D02*
X3083Y959D01*
X304Y958D02*
X387Y958D01*
X402Y958D02*
X485Y958D01*
X500Y958D02*
X583Y958D01*
X1103Y958D02*
X1186Y958D01*
X1202Y958D02*
X1285Y958D01*
X1300Y958D02*
X1383Y958D01*
X2003Y958D02*
X2086Y958D01*
X2102Y958D02*
X2185Y958D01*
X2200Y958D02*
X2283Y958D01*
X2803Y958D02*
X2886Y958D01*
X2902Y958D02*
X2985Y958D01*
X3000Y958D02*
X3083Y958D01*
X304Y957D02*
X387Y957D01*
X402Y957D02*
X485Y957D01*
X500Y957D02*
X583Y957D01*
X1103Y957D02*
X1186Y957D01*
X1202Y957D02*
X1285Y957D01*
X1300Y957D02*
X1383Y957D01*
X2003Y957D02*
X2086Y957D01*
X2102Y957D02*
X2185Y957D01*
X2200Y957D02*
X2283Y957D01*
X2803Y957D02*
X2886Y957D01*
X2902Y957D02*
X2985Y957D01*
X3000Y957D02*
X3083Y957D01*
X304Y956D02*
X387Y956D01*
X402Y956D02*
X485Y956D01*
X500Y956D02*
X583Y956D01*
X1103Y956D02*
X1186Y956D01*
X1202Y956D02*
X1285Y956D01*
X1300Y956D02*
X1383Y956D01*
X2003Y956D02*
X2086Y956D01*
X2102Y956D02*
X2185Y956D01*
X2200Y956D02*
X2283Y956D01*
X2803Y956D02*
X2886Y956D01*
X2902Y956D02*
X2985Y956D01*
X3000Y956D02*
X3083Y956D01*
X304Y955D02*
X387Y955D01*
X402Y955D02*
X485Y955D01*
X500Y955D02*
X583Y955D01*
X1103Y955D02*
X1186Y955D01*
X1202Y955D02*
X1285Y955D01*
X1300Y955D02*
X1383Y955D01*
X2003Y955D02*
X2086Y955D01*
X2102Y955D02*
X2185Y955D01*
X2200Y955D02*
X2283Y955D01*
X2803Y955D02*
X2886Y955D01*
X2902Y955D02*
X2985Y955D01*
X3000Y955D02*
X3083Y955D01*
X304Y954D02*
X387Y954D01*
X402Y954D02*
X485Y954D01*
X500Y954D02*
X583Y954D01*
X1103Y954D02*
X1186Y954D01*
X1202Y954D02*
X1285Y954D01*
X1300Y954D02*
X1383Y954D01*
X2003Y954D02*
X2086Y954D01*
X2102Y954D02*
X2185Y954D01*
X2200Y954D02*
X2283Y954D01*
X2803Y954D02*
X2886Y954D01*
X2902Y954D02*
X2985Y954D01*
X3000Y954D02*
X3083Y954D01*
X304Y953D02*
X339Y953D01*
X351Y953D02*
X387Y953D01*
X402Y953D02*
X438Y953D01*
X449Y953D02*
X485Y953D01*
X500Y953D02*
X536Y953D01*
X548Y953D02*
X583Y953D01*
X1103Y953D02*
X1139Y953D01*
X1151Y953D02*
X1186Y953D01*
X1202Y953D02*
X1238Y953D01*
X1249Y953D02*
X1285Y953D01*
X1300Y953D02*
X1336Y953D01*
X1347Y953D02*
X1383Y953D01*
X2003Y953D02*
X2039Y953D01*
X2051Y953D02*
X2086Y953D01*
X2102Y953D02*
X2138Y953D01*
X2149Y953D02*
X2185Y953D01*
X2200Y953D02*
X2236Y953D01*
X2247Y953D02*
X2283Y953D01*
X2803Y953D02*
X2839Y953D01*
X2850Y953D02*
X2886Y953D01*
X2902Y953D02*
X2937Y953D01*
X2949Y953D02*
X2985Y953D01*
X3000Y953D02*
X3036Y953D01*
X3047Y953D02*
X3083Y953D01*
X304Y952D02*
X337Y952D01*
X353Y952D02*
X387Y952D01*
X402Y952D02*
X436Y952D01*
X451Y952D02*
X485Y952D01*
X500Y952D02*
X534Y952D01*
X550Y952D02*
X583Y952D01*
X1103Y952D02*
X1137Y952D01*
X1153Y952D02*
X1186Y952D01*
X1202Y952D02*
X1236Y952D01*
X1251Y952D02*
X1285Y952D01*
X1300Y952D02*
X1334Y952D01*
X1350Y952D02*
X1383Y952D01*
X2003Y952D02*
X2037Y952D01*
X2053Y952D02*
X2086Y952D01*
X2102Y952D02*
X2136Y952D01*
X2151Y952D02*
X2185Y952D01*
X2200Y952D02*
X2234Y952D01*
X2249Y952D02*
X2283Y952D01*
X2803Y952D02*
X2837Y952D01*
X2853Y952D02*
X2886Y952D01*
X2902Y952D02*
X2935Y952D01*
X2951Y952D02*
X2985Y952D01*
X3000Y952D02*
X3034Y952D01*
X3049Y952D02*
X3083Y952D01*
X304Y951D02*
X336Y951D01*
X354Y951D02*
X387Y951D01*
X402Y951D02*
X434Y951D01*
X453Y951D02*
X485Y951D01*
X500Y951D02*
X533Y951D01*
X551Y951D02*
X583Y951D01*
X1103Y951D02*
X1136Y951D01*
X1154Y951D02*
X1186Y951D01*
X1202Y951D02*
X1234Y951D01*
X1253Y951D02*
X1285Y951D01*
X1300Y951D02*
X1333Y951D01*
X1351Y951D02*
X1383Y951D01*
X2003Y951D02*
X2036Y951D01*
X2054Y951D02*
X2086Y951D01*
X2102Y951D02*
X2134Y951D01*
X2152Y951D02*
X2185Y951D01*
X2200Y951D02*
X2232Y951D01*
X2251Y951D02*
X2283Y951D01*
X2803Y951D02*
X2836Y951D01*
X2854Y951D02*
X2886Y951D01*
X2902Y951D02*
X2934Y951D01*
X2952Y951D02*
X2985Y951D01*
X3000Y951D02*
X3032Y951D01*
X3051Y951D02*
X3083Y951D01*
X304Y950D02*
X335Y950D01*
X355Y950D02*
X387Y950D01*
X402Y950D02*
X433Y950D01*
X454Y950D02*
X485Y950D01*
X500Y950D02*
X531Y950D01*
X552Y950D02*
X583Y950D01*
X1103Y950D02*
X1135Y950D01*
X1155Y950D02*
X1186Y950D01*
X1202Y950D02*
X1233Y950D01*
X1254Y950D02*
X1285Y950D01*
X1300Y950D02*
X1331Y950D01*
X1352Y950D02*
X1383Y950D01*
X2003Y950D02*
X2034Y950D01*
X2055Y950D02*
X2086Y950D01*
X2102Y950D02*
X2133Y950D01*
X2154Y950D02*
X2185Y950D01*
X2200Y950D02*
X2231Y950D01*
X2252Y950D02*
X2283Y950D01*
X2803Y950D02*
X2834Y950D01*
X2855Y950D02*
X2886Y950D01*
X2902Y950D02*
X2933Y950D01*
X2954Y950D02*
X2985Y950D01*
X3000Y950D02*
X3031Y950D01*
X3052Y950D02*
X3083Y950D01*
X304Y949D02*
X334Y949D01*
X356Y949D02*
X387Y949D01*
X402Y949D02*
X432Y949D01*
X455Y949D02*
X485Y949D01*
X500Y949D02*
X530Y949D01*
X553Y949D02*
X583Y949D01*
X1103Y949D02*
X1134Y949D01*
X1156Y949D02*
X1186Y949D01*
X1202Y949D02*
X1232Y949D01*
X1255Y949D02*
X1285Y949D01*
X1300Y949D02*
X1330Y949D01*
X1353Y949D02*
X1383Y949D01*
X2003Y949D02*
X2033Y949D01*
X2056Y949D02*
X2086Y949D01*
X2102Y949D02*
X2132Y949D01*
X2155Y949D02*
X2185Y949D01*
X2200Y949D02*
X2230Y949D01*
X2253Y949D02*
X2283Y949D01*
X2803Y949D02*
X2833Y949D01*
X2856Y949D02*
X2886Y949D01*
X2902Y949D02*
X2932Y949D01*
X2955Y949D02*
X2985Y949D01*
X3000Y949D02*
X3030Y949D01*
X3053Y949D02*
X3083Y949D01*
X304Y948D02*
X333Y948D01*
X357Y948D02*
X387Y948D01*
X402Y948D02*
X431Y948D01*
X456Y948D02*
X485Y948D01*
X500Y948D02*
X530Y948D01*
X554Y948D02*
X583Y948D01*
X1103Y948D02*
X1133Y948D01*
X1157Y948D02*
X1186Y948D01*
X1202Y948D02*
X1231Y948D01*
X1256Y948D02*
X1285Y948D01*
X1300Y948D02*
X1330Y948D01*
X1354Y948D02*
X1383Y948D01*
X2003Y948D02*
X2033Y948D01*
X2057Y948D02*
X2086Y948D01*
X2102Y948D02*
X2131Y948D01*
X2155Y948D02*
X2185Y948D01*
X2200Y948D02*
X2229Y948D01*
X2254Y948D02*
X2283Y948D01*
X2803Y948D02*
X2833Y948D01*
X2857Y948D02*
X2886Y948D01*
X2902Y948D02*
X2931Y948D01*
X2955Y948D02*
X2985Y948D01*
X3000Y948D02*
X3029Y948D01*
X3054Y948D02*
X3083Y948D01*
X304Y947D02*
X332Y947D01*
X358Y947D02*
X387Y947D01*
X402Y947D02*
X430Y947D01*
X456Y947D02*
X485Y947D01*
X500Y947D02*
X529Y947D01*
X555Y947D02*
X583Y947D01*
X1103Y947D02*
X1132Y947D01*
X1158Y947D02*
X1186Y947D01*
X1202Y947D02*
X1230Y947D01*
X1256Y947D02*
X1285Y947D01*
X1300Y947D02*
X1329Y947D01*
X1355Y947D02*
X1383Y947D01*
X2003Y947D02*
X2032Y947D01*
X2058Y947D02*
X2086Y947D01*
X2102Y947D02*
X2130Y947D01*
X2156Y947D02*
X2185Y947D01*
X2200Y947D02*
X2229Y947D01*
X2255Y947D02*
X2283Y947D01*
X2803Y947D02*
X2832Y947D01*
X2858Y947D02*
X2886Y947D01*
X2902Y947D02*
X2930Y947D01*
X2956Y947D02*
X2985Y947D01*
X3000Y947D02*
X3029Y947D01*
X3055Y947D02*
X3083Y947D01*
X304Y946D02*
X331Y946D01*
X359Y946D02*
X387Y946D01*
X402Y946D02*
X430Y946D01*
X457Y946D02*
X485Y946D01*
X500Y946D02*
X528Y946D01*
X555Y946D02*
X583Y946D01*
X1103Y946D02*
X1131Y946D01*
X1158Y946D02*
X1186Y946D01*
X1202Y946D02*
X1230Y946D01*
X1257Y946D02*
X1285Y946D01*
X1300Y946D02*
X1328Y946D01*
X1355Y946D02*
X1383Y946D01*
X2003Y946D02*
X2031Y946D01*
X2058Y946D02*
X2086Y946D01*
X2102Y946D02*
X2130Y946D01*
X2157Y946D02*
X2185Y946D01*
X2200Y946D02*
X2228Y946D01*
X2255Y946D02*
X2283Y946D01*
X2803Y946D02*
X2831Y946D01*
X2858Y946D02*
X2886Y946D01*
X2902Y946D02*
X2930Y946D01*
X2957Y946D02*
X2985Y946D01*
X3000Y946D02*
X3028Y946D01*
X3055Y946D02*
X3083Y946D01*
X304Y945D02*
X331Y945D01*
X359Y945D02*
X387Y945D01*
X402Y945D02*
X429Y945D01*
X458Y945D02*
X485Y945D01*
X500Y945D02*
X528Y945D01*
X556Y945D02*
X583Y945D01*
X1103Y945D02*
X1131Y945D01*
X1159Y945D02*
X1186Y945D01*
X1202Y945D02*
X1229Y945D01*
X1257Y945D02*
X1285Y945D01*
X1300Y945D02*
X1328Y945D01*
X1356Y945D02*
X1383Y945D01*
X2003Y945D02*
X2031Y945D01*
X2059Y945D02*
X2086Y945D01*
X2102Y945D02*
X2129Y945D01*
X2157Y945D02*
X2185Y945D01*
X2200Y945D02*
X2228Y945D01*
X2256Y945D02*
X2283Y945D01*
X2803Y945D02*
X2831Y945D01*
X2859Y945D02*
X2886Y945D01*
X2902Y945D02*
X2929Y945D01*
X2957Y945D02*
X2985Y945D01*
X3000Y945D02*
X3028Y945D01*
X3056Y945D02*
X3083Y945D01*
X304Y944D02*
X331Y944D01*
X359Y944D02*
X387Y944D01*
X402Y944D02*
X429Y944D01*
X458Y944D02*
X485Y944D01*
X500Y944D02*
X527Y944D01*
X556Y944D02*
X583Y944D01*
X1103Y944D02*
X1131Y944D01*
X1159Y944D02*
X1186Y944D01*
X1202Y944D02*
X1229Y944D01*
X1258Y944D02*
X1285Y944D01*
X1300Y944D02*
X1327Y944D01*
X1356Y944D02*
X1383Y944D01*
X2003Y944D02*
X2030Y944D01*
X2059Y944D02*
X2086Y944D01*
X2102Y944D02*
X2129Y944D01*
X2158Y944D02*
X2185Y944D01*
X2200Y944D02*
X2227Y944D01*
X2256Y944D02*
X2283Y944D01*
X2803Y944D02*
X2830Y944D01*
X2859Y944D02*
X2886Y944D01*
X2902Y944D02*
X2929Y944D01*
X2958Y944D02*
X2985Y944D01*
X3000Y944D02*
X3027Y944D01*
X3056Y944D02*
X3083Y944D01*
X304Y943D02*
X330Y943D01*
X360Y943D02*
X387Y943D01*
X402Y943D02*
X429Y943D01*
X458Y943D02*
X485Y943D01*
X500Y943D02*
X527Y943D01*
X557Y943D02*
X583Y943D01*
X1103Y943D02*
X1130Y943D01*
X1160Y943D02*
X1186Y943D01*
X1202Y943D02*
X1229Y943D01*
X1258Y943D02*
X1285Y943D01*
X1300Y943D02*
X1327Y943D01*
X1356Y943D02*
X1383Y943D01*
X2003Y943D02*
X2030Y943D01*
X2060Y943D02*
X2086Y943D01*
X2102Y943D02*
X2129Y943D01*
X2158Y943D02*
X2185Y943D01*
X2200Y943D02*
X2227Y943D01*
X2256Y943D02*
X2283Y943D01*
X2803Y943D02*
X2830Y943D01*
X2859Y943D02*
X2886Y943D01*
X2902Y943D02*
X2928Y943D01*
X2958Y943D02*
X2985Y943D01*
X3000Y943D02*
X3027Y943D01*
X3056Y943D02*
X3083Y943D01*
X304Y942D02*
X330Y942D01*
X360Y942D02*
X387Y942D01*
X402Y942D02*
X428Y942D01*
X458Y942D02*
X485Y942D01*
X500Y942D02*
X527Y942D01*
X557Y942D02*
X583Y942D01*
X1103Y942D02*
X1130Y942D01*
X1160Y942D02*
X1186Y942D01*
X1202Y942D02*
X1228Y942D01*
X1258Y942D02*
X1285Y942D01*
X1300Y942D02*
X1327Y942D01*
X1357Y942D02*
X1383Y942D01*
X2003Y942D02*
X2030Y942D01*
X2060Y942D02*
X2086Y942D01*
X2102Y942D02*
X2128Y942D01*
X2158Y942D02*
X2185Y942D01*
X2200Y942D02*
X2227Y942D01*
X2257Y942D02*
X2283Y942D01*
X2803Y942D02*
X2830Y942D01*
X2860Y942D02*
X2886Y942D01*
X2902Y942D02*
X2928Y942D01*
X2958Y942D02*
X2985Y942D01*
X3000Y942D02*
X3027Y942D01*
X3057Y942D02*
X3083Y942D01*
X304Y941D02*
X330Y941D01*
X360Y941D02*
X387Y941D01*
X402Y941D02*
X428Y941D01*
X458Y941D02*
X485Y941D01*
X500Y941D02*
X527Y941D01*
X557Y941D02*
X583Y941D01*
X1103Y941D02*
X1130Y941D01*
X1160Y941D02*
X1186Y941D01*
X1202Y941D02*
X1228Y941D01*
X1258Y941D02*
X1285Y941D01*
X1300Y941D02*
X1327Y941D01*
X1357Y941D02*
X1383Y941D01*
X2003Y941D02*
X2030Y941D01*
X2060Y941D02*
X2086Y941D01*
X2102Y941D02*
X2128Y941D01*
X2158Y941D02*
X2185Y941D01*
X2200Y941D02*
X2227Y941D01*
X2257Y941D02*
X2283Y941D01*
X2803Y941D02*
X2830Y941D01*
X2860Y941D02*
X2886Y941D01*
X2902Y941D02*
X2928Y941D01*
X2958Y941D02*
X2985Y941D01*
X3000Y941D02*
X3027Y941D01*
X3057Y941D02*
X3083Y941D01*
X304Y940D02*
X330Y940D01*
X360Y940D02*
X387Y940D01*
X402Y940D02*
X428Y940D01*
X459Y940D02*
X485Y940D01*
X500Y940D02*
X527Y940D01*
X557Y940D02*
X583Y940D01*
X1103Y940D02*
X1130Y940D01*
X1160Y940D02*
X1186Y940D01*
X1202Y940D02*
X1228Y940D01*
X1258Y940D02*
X1285Y940D01*
X1300Y940D02*
X1327Y940D01*
X1357Y940D02*
X1383Y940D01*
X2003Y940D02*
X2030Y940D01*
X2060Y940D02*
X2086Y940D01*
X2102Y940D02*
X2128Y940D01*
X2158Y940D02*
X2185Y940D01*
X2200Y940D02*
X2227Y940D01*
X2257Y940D02*
X2283Y940D01*
X2803Y940D02*
X2830Y940D01*
X2860Y940D02*
X2886Y940D01*
X2902Y940D02*
X2928Y940D01*
X2958Y940D02*
X2985Y940D01*
X3000Y940D02*
X3026Y940D01*
X3057Y940D02*
X3083Y940D01*
X304Y939D02*
X330Y939D01*
X360Y939D02*
X387Y939D01*
X402Y939D02*
X428Y939D01*
X459Y939D02*
X485Y939D01*
X500Y939D02*
X527Y939D01*
X557Y939D02*
X583Y939D01*
X1103Y939D02*
X1130Y939D01*
X1160Y939D02*
X1186Y939D01*
X1202Y939D02*
X1228Y939D01*
X1259Y939D02*
X1285Y939D01*
X1300Y939D02*
X1327Y939D01*
X1357Y939D02*
X1383Y939D01*
X2003Y939D02*
X2030Y939D01*
X2060Y939D02*
X2086Y939D01*
X2102Y939D02*
X2128Y939D01*
X2158Y939D02*
X2185Y939D01*
X2200Y939D02*
X2227Y939D01*
X2257Y939D02*
X2283Y939D01*
X2803Y939D02*
X2830Y939D01*
X2860Y939D02*
X2886Y939D01*
X2902Y939D02*
X2928Y939D01*
X2958Y939D02*
X2985Y939D01*
X3000Y939D02*
X3026Y939D01*
X3057Y939D02*
X3083Y939D01*
X304Y938D02*
X330Y938D01*
X360Y938D02*
X387Y938D01*
X402Y938D02*
X428Y938D01*
X459Y938D02*
X485Y938D01*
X500Y938D02*
X527Y938D01*
X557Y938D02*
X583Y938D01*
X1103Y938D02*
X1130Y938D01*
X1160Y938D02*
X1186Y938D01*
X1202Y938D02*
X1228Y938D01*
X1258Y938D02*
X1285Y938D01*
X1300Y938D02*
X1327Y938D01*
X1357Y938D02*
X1383Y938D01*
X2003Y938D02*
X2030Y938D01*
X2060Y938D02*
X2086Y938D01*
X2102Y938D02*
X2128Y938D01*
X2158Y938D02*
X2185Y938D01*
X2200Y938D02*
X2227Y938D01*
X2257Y938D02*
X2283Y938D01*
X2803Y938D02*
X2830Y938D01*
X2860Y938D02*
X2886Y938D01*
X2902Y938D02*
X2928Y938D01*
X2958Y938D02*
X2985Y938D01*
X3000Y938D02*
X3027Y938D01*
X3057Y938D02*
X3083Y938D01*
X304Y937D02*
X330Y937D01*
X360Y937D02*
X387Y937D01*
X402Y937D02*
X428Y937D01*
X458Y937D02*
X485Y937D01*
X500Y937D02*
X527Y937D01*
X557Y937D02*
X583Y937D01*
X1103Y937D02*
X1130Y937D01*
X1160Y937D02*
X1186Y937D01*
X1202Y937D02*
X1228Y937D01*
X1258Y937D02*
X1285Y937D01*
X1300Y937D02*
X1327Y937D01*
X1357Y937D02*
X1383Y937D01*
X2003Y937D02*
X2030Y937D01*
X2060Y937D02*
X2086Y937D01*
X2102Y937D02*
X2128Y937D01*
X2158Y937D02*
X2185Y937D01*
X2200Y937D02*
X2227Y937D01*
X2257Y937D02*
X2283Y937D01*
X2803Y937D02*
X2830Y937D01*
X2860Y937D02*
X2886Y937D01*
X2902Y937D02*
X2928Y937D01*
X2958Y937D02*
X2985Y937D01*
X3000Y937D02*
X3027Y937D01*
X3057Y937D02*
X3083Y937D01*
X304Y936D02*
X330Y936D01*
X360Y936D02*
X387Y936D01*
X402Y936D02*
X429Y936D01*
X458Y936D02*
X485Y936D01*
X500Y936D02*
X527Y936D01*
X557Y936D02*
X583Y936D01*
X1103Y936D02*
X1130Y936D01*
X1160Y936D02*
X1186Y936D01*
X1202Y936D02*
X1229Y936D01*
X1258Y936D02*
X1285Y936D01*
X1300Y936D02*
X1327Y936D01*
X1357Y936D02*
X1383Y936D01*
X2003Y936D02*
X2030Y936D01*
X2060Y936D02*
X2086Y936D01*
X2102Y936D02*
X2128Y936D01*
X2158Y936D02*
X2185Y936D01*
X2200Y936D02*
X2227Y936D01*
X2257Y936D02*
X2283Y936D01*
X2803Y936D02*
X2830Y936D01*
X2860Y936D02*
X2886Y936D01*
X2902Y936D02*
X2928Y936D01*
X2958Y936D02*
X2985Y936D01*
X3000Y936D02*
X3027Y936D01*
X3056Y936D02*
X3083Y936D01*
X304Y935D02*
X330Y935D01*
X360Y935D02*
X387Y935D01*
X402Y935D02*
X429Y935D01*
X458Y935D02*
X485Y935D01*
X500Y935D02*
X527Y935D01*
X556Y935D02*
X583Y935D01*
X1103Y935D02*
X1130Y935D01*
X1160Y935D02*
X1186Y935D01*
X1202Y935D02*
X1229Y935D01*
X1258Y935D02*
X1285Y935D01*
X1300Y935D02*
X1327Y935D01*
X1356Y935D02*
X1383Y935D01*
X2003Y935D02*
X2030Y935D01*
X2059Y935D02*
X2086Y935D01*
X2102Y935D02*
X2129Y935D01*
X2158Y935D02*
X2185Y935D01*
X2200Y935D02*
X2227Y935D01*
X2256Y935D02*
X2283Y935D01*
X2803Y935D02*
X2830Y935D01*
X2859Y935D02*
X2886Y935D01*
X2902Y935D02*
X2929Y935D01*
X2958Y935D02*
X2985Y935D01*
X3000Y935D02*
X3027Y935D01*
X3056Y935D02*
X3083Y935D01*
X304Y934D02*
X331Y934D01*
X359Y934D02*
X387Y934D01*
X402Y934D02*
X429Y934D01*
X458Y934D02*
X485Y934D01*
X500Y934D02*
X528Y934D01*
X556Y934D02*
X583Y934D01*
X1103Y934D02*
X1131Y934D01*
X1159Y934D02*
X1186Y934D01*
X1202Y934D02*
X1229Y934D01*
X1258Y934D02*
X1285Y934D01*
X1300Y934D02*
X1327Y934D01*
X1356Y934D02*
X1383Y934D01*
X2003Y934D02*
X2031Y934D01*
X2059Y934D02*
X2086Y934D01*
X2102Y934D02*
X2129Y934D01*
X2158Y934D02*
X2185Y934D01*
X2200Y934D02*
X2227Y934D01*
X2256Y934D02*
X2283Y934D01*
X2803Y934D02*
X2830Y934D01*
X2859Y934D02*
X2886Y934D01*
X2902Y934D02*
X2929Y934D01*
X2957Y934D02*
X2985Y934D01*
X3000Y934D02*
X3027Y934D01*
X3056Y934D02*
X3083Y934D01*
X304Y933D02*
X331Y933D01*
X359Y933D02*
X387Y933D01*
X402Y933D02*
X430Y933D01*
X457Y933D02*
X485Y933D01*
X500Y933D02*
X528Y933D01*
X556Y933D02*
X583Y933D01*
X1103Y933D02*
X1131Y933D01*
X1159Y933D02*
X1186Y933D01*
X1202Y933D02*
X1230Y933D01*
X1257Y933D02*
X1285Y933D01*
X1300Y933D02*
X1328Y933D01*
X1356Y933D02*
X1383Y933D01*
X2003Y933D02*
X2031Y933D01*
X2059Y933D02*
X2086Y933D01*
X2102Y933D02*
X2129Y933D01*
X2157Y933D02*
X2185Y933D01*
X2200Y933D02*
X2228Y933D01*
X2256Y933D02*
X2283Y933D01*
X2803Y933D02*
X2831Y933D01*
X2859Y933D02*
X2886Y933D01*
X2902Y933D02*
X2929Y933D01*
X2957Y933D02*
X2985Y933D01*
X3000Y933D02*
X3028Y933D01*
X3055Y933D02*
X3083Y933D01*
X304Y932D02*
X332Y932D01*
X358Y932D02*
X387Y932D01*
X402Y932D02*
X430Y932D01*
X457Y932D02*
X485Y932D01*
X500Y932D02*
X529Y932D01*
X555Y932D02*
X583Y932D01*
X1103Y932D02*
X1132Y932D01*
X1158Y932D02*
X1186Y932D01*
X1202Y932D02*
X1230Y932D01*
X1257Y932D02*
X1285Y932D01*
X1300Y932D02*
X1328Y932D01*
X1355Y932D02*
X1383Y932D01*
X2003Y932D02*
X2032Y932D01*
X2058Y932D02*
X2086Y932D01*
X2102Y932D02*
X2130Y932D01*
X2157Y932D02*
X2185Y932D01*
X2200Y932D02*
X2228Y932D01*
X2255Y932D02*
X2283Y932D01*
X2803Y932D02*
X2831Y932D01*
X2858Y932D02*
X2886Y932D01*
X2902Y932D02*
X2930Y932D01*
X2956Y932D02*
X2985Y932D01*
X3000Y932D02*
X3028Y932D01*
X3055Y932D02*
X3083Y932D01*
X304Y931D02*
X332Y931D01*
X358Y931D02*
X387Y931D01*
X402Y931D02*
X431Y931D01*
X456Y931D02*
X485Y931D01*
X500Y931D02*
X529Y931D01*
X555Y931D02*
X583Y931D01*
X1103Y931D02*
X1132Y931D01*
X1158Y931D02*
X1186Y931D01*
X1202Y931D02*
X1231Y931D01*
X1256Y931D02*
X1285Y931D01*
X1300Y931D02*
X1329Y931D01*
X1354Y931D02*
X1383Y931D01*
X2003Y931D02*
X2032Y931D01*
X2058Y931D02*
X2086Y931D01*
X2102Y931D02*
X2131Y931D01*
X2156Y931D02*
X2185Y931D01*
X2200Y931D02*
X2229Y931D01*
X2254Y931D02*
X2283Y931D01*
X2803Y931D02*
X2832Y931D01*
X2857Y931D02*
X2886Y931D01*
X2902Y931D02*
X2930Y931D01*
X2956Y931D02*
X2985Y931D01*
X3000Y931D02*
X3029Y931D01*
X3054Y931D02*
X3083Y931D01*
X304Y930D02*
X333Y930D01*
X357Y930D02*
X387Y930D01*
X402Y930D02*
X432Y930D01*
X455Y930D02*
X485Y930D01*
X500Y930D02*
X530Y930D01*
X554Y930D02*
X583Y930D01*
X1103Y930D02*
X1133Y930D01*
X1157Y930D02*
X1186Y930D01*
X1202Y930D02*
X1231Y930D01*
X1255Y930D02*
X1285Y930D01*
X1300Y930D02*
X1330Y930D01*
X1354Y930D02*
X1383Y930D01*
X2003Y930D02*
X2033Y930D01*
X2057Y930D02*
X2086Y930D01*
X2102Y930D02*
X2131Y930D01*
X2155Y930D02*
X2185Y930D01*
X2200Y930D02*
X2230Y930D01*
X2254Y930D02*
X2283Y930D01*
X2803Y930D02*
X2833Y930D01*
X2857Y930D02*
X2886Y930D01*
X2902Y930D02*
X2931Y930D01*
X2955Y930D02*
X2985Y930D01*
X3000Y930D02*
X3030Y930D01*
X3053Y930D02*
X3083Y930D01*
X304Y929D02*
X334Y929D01*
X356Y929D02*
X387Y929D01*
X402Y929D02*
X432Y929D01*
X454Y929D02*
X485Y929D01*
X500Y929D02*
X531Y929D01*
X553Y929D02*
X583Y929D01*
X1103Y929D02*
X1134Y929D01*
X1156Y929D02*
X1186Y929D01*
X1202Y929D02*
X1232Y929D01*
X1254Y929D02*
X1285Y929D01*
X1300Y929D02*
X1331Y929D01*
X1353Y929D02*
X1383Y929D01*
X2003Y929D02*
X2034Y929D01*
X2056Y929D02*
X2086Y929D01*
X2102Y929D02*
X2132Y929D01*
X2154Y929D02*
X2185Y929D01*
X2200Y929D02*
X2231Y929D01*
X2253Y929D02*
X2283Y929D01*
X2803Y929D02*
X2834Y929D01*
X2856Y929D02*
X2886Y929D01*
X2902Y929D02*
X2932Y929D01*
X2954Y929D02*
X2985Y929D01*
X3000Y929D02*
X3031Y929D01*
X3053Y929D02*
X3083Y929D01*
X304Y928D02*
X335Y928D01*
X355Y928D02*
X387Y928D01*
X402Y928D02*
X434Y928D01*
X453Y928D02*
X485Y928D01*
X500Y928D02*
X532Y928D01*
X552Y928D02*
X583Y928D01*
X1103Y928D02*
X1135Y928D01*
X1155Y928D02*
X1186Y928D01*
X1202Y928D02*
X1233Y928D01*
X1253Y928D02*
X1285Y928D01*
X1300Y928D02*
X1332Y928D01*
X1352Y928D02*
X1383Y928D01*
X2003Y928D02*
X2035Y928D01*
X2055Y928D02*
X2086Y928D01*
X2102Y928D02*
X2133Y928D01*
X2153Y928D02*
X2185Y928D01*
X2200Y928D02*
X2232Y928D01*
X2252Y928D02*
X2283Y928D01*
X2803Y928D02*
X2835Y928D01*
X2855Y928D02*
X2886Y928D01*
X2902Y928D02*
X2933Y928D01*
X2953Y928D02*
X2985Y928D01*
X3000Y928D02*
X3032Y928D01*
X3051Y928D02*
X3083Y928D01*
X304Y927D02*
X336Y927D01*
X354Y927D02*
X387Y927D01*
X402Y927D02*
X435Y927D01*
X452Y927D02*
X485Y927D01*
X500Y927D02*
X533Y927D01*
X551Y927D02*
X583Y927D01*
X1103Y927D02*
X1136Y927D01*
X1154Y927D02*
X1186Y927D01*
X1202Y927D02*
X1235Y927D01*
X1252Y927D02*
X1285Y927D01*
X1300Y927D02*
X1333Y927D01*
X1350Y927D02*
X1383Y927D01*
X2003Y927D02*
X2036Y927D01*
X2054Y927D02*
X2086Y927D01*
X2102Y927D02*
X2135Y927D01*
X2152Y927D02*
X2185Y927D01*
X2200Y927D02*
X2233Y927D01*
X2250Y927D02*
X2283Y927D01*
X2803Y927D02*
X2836Y927D01*
X2853Y927D02*
X2886Y927D01*
X2902Y927D02*
X2934Y927D01*
X2952Y927D02*
X2985Y927D01*
X3000Y927D02*
X3033Y927D01*
X3050Y927D02*
X3083Y927D01*
X304Y926D02*
X338Y926D01*
X352Y926D02*
X387Y926D01*
X402Y926D02*
X437Y926D01*
X450Y926D02*
X485Y926D01*
X500Y926D02*
X535Y926D01*
X549Y926D02*
X583Y926D01*
X1103Y926D02*
X1138Y926D01*
X1152Y926D02*
X1186Y926D01*
X1202Y926D02*
X1236Y926D01*
X1250Y926D02*
X1285Y926D01*
X1300Y926D02*
X1335Y926D01*
X1349Y926D02*
X1383Y926D01*
X2003Y926D02*
X2038Y926D01*
X2052Y926D02*
X2086Y926D01*
X2102Y926D02*
X2136Y926D01*
X2150Y926D02*
X2185Y926D01*
X2200Y926D02*
X2235Y926D01*
X2249Y926D02*
X2283Y926D01*
X2803Y926D02*
X2838Y926D01*
X2852Y926D02*
X2886Y926D01*
X2902Y926D02*
X2936Y926D01*
X2950Y926D02*
X2985Y926D01*
X3000Y926D02*
X3035Y926D01*
X3049Y926D02*
X3083Y926D01*
X304Y925D02*
X341Y925D01*
X349Y925D02*
X387Y925D01*
X402Y925D02*
X439Y925D01*
X448Y925D02*
X485Y925D01*
X500Y925D02*
X538Y925D01*
X546Y925D02*
X583Y925D01*
X1103Y925D02*
X1141Y925D01*
X1149Y925D02*
X1186Y925D01*
X1202Y925D02*
X1239Y925D01*
X1248Y925D02*
X1285Y925D01*
X1300Y925D02*
X1338Y925D01*
X1346Y925D02*
X1383Y925D01*
X2003Y925D02*
X2041Y925D01*
X2049Y925D02*
X2086Y925D01*
X2102Y925D02*
X2139Y925D01*
X2147Y925D02*
X2185Y925D01*
X2200Y925D02*
X2237Y925D01*
X2246Y925D02*
X2283Y925D01*
X2803Y925D02*
X2841Y925D01*
X2849Y925D02*
X2886Y925D01*
X2902Y925D02*
X2939Y925D01*
X2947Y925D02*
X2985Y925D01*
X3000Y925D02*
X3037Y925D01*
X3046Y925D02*
X3083Y925D01*
X304Y924D02*
X387Y924D01*
X402Y924D02*
X485Y924D01*
X500Y924D02*
X583Y924D01*
X1103Y924D02*
X1186Y924D01*
X1202Y924D02*
X1285Y924D01*
X1300Y924D02*
X1383Y924D01*
X2003Y924D02*
X2086Y924D01*
X2102Y924D02*
X2185Y924D01*
X2200Y924D02*
X2283Y924D01*
X2803Y924D02*
X2886Y924D01*
X2902Y924D02*
X2985Y924D01*
X3000Y924D02*
X3083Y924D01*
X304Y923D02*
X387Y923D01*
X402Y923D02*
X485Y923D01*
X500Y923D02*
X583Y923D01*
X1103Y923D02*
X1186Y923D01*
X1202Y923D02*
X1285Y923D01*
X1300Y923D02*
X1383Y923D01*
X2003Y923D02*
X2086Y923D01*
X2102Y923D02*
X2185Y923D01*
X2200Y923D02*
X2283Y923D01*
X2803Y923D02*
X2886Y923D01*
X2902Y923D02*
X2985Y923D01*
X3000Y923D02*
X3083Y923D01*
X304Y922D02*
X387Y922D01*
X402Y922D02*
X485Y922D01*
X500Y922D02*
X583Y922D01*
X1103Y922D02*
X1186Y922D01*
X1202Y922D02*
X1285Y922D01*
X1300Y922D02*
X1383Y922D01*
X2003Y922D02*
X2086Y922D01*
X2102Y922D02*
X2185Y922D01*
X2200Y922D02*
X2283Y922D01*
X2803Y922D02*
X2886Y922D01*
X2902Y922D02*
X2985Y922D01*
X3000Y922D02*
X3083Y922D01*
X304Y921D02*
X387Y921D01*
X402Y921D02*
X485Y921D01*
X500Y921D02*
X583Y921D01*
X1103Y921D02*
X1186Y921D01*
X1202Y921D02*
X1285Y921D01*
X1300Y921D02*
X1383Y921D01*
X2003Y921D02*
X2086Y921D01*
X2102Y921D02*
X2185Y921D01*
X2200Y921D02*
X2283Y921D01*
X2803Y921D02*
X2886Y921D01*
X2902Y921D02*
X2985Y921D01*
X3000Y921D02*
X3083Y921D01*
X304Y920D02*
X387Y920D01*
X402Y920D02*
X485Y920D01*
X500Y920D02*
X583Y920D01*
X1103Y920D02*
X1186Y920D01*
X1202Y920D02*
X1285Y920D01*
X1300Y920D02*
X1383Y920D01*
X2003Y920D02*
X2086Y920D01*
X2102Y920D02*
X2185Y920D01*
X2200Y920D02*
X2283Y920D01*
X2803Y920D02*
X2886Y920D01*
X2902Y920D02*
X2985Y920D01*
X3000Y920D02*
X3083Y920D01*
X304Y919D02*
X387Y919D01*
X402Y919D02*
X485Y919D01*
X500Y919D02*
X583Y919D01*
X1103Y919D02*
X1186Y919D01*
X1202Y919D02*
X1285Y919D01*
X1300Y919D02*
X1383Y919D01*
X2003Y919D02*
X2086Y919D01*
X2102Y919D02*
X2185Y919D01*
X2200Y919D02*
X2283Y919D01*
X2803Y919D02*
X2886Y919D01*
X2902Y919D02*
X2985Y919D01*
X3000Y919D02*
X3083Y919D01*
X304Y918D02*
X387Y918D01*
X402Y918D02*
X485Y918D01*
X500Y918D02*
X583Y918D01*
X1103Y918D02*
X1186Y918D01*
X1202Y918D02*
X1285Y918D01*
X1300Y918D02*
X1383Y918D01*
X2003Y918D02*
X2086Y918D01*
X2102Y918D02*
X2185Y918D01*
X2200Y918D02*
X2283Y918D01*
X2803Y918D02*
X2886Y918D01*
X2902Y918D02*
X2985Y918D01*
X3000Y918D02*
X3083Y918D01*
X304Y917D02*
X387Y917D01*
X402Y917D02*
X485Y917D01*
X500Y917D02*
X583Y917D01*
X1103Y917D02*
X1186Y917D01*
X1202Y917D02*
X1285Y917D01*
X1300Y917D02*
X1383Y917D01*
X2003Y917D02*
X2086Y917D01*
X2102Y917D02*
X2185Y917D01*
X2200Y917D02*
X2283Y917D01*
X2803Y917D02*
X2886Y917D01*
X2902Y917D02*
X2985Y917D01*
X3000Y917D02*
X3083Y917D01*
X304Y916D02*
X387Y916D01*
X402Y916D02*
X485Y916D01*
X500Y916D02*
X583Y916D01*
X1103Y916D02*
X1186Y916D01*
X1202Y916D02*
X1285Y916D01*
X1300Y916D02*
X1383Y916D01*
X2003Y916D02*
X2086Y916D01*
X2102Y916D02*
X2185Y916D01*
X2200Y916D02*
X2283Y916D01*
X2803Y916D02*
X2886Y916D01*
X2902Y916D02*
X2985Y916D01*
X3000Y916D02*
X3083Y916D01*
X304Y915D02*
X387Y915D01*
X402Y915D02*
X485Y915D01*
X500Y915D02*
X583Y915D01*
X1103Y915D02*
X1186Y915D01*
X1202Y915D02*
X1285Y915D01*
X1300Y915D02*
X1383Y915D01*
X2003Y915D02*
X2086Y915D01*
X2102Y915D02*
X2185Y915D01*
X2200Y915D02*
X2283Y915D01*
X2803Y915D02*
X2886Y915D01*
X2902Y915D02*
X2985Y915D01*
X3000Y915D02*
X3083Y915D01*
X304Y914D02*
X387Y914D01*
X402Y914D02*
X485Y914D01*
X500Y914D02*
X583Y914D01*
X1103Y914D02*
X1186Y914D01*
X1202Y914D02*
X1285Y914D01*
X1300Y914D02*
X1383Y914D01*
X2003Y914D02*
X2086Y914D01*
X2102Y914D02*
X2185Y914D01*
X2200Y914D02*
X2283Y914D01*
X2803Y914D02*
X2886Y914D01*
X2902Y914D02*
X2985Y914D01*
X3000Y914D02*
X3083Y914D01*
X304Y913D02*
X387Y913D01*
X402Y913D02*
X485Y913D01*
X500Y913D02*
X583Y913D01*
X1103Y913D02*
X1186Y913D01*
X1202Y913D02*
X1285Y913D01*
X1300Y913D02*
X1383Y913D01*
X2003Y913D02*
X2086Y913D01*
X2102Y913D02*
X2185Y913D01*
X2200Y913D02*
X2283Y913D01*
X2803Y913D02*
X2886Y913D01*
X2902Y913D02*
X2985Y913D01*
X3000Y913D02*
X3083Y913D01*
X304Y912D02*
X387Y912D01*
X402Y912D02*
X485Y912D01*
X500Y912D02*
X583Y912D01*
X1103Y912D02*
X1186Y912D01*
X1202Y912D02*
X1285Y912D01*
X1300Y912D02*
X1383Y912D01*
X2003Y912D02*
X2086Y912D01*
X2102Y912D02*
X2185Y912D01*
X2200Y912D02*
X2283Y912D01*
X2803Y912D02*
X2886Y912D01*
X2902Y912D02*
X2985Y912D01*
X3000Y912D02*
X3083Y912D01*
X304Y911D02*
X387Y911D01*
X402Y911D02*
X485Y911D01*
X500Y911D02*
X583Y911D01*
X1103Y911D02*
X1186Y911D01*
X1202Y911D02*
X1285Y911D01*
X1300Y911D02*
X1383Y911D01*
X2003Y911D02*
X2086Y911D01*
X2102Y911D02*
X2185Y911D01*
X2200Y911D02*
X2283Y911D01*
X2803Y911D02*
X2886Y911D01*
X2902Y911D02*
X2985Y911D01*
X3000Y911D02*
X3083Y911D01*
X304Y910D02*
X387Y910D01*
X402Y910D02*
X485Y910D01*
X500Y910D02*
X583Y910D01*
X1103Y910D02*
X1186Y910D01*
X1202Y910D02*
X1285Y910D01*
X1300Y910D02*
X1383Y910D01*
X2003Y910D02*
X2086Y910D01*
X2102Y910D02*
X2185Y910D01*
X2200Y910D02*
X2283Y910D01*
X2803Y910D02*
X2886Y910D01*
X2902Y910D02*
X2985Y910D01*
X3000Y910D02*
X3083Y910D01*
X304Y909D02*
X387Y909D01*
X402Y909D02*
X485Y909D01*
X500Y909D02*
X583Y909D01*
X1103Y909D02*
X1186Y909D01*
X1202Y909D02*
X1285Y909D01*
X1300Y909D02*
X1383Y909D01*
X2003Y909D02*
X2086Y909D01*
X2102Y909D02*
X2185Y909D01*
X2200Y909D02*
X2283Y909D01*
X2803Y909D02*
X2886Y909D01*
X2902Y909D02*
X2985Y909D01*
X3000Y909D02*
X3083Y909D01*
X304Y908D02*
X387Y908D01*
X402Y908D02*
X485Y908D01*
X500Y908D02*
X583Y908D01*
X1103Y908D02*
X1186Y908D01*
X1202Y908D02*
X1285Y908D01*
X1300Y908D02*
X1383Y908D01*
X2003Y908D02*
X2086Y908D01*
X2102Y908D02*
X2185Y908D01*
X2200Y908D02*
X2283Y908D01*
X2803Y908D02*
X2886Y908D01*
X2902Y908D02*
X2985Y908D01*
X3000Y908D02*
X3083Y908D01*
X304Y907D02*
X387Y907D01*
X402Y907D02*
X485Y907D01*
X500Y907D02*
X583Y907D01*
X1103Y907D02*
X1186Y907D01*
X1202Y907D02*
X1285Y907D01*
X1300Y907D02*
X1383Y907D01*
X2003Y907D02*
X2086Y907D01*
X2102Y907D02*
X2185Y907D01*
X2200Y907D02*
X2283Y907D01*
X2803Y907D02*
X2886Y907D01*
X2902Y907D02*
X2985Y907D01*
X3000Y907D02*
X3083Y907D01*
X304Y906D02*
X387Y906D01*
X402Y906D02*
X485Y906D01*
X500Y906D02*
X583Y906D01*
X1103Y906D02*
X1186Y906D01*
X1202Y906D02*
X1285Y906D01*
X1300Y906D02*
X1383Y906D01*
X2003Y906D02*
X2086Y906D01*
X2102Y906D02*
X2185Y906D01*
X2200Y906D02*
X2283Y906D01*
X2803Y906D02*
X2886Y906D01*
X2902Y906D02*
X2985Y906D01*
X3000Y906D02*
X3083Y906D01*
X304Y905D02*
X387Y905D01*
X402Y905D02*
X485Y905D01*
X500Y905D02*
X583Y905D01*
X1103Y905D02*
X1186Y905D01*
X1202Y905D02*
X1285Y905D01*
X1300Y905D02*
X1383Y905D01*
X2003Y905D02*
X2086Y905D01*
X2102Y905D02*
X2185Y905D01*
X2200Y905D02*
X2283Y905D01*
X2803Y905D02*
X2886Y905D01*
X2902Y905D02*
X2985Y905D01*
X3000Y905D02*
X3083Y905D01*
X304Y904D02*
X387Y904D01*
X402Y904D02*
X485Y904D01*
X500Y904D02*
X583Y904D01*
X1103Y904D02*
X1186Y904D01*
X1202Y904D02*
X1285Y904D01*
X1300Y904D02*
X1383Y904D01*
X2003Y904D02*
X2086Y904D01*
X2102Y904D02*
X2185Y904D01*
X2200Y904D02*
X2283Y904D01*
X2803Y904D02*
X2886Y904D01*
X2902Y904D02*
X2985Y904D01*
X3000Y904D02*
X3083Y904D01*
X304Y903D02*
X387Y903D01*
X402Y903D02*
X485Y903D01*
X500Y903D02*
X583Y903D01*
X1103Y903D02*
X1186Y903D01*
X1202Y903D02*
X1285Y903D01*
X1300Y903D02*
X1383Y903D01*
X2003Y903D02*
X2086Y903D01*
X2102Y903D02*
X2185Y903D01*
X2200Y903D02*
X2283Y903D01*
X2803Y903D02*
X2886Y903D01*
X2902Y903D02*
X2985Y903D01*
X3000Y903D02*
X3083Y903D01*
X304Y902D02*
X387Y902D01*
X402Y902D02*
X485Y902D01*
X500Y902D02*
X583Y902D01*
X1103Y902D02*
X1186Y902D01*
X1202Y902D02*
X1285Y902D01*
X1300Y902D02*
X1383Y902D01*
X2003Y902D02*
X2086Y902D01*
X2102Y902D02*
X2185Y902D01*
X2200Y902D02*
X2283Y902D01*
X2803Y902D02*
X2886Y902D01*
X2902Y902D02*
X2985Y902D01*
X3000Y902D02*
X3083Y902D01*
X304Y901D02*
X387Y901D01*
X402Y901D02*
X485Y901D01*
X500Y901D02*
X583Y901D01*
X1103Y901D02*
X1186Y901D01*
X1202Y901D02*
X1285Y901D01*
X1300Y901D02*
X1383Y901D01*
X2003Y901D02*
X2086Y901D01*
X2102Y901D02*
X2185Y901D01*
X2200Y901D02*
X2283Y901D01*
X2803Y901D02*
X2886Y901D01*
X2902Y901D02*
X2985Y901D01*
X3000Y901D02*
X3083Y901D01*
X304Y900D02*
X387Y900D01*
X402Y900D02*
X485Y900D01*
X500Y900D02*
X583Y900D01*
X1103Y900D02*
X1186Y900D01*
X1202Y900D02*
X1285Y900D01*
X1300Y900D02*
X1383Y900D01*
X2003Y900D02*
X2086Y900D01*
X2102Y900D02*
X2185Y900D01*
X2200Y900D02*
X2283Y900D01*
X2803Y900D02*
X2886Y900D01*
X2902Y900D02*
X2985Y900D01*
X3000Y900D02*
X3083Y900D01*
X304Y899D02*
X387Y899D01*
X402Y899D02*
X485Y899D01*
X500Y899D02*
X583Y899D01*
X1103Y899D02*
X1186Y899D01*
X1202Y899D02*
X1285Y899D01*
X1300Y899D02*
X1383Y899D01*
X2003Y899D02*
X2086Y899D01*
X2102Y899D02*
X2185Y899D01*
X2200Y899D02*
X2283Y899D01*
X2803Y899D02*
X2886Y899D01*
X2902Y899D02*
X2985Y899D01*
X3000Y899D02*
X3083Y899D01*
X304Y898D02*
X387Y898D01*
X402Y898D02*
X485Y898D01*
X500Y898D02*
X583Y898D01*
X1103Y898D02*
X1186Y898D01*
X1202Y898D02*
X1285Y898D01*
X1300Y898D02*
X1383Y898D01*
X2003Y898D02*
X2086Y898D01*
X2102Y898D02*
X2185Y898D01*
X2200Y898D02*
X2283Y898D01*
X2803Y898D02*
X2886Y898D01*
X2902Y898D02*
X2985Y898D01*
X3000Y898D02*
X3083Y898D01*
X210Y474D02*
X277Y474D01*
X410Y474D02*
X477Y474D01*
X710Y474D02*
X777Y474D01*
X910Y474D02*
X977Y474D01*
X1310Y474D02*
X1377Y474D01*
X1509Y474D02*
X1577Y474D01*
X1809Y474D02*
X1877Y474D01*
X2009Y474D02*
X2077Y474D01*
X2309Y474D02*
X2377Y474D01*
X2509Y474D02*
X2577Y474D01*
X2909Y474D02*
X2977Y474D01*
X3109Y474D02*
X3177Y474D01*
X209Y473D02*
X278Y473D01*
X409Y473D02*
X478Y473D01*
X709Y473D02*
X778Y473D01*
X909Y473D02*
X978Y473D01*
X1309Y473D02*
X1378Y473D01*
X1509Y473D02*
X1578Y473D01*
X1809Y473D02*
X1877Y473D01*
X2009Y473D02*
X2077Y473D01*
X2309Y473D02*
X2377Y473D01*
X2509Y473D02*
X2577Y473D01*
X2909Y473D02*
X2977Y473D01*
X3109Y473D02*
X3177Y473D01*
X209Y472D02*
X278Y472D01*
X409Y472D02*
X478Y472D01*
X709Y472D02*
X778Y472D01*
X909Y472D02*
X978Y472D01*
X1309Y472D02*
X1378Y472D01*
X1509Y472D02*
X1578Y472D01*
X1809Y472D02*
X1877Y472D01*
X2009Y472D02*
X2077Y472D01*
X2309Y472D02*
X2377Y472D01*
X2509Y472D02*
X2577Y472D01*
X2909Y472D02*
X2977Y472D01*
X3109Y472D02*
X3177Y472D01*
X209Y471D02*
X278Y471D01*
X409Y471D02*
X478Y471D01*
X709Y471D02*
X778Y471D01*
X909Y471D02*
X978Y471D01*
X1309Y471D02*
X1378Y471D01*
X1509Y471D02*
X1578Y471D01*
X1809Y471D02*
X1877Y471D01*
X2009Y471D02*
X2077Y471D01*
X2309Y471D02*
X2377Y471D01*
X2509Y471D02*
X2577Y471D01*
X2909Y471D02*
X2977Y471D01*
X3109Y471D02*
X3177Y471D01*
X209Y470D02*
X278Y470D01*
X409Y470D02*
X478Y470D01*
X709Y470D02*
X778Y470D01*
X909Y470D02*
X978Y470D01*
X1309Y470D02*
X1378Y470D01*
X1509Y470D02*
X1578Y470D01*
X1809Y470D02*
X1877Y470D01*
X2009Y470D02*
X2077Y470D01*
X2309Y470D02*
X2377Y470D01*
X2509Y470D02*
X2577Y470D01*
X2909Y470D02*
X2977Y470D01*
X3109Y470D02*
X3177Y470D01*
X209Y469D02*
X278Y469D01*
X409Y469D02*
X478Y469D01*
X709Y469D02*
X778Y469D01*
X909Y469D02*
X978Y469D01*
X1309Y469D02*
X1378Y469D01*
X1509Y469D02*
X1578Y469D01*
X1809Y469D02*
X1877Y469D01*
X2009Y469D02*
X2077Y469D01*
X2309Y469D02*
X2377Y469D01*
X2509Y469D02*
X2577Y469D01*
X2909Y469D02*
X2977Y469D01*
X3109Y469D02*
X3177Y469D01*
X209Y468D02*
X278Y468D01*
X409Y468D02*
X478Y468D01*
X709Y468D02*
X778Y468D01*
X909Y468D02*
X978Y468D01*
X1309Y468D02*
X1378Y468D01*
X1509Y468D02*
X1578Y468D01*
X1809Y468D02*
X1877Y468D01*
X2009Y468D02*
X2077Y468D01*
X2309Y468D02*
X2377Y468D01*
X2509Y468D02*
X2577Y468D01*
X2909Y468D02*
X2977Y468D01*
X3109Y468D02*
X3177Y468D01*
X209Y467D02*
X278Y467D01*
X409Y467D02*
X478Y467D01*
X709Y467D02*
X778Y467D01*
X909Y467D02*
X978Y467D01*
X1309Y467D02*
X1378Y467D01*
X1509Y467D02*
X1578Y467D01*
X1809Y467D02*
X1877Y467D01*
X2009Y467D02*
X2077Y467D01*
X2309Y467D02*
X2377Y467D01*
X2509Y467D02*
X2577Y467D01*
X2909Y467D02*
X2977Y467D01*
X3109Y467D02*
X3177Y467D01*
X209Y466D02*
X278Y466D01*
X409Y466D02*
X478Y466D01*
X709Y466D02*
X778Y466D01*
X909Y466D02*
X978Y466D01*
X1309Y466D02*
X1378Y466D01*
X1509Y466D02*
X1578Y466D01*
X1809Y466D02*
X1877Y466D01*
X2009Y466D02*
X2077Y466D01*
X2309Y466D02*
X2377Y466D01*
X2509Y466D02*
X2577Y466D01*
X2909Y466D02*
X2977Y466D01*
X3109Y466D02*
X3177Y466D01*
X209Y465D02*
X278Y465D01*
X409Y465D02*
X478Y465D01*
X709Y465D02*
X778Y465D01*
X909Y465D02*
X978Y465D01*
X1309Y465D02*
X1378Y465D01*
X1509Y465D02*
X1578Y465D01*
X1809Y465D02*
X1877Y465D01*
X2009Y465D02*
X2077Y465D01*
X2309Y465D02*
X2377Y465D01*
X2509Y465D02*
X2577Y465D01*
X2909Y465D02*
X2977Y465D01*
X3109Y465D02*
X3177Y465D01*
X209Y464D02*
X278Y464D01*
X409Y464D02*
X478Y464D01*
X709Y464D02*
X778Y464D01*
X909Y464D02*
X978Y464D01*
X1309Y464D02*
X1378Y464D01*
X1509Y464D02*
X1578Y464D01*
X1809Y464D02*
X1877Y464D01*
X2009Y464D02*
X2077Y464D01*
X2309Y464D02*
X2377Y464D01*
X2509Y464D02*
X2577Y464D01*
X2909Y464D02*
X2977Y464D01*
X3109Y464D02*
X3177Y464D01*
X209Y463D02*
X278Y463D01*
X409Y463D02*
X478Y463D01*
X709Y463D02*
X778Y463D01*
X909Y463D02*
X978Y463D01*
X1309Y463D02*
X1378Y463D01*
X1509Y463D02*
X1578Y463D01*
X1809Y463D02*
X1877Y463D01*
X2009Y463D02*
X2077Y463D01*
X2309Y463D02*
X2377Y463D01*
X2509Y463D02*
X2577Y463D01*
X2909Y463D02*
X2977Y463D01*
X3109Y463D02*
X3177Y463D01*
X209Y462D02*
X278Y462D01*
X409Y462D02*
X478Y462D01*
X709Y462D02*
X778Y462D01*
X909Y462D02*
X978Y462D01*
X1309Y462D02*
X1378Y462D01*
X1509Y462D02*
X1578Y462D01*
X1809Y462D02*
X1877Y462D01*
X2009Y462D02*
X2077Y462D01*
X2309Y462D02*
X2377Y462D01*
X2509Y462D02*
X2577Y462D01*
X2909Y462D02*
X2977Y462D01*
X3109Y462D02*
X3177Y462D01*
X209Y461D02*
X278Y461D01*
X409Y461D02*
X478Y461D01*
X709Y461D02*
X778Y461D01*
X909Y461D02*
X978Y461D01*
X1309Y461D02*
X1378Y461D01*
X1509Y461D02*
X1578Y461D01*
X1809Y461D02*
X1877Y461D01*
X2009Y461D02*
X2077Y461D01*
X2309Y461D02*
X2377Y461D01*
X2509Y461D02*
X2577Y461D01*
X2909Y461D02*
X2977Y461D01*
X3109Y461D02*
X3177Y461D01*
X209Y460D02*
X278Y460D01*
X409Y460D02*
X478Y460D01*
X709Y460D02*
X778Y460D01*
X909Y460D02*
X978Y460D01*
X1309Y460D02*
X1378Y460D01*
X1509Y460D02*
X1578Y460D01*
X1809Y460D02*
X1877Y460D01*
X2009Y460D02*
X2077Y460D01*
X2309Y460D02*
X2377Y460D01*
X2509Y460D02*
X2577Y460D01*
X2909Y460D02*
X2977Y460D01*
X3109Y460D02*
X3177Y460D01*
X209Y459D02*
X278Y459D01*
X409Y459D02*
X478Y459D01*
X709Y459D02*
X778Y459D01*
X909Y459D02*
X978Y459D01*
X1309Y459D02*
X1378Y459D01*
X1509Y459D02*
X1578Y459D01*
X1809Y459D02*
X1877Y459D01*
X2009Y459D02*
X2077Y459D01*
X2309Y459D02*
X2377Y459D01*
X2509Y459D02*
X2577Y459D01*
X2909Y459D02*
X2977Y459D01*
X3109Y459D02*
X3177Y459D01*
X209Y458D02*
X278Y458D01*
X409Y458D02*
X478Y458D01*
X709Y458D02*
X778Y458D01*
X909Y458D02*
X978Y458D01*
X1309Y458D02*
X1378Y458D01*
X1509Y458D02*
X1578Y458D01*
X1809Y458D02*
X1877Y458D01*
X2009Y458D02*
X2077Y458D01*
X2309Y458D02*
X2377Y458D01*
X2509Y458D02*
X2577Y458D01*
X2909Y458D02*
X2977Y458D01*
X3109Y458D02*
X3177Y458D01*
X209Y457D02*
X278Y457D01*
X409Y457D02*
X478Y457D01*
X709Y457D02*
X778Y457D01*
X909Y457D02*
X978Y457D01*
X1309Y457D02*
X1378Y457D01*
X1509Y457D02*
X1578Y457D01*
X1809Y457D02*
X1877Y457D01*
X2009Y457D02*
X2077Y457D01*
X2309Y457D02*
X2377Y457D01*
X2509Y457D02*
X2577Y457D01*
X2909Y457D02*
X2977Y457D01*
X3109Y457D02*
X3177Y457D01*
X209Y456D02*
X278Y456D01*
X409Y456D02*
X478Y456D01*
X709Y456D02*
X778Y456D01*
X909Y456D02*
X978Y456D01*
X1309Y456D02*
X1378Y456D01*
X1509Y456D02*
X1578Y456D01*
X1809Y456D02*
X1877Y456D01*
X2009Y456D02*
X2077Y456D01*
X2309Y456D02*
X2377Y456D01*
X2509Y456D02*
X2577Y456D01*
X2909Y456D02*
X2977Y456D01*
X3109Y456D02*
X3177Y456D01*
X209Y455D02*
X278Y455D01*
X409Y455D02*
X478Y455D01*
X709Y455D02*
X778Y455D01*
X909Y455D02*
X978Y455D01*
X1309Y455D02*
X1378Y455D01*
X1509Y455D02*
X1578Y455D01*
X1809Y455D02*
X1877Y455D01*
X2009Y455D02*
X2077Y455D01*
X2309Y455D02*
X2377Y455D01*
X2509Y455D02*
X2577Y455D01*
X2909Y455D02*
X2977Y455D01*
X3109Y455D02*
X3177Y455D01*
X209Y454D02*
X242Y454D01*
X245Y454D02*
X278Y454D01*
X409Y454D02*
X442Y454D01*
X445Y454D02*
X478Y454D01*
X709Y454D02*
X742Y454D01*
X745Y454D02*
X778Y454D01*
X909Y454D02*
X942Y454D01*
X945Y454D02*
X978Y454D01*
X1309Y454D02*
X1342Y454D01*
X1345Y454D02*
X1378Y454D01*
X1509Y454D02*
X1542Y454D01*
X1545Y454D02*
X1578Y454D01*
X1809Y454D02*
X1842Y454D01*
X1845Y454D02*
X1877Y454D01*
X2009Y454D02*
X2042Y454D01*
X2045Y454D02*
X2077Y454D01*
X2309Y454D02*
X2342Y454D01*
X2345Y454D02*
X2377Y454D01*
X2509Y454D02*
X2542Y454D01*
X2545Y454D02*
X2577Y454D01*
X2909Y454D02*
X2942Y454D01*
X2945Y454D02*
X2977Y454D01*
X3109Y454D02*
X3142Y454D01*
X3145Y454D02*
X3177Y454D01*
X209Y453D02*
X237Y453D01*
X250Y453D02*
X278Y453D01*
X409Y453D02*
X437Y453D01*
X450Y453D02*
X478Y453D01*
X709Y453D02*
X737Y453D01*
X750Y453D02*
X778Y453D01*
X909Y453D02*
X937Y453D01*
X950Y453D02*
X978Y453D01*
X1309Y453D02*
X1337Y453D01*
X1350Y453D02*
X1378Y453D01*
X1509Y453D02*
X1537Y453D01*
X1550Y453D02*
X1578Y453D01*
X1809Y453D02*
X1837Y453D01*
X1850Y453D02*
X1877Y453D01*
X2009Y453D02*
X2037Y453D01*
X2049Y453D02*
X2077Y453D01*
X2309Y453D02*
X2337Y453D01*
X2349Y453D02*
X2377Y453D01*
X2509Y453D02*
X2537Y453D01*
X2549Y453D02*
X2577Y453D01*
X2909Y453D02*
X2937Y453D01*
X2949Y453D02*
X2977Y453D01*
X3109Y453D02*
X3137Y453D01*
X3149Y453D02*
X3177Y453D01*
X209Y452D02*
X235Y452D01*
X252Y452D02*
X278Y452D01*
X409Y452D02*
X435Y452D01*
X452Y452D02*
X478Y452D01*
X709Y452D02*
X735Y452D01*
X751Y452D02*
X778Y452D01*
X909Y452D02*
X935Y452D01*
X951Y452D02*
X978Y452D01*
X1309Y452D02*
X1335Y452D01*
X1351Y452D02*
X1378Y452D01*
X1509Y452D02*
X1535Y452D01*
X1551Y452D02*
X1578Y452D01*
X1809Y452D02*
X1835Y452D01*
X1851Y452D02*
X1877Y452D01*
X2009Y452D02*
X2035Y452D01*
X2051Y452D02*
X2077Y452D01*
X2309Y452D02*
X2335Y452D01*
X2351Y452D02*
X2377Y452D01*
X2509Y452D02*
X2535Y452D01*
X2551Y452D02*
X2577Y452D01*
X2909Y452D02*
X2935Y452D01*
X2951Y452D02*
X2977Y452D01*
X3109Y452D02*
X3135Y452D01*
X3151Y452D02*
X3177Y452D01*
X209Y451D02*
X234Y451D01*
X253Y451D02*
X278Y451D01*
X409Y451D02*
X434Y451D01*
X453Y451D02*
X478Y451D01*
X709Y451D02*
X734Y451D01*
X753Y451D02*
X778Y451D01*
X909Y451D02*
X934Y451D01*
X953Y451D02*
X978Y451D01*
X1309Y451D02*
X1334Y451D01*
X1353Y451D02*
X1378Y451D01*
X1509Y451D02*
X1534Y451D01*
X1553Y451D02*
X1578Y451D01*
X1809Y451D02*
X1834Y451D01*
X1853Y451D02*
X1877Y451D01*
X2009Y451D02*
X2034Y451D01*
X2053Y451D02*
X2077Y451D01*
X2309Y451D02*
X2334Y451D01*
X2353Y451D02*
X2377Y451D01*
X2509Y451D02*
X2534Y451D01*
X2553Y451D02*
X2577Y451D01*
X2909Y451D02*
X2934Y451D01*
X2953Y451D02*
X2977Y451D01*
X3109Y451D02*
X3134Y451D01*
X3153Y451D02*
X3177Y451D01*
X209Y450D02*
X233Y450D01*
X254Y450D02*
X278Y450D01*
X409Y450D02*
X433Y450D01*
X454Y450D02*
X478Y450D01*
X709Y450D02*
X733Y450D01*
X754Y450D02*
X778Y450D01*
X909Y450D02*
X933Y450D01*
X954Y450D02*
X978Y450D01*
X1309Y450D02*
X1333Y450D01*
X1354Y450D02*
X1378Y450D01*
X1509Y450D02*
X1533Y450D01*
X1554Y450D02*
X1578Y450D01*
X1809Y450D02*
X1833Y450D01*
X1854Y450D02*
X1877Y450D01*
X2009Y450D02*
X2033Y450D01*
X2054Y450D02*
X2077Y450D01*
X2309Y450D02*
X2333Y450D01*
X2354Y450D02*
X2377Y450D01*
X2509Y450D02*
X2533Y450D01*
X2554Y450D02*
X2577Y450D01*
X2909Y450D02*
X2933Y450D01*
X2954Y450D02*
X2977Y450D01*
X3109Y450D02*
X3133Y450D01*
X3154Y450D02*
X3177Y450D01*
X209Y449D02*
X232Y449D01*
X255Y449D02*
X278Y449D01*
X409Y449D02*
X432Y449D01*
X455Y449D02*
X478Y449D01*
X709Y449D02*
X732Y449D01*
X755Y449D02*
X778Y449D01*
X909Y449D02*
X932Y449D01*
X955Y449D02*
X978Y449D01*
X1309Y449D02*
X1332Y449D01*
X1355Y449D02*
X1378Y449D01*
X1509Y449D02*
X1532Y449D01*
X1555Y449D02*
X1578Y449D01*
X1809Y449D02*
X1832Y449D01*
X1855Y449D02*
X1877Y449D01*
X2009Y449D02*
X2032Y449D01*
X2055Y449D02*
X2077Y449D01*
X2309Y449D02*
X2332Y449D01*
X2355Y449D02*
X2377Y449D01*
X2509Y449D02*
X2532Y449D01*
X2555Y449D02*
X2577Y449D01*
X2909Y449D02*
X2932Y449D01*
X2955Y449D02*
X2977Y449D01*
X3109Y449D02*
X3132Y449D01*
X3155Y449D02*
X3177Y449D01*
X209Y448D02*
X231Y448D01*
X256Y448D02*
X278Y448D01*
X409Y448D02*
X431Y448D01*
X456Y448D02*
X478Y448D01*
X709Y448D02*
X731Y448D01*
X756Y448D02*
X778Y448D01*
X909Y448D02*
X931Y448D01*
X956Y448D02*
X978Y448D01*
X1309Y448D02*
X1331Y448D01*
X1356Y448D02*
X1378Y448D01*
X1509Y448D02*
X1531Y448D01*
X1556Y448D02*
X1578Y448D01*
X1809Y448D02*
X1831Y448D01*
X1856Y448D02*
X1877Y448D01*
X2009Y448D02*
X2031Y448D01*
X2056Y448D02*
X2077Y448D01*
X2309Y448D02*
X2331Y448D01*
X2356Y448D02*
X2377Y448D01*
X2509Y448D02*
X2531Y448D01*
X2556Y448D02*
X2577Y448D01*
X2909Y448D02*
X2931Y448D01*
X2956Y448D02*
X2977Y448D01*
X3109Y448D02*
X3131Y448D01*
X3156Y448D02*
X3177Y448D01*
X209Y447D02*
X230Y447D01*
X257Y447D02*
X278Y447D01*
X409Y447D02*
X430Y447D01*
X457Y447D02*
X478Y447D01*
X709Y447D02*
X730Y447D01*
X756Y447D02*
X778Y447D01*
X909Y447D02*
X930Y447D01*
X956Y447D02*
X978Y447D01*
X1309Y447D02*
X1330Y447D01*
X1356Y447D02*
X1378Y447D01*
X1509Y447D02*
X1530Y447D01*
X1556Y447D02*
X1578Y447D01*
X1809Y447D02*
X1830Y447D01*
X1856Y447D02*
X1877Y447D01*
X2009Y447D02*
X2030Y447D01*
X2056Y447D02*
X2077Y447D01*
X2309Y447D02*
X2330Y447D01*
X2356Y447D02*
X2377Y447D01*
X2509Y447D02*
X2530Y447D01*
X2556Y447D02*
X2577Y447D01*
X2909Y447D02*
X2930Y447D01*
X2956Y447D02*
X2977Y447D01*
X3109Y447D02*
X3130Y447D01*
X3156Y447D02*
X3177Y447D01*
X209Y446D02*
X230Y446D01*
X257Y446D02*
X278Y446D01*
X409Y446D02*
X430Y446D01*
X457Y446D02*
X478Y446D01*
X709Y446D02*
X730Y446D01*
X757Y446D02*
X778Y446D01*
X909Y446D02*
X930Y446D01*
X957Y446D02*
X978Y446D01*
X1309Y446D02*
X1330Y446D01*
X1357Y446D02*
X1378Y446D01*
X1509Y446D02*
X1530Y446D01*
X1557Y446D02*
X1578Y446D01*
X1809Y446D02*
X1830Y446D01*
X1857Y446D02*
X1877Y446D01*
X2009Y446D02*
X2030Y446D01*
X2057Y446D02*
X2077Y446D01*
X2309Y446D02*
X2330Y446D01*
X2357Y446D02*
X2377Y446D01*
X2509Y446D02*
X2530Y446D01*
X2557Y446D02*
X2577Y446D01*
X2909Y446D02*
X2930Y446D01*
X2957Y446D02*
X2977Y446D01*
X3109Y446D02*
X3129Y446D01*
X3157Y446D02*
X3177Y446D01*
X209Y445D02*
X229Y445D01*
X258Y445D02*
X278Y445D01*
X409Y445D02*
X429Y445D01*
X458Y445D02*
X478Y445D01*
X709Y445D02*
X729Y445D01*
X758Y445D02*
X778Y445D01*
X909Y445D02*
X929Y445D01*
X958Y445D02*
X978Y445D01*
X1309Y445D02*
X1329Y445D01*
X1357Y445D02*
X1378Y445D01*
X1509Y445D02*
X1529Y445D01*
X1557Y445D02*
X1578Y445D01*
X1809Y445D02*
X1829Y445D01*
X1857Y445D02*
X1877Y445D01*
X2009Y445D02*
X2029Y445D01*
X2057Y445D02*
X2077Y445D01*
X2309Y445D02*
X2329Y445D01*
X2357Y445D02*
X2377Y445D01*
X2509Y445D02*
X2529Y445D01*
X2557Y445D02*
X2577Y445D01*
X2909Y445D02*
X2929Y445D01*
X2957Y445D02*
X2977Y445D01*
X3109Y445D02*
X3129Y445D01*
X3157Y445D02*
X3177Y445D01*
X209Y444D02*
X229Y444D01*
X258Y444D02*
X278Y444D01*
X409Y444D02*
X429Y444D01*
X458Y444D02*
X478Y444D01*
X709Y444D02*
X729Y444D01*
X758Y444D02*
X778Y444D01*
X909Y444D02*
X929Y444D01*
X958Y444D02*
X978Y444D01*
X1309Y444D02*
X1329Y444D01*
X1358Y444D02*
X1378Y444D01*
X1509Y444D02*
X1529Y444D01*
X1558Y444D02*
X1578Y444D01*
X1809Y444D02*
X1829Y444D01*
X1858Y444D02*
X1877Y444D01*
X2009Y444D02*
X2029Y444D01*
X2058Y444D02*
X2077Y444D01*
X2309Y444D02*
X2329Y444D01*
X2358Y444D02*
X2377Y444D01*
X2509Y444D02*
X2529Y444D01*
X2558Y444D02*
X2577Y444D01*
X2909Y444D02*
X2929Y444D01*
X2958Y444D02*
X2977Y444D01*
X3109Y444D02*
X3129Y444D01*
X3158Y444D02*
X3177Y444D01*
X209Y443D02*
X229Y443D01*
X258Y443D02*
X278Y443D01*
X409Y443D02*
X429Y443D01*
X458Y443D02*
X478Y443D01*
X709Y443D02*
X729Y443D01*
X758Y443D02*
X778Y443D01*
X909Y443D02*
X929Y443D01*
X958Y443D02*
X978Y443D01*
X1309Y443D02*
X1329Y443D01*
X1358Y443D02*
X1378Y443D01*
X1509Y443D02*
X1529Y443D01*
X1558Y443D02*
X1578Y443D01*
X1809Y443D02*
X1829Y443D01*
X1858Y443D02*
X1877Y443D01*
X2009Y443D02*
X2029Y443D01*
X2058Y443D02*
X2077Y443D01*
X2309Y443D02*
X2328Y443D01*
X2358Y443D02*
X2377Y443D01*
X2509Y443D02*
X2528Y443D01*
X2558Y443D02*
X2577Y443D01*
X2909Y443D02*
X2928Y443D01*
X2958Y443D02*
X2977Y443D01*
X3109Y443D02*
X3128Y443D01*
X3158Y443D02*
X3177Y443D01*
X209Y442D02*
X229Y442D01*
X258Y442D02*
X278Y442D01*
X409Y442D02*
X428Y442D01*
X458Y442D02*
X478Y442D01*
X709Y442D02*
X728Y442D01*
X758Y442D02*
X778Y442D01*
X909Y442D02*
X928Y442D01*
X958Y442D02*
X978Y442D01*
X1309Y442D02*
X1328Y442D01*
X1358Y442D02*
X1378Y442D01*
X1509Y442D02*
X1528Y442D01*
X1558Y442D02*
X1578Y442D01*
X1809Y442D02*
X1828Y442D01*
X1858Y442D02*
X1877Y442D01*
X2009Y442D02*
X2028Y442D01*
X2058Y442D02*
X2077Y442D01*
X2309Y442D02*
X2328Y442D01*
X2358Y442D02*
X2377Y442D01*
X2509Y442D02*
X2528Y442D01*
X2558Y442D02*
X2577Y442D01*
X2909Y442D02*
X2928Y442D01*
X2958Y442D02*
X2977Y442D01*
X3109Y442D02*
X3128Y442D01*
X3158Y442D02*
X3177Y442D01*
X209Y441D02*
X228Y441D01*
X259Y441D02*
X278Y441D01*
X409Y441D02*
X428Y441D01*
X458Y441D02*
X478Y441D01*
X709Y441D02*
X728Y441D01*
X758Y441D02*
X778Y441D01*
X909Y441D02*
X928Y441D01*
X958Y441D02*
X978Y441D01*
X1309Y441D02*
X1328Y441D01*
X1358Y441D02*
X1378Y441D01*
X1509Y441D02*
X1528Y441D01*
X1558Y441D02*
X1578Y441D01*
X1809Y441D02*
X1828Y441D01*
X1858Y441D02*
X1877Y441D01*
X2009Y441D02*
X2028Y441D01*
X2058Y441D02*
X2077Y441D01*
X2309Y441D02*
X2328Y441D01*
X2358Y441D02*
X2377Y441D01*
X2509Y441D02*
X2528Y441D01*
X2558Y441D02*
X2577Y441D01*
X2909Y441D02*
X2928Y441D01*
X2958Y441D02*
X2977Y441D01*
X3109Y441D02*
X3128Y441D01*
X3158Y441D02*
X3177Y441D01*
X209Y440D02*
X228Y440D01*
X259Y440D02*
X278Y440D01*
X409Y440D02*
X428Y440D01*
X459Y440D02*
X478Y440D01*
X709Y440D02*
X728Y440D01*
X759Y440D02*
X778Y440D01*
X909Y440D02*
X928Y440D01*
X959Y440D02*
X978Y440D01*
X1309Y440D02*
X1328Y440D01*
X1358Y440D02*
X1378Y440D01*
X1509Y440D02*
X1528Y440D01*
X1558Y440D02*
X1578Y440D01*
X1809Y440D02*
X1828Y440D01*
X1858Y440D02*
X1877Y440D01*
X2009Y440D02*
X2028Y440D01*
X2058Y440D02*
X2077Y440D01*
X2309Y440D02*
X2328Y440D01*
X2358Y440D02*
X2377Y440D01*
X2509Y440D02*
X2528Y440D01*
X2558Y440D02*
X2577Y440D01*
X2909Y440D02*
X2928Y440D01*
X2958Y440D02*
X2977Y440D01*
X3109Y440D02*
X3128Y440D01*
X3158Y440D02*
X3177Y440D01*
X209Y439D02*
X228Y439D01*
X259Y439D02*
X278Y439D01*
X409Y439D02*
X428Y439D01*
X459Y439D02*
X478Y439D01*
X709Y439D02*
X728Y439D01*
X759Y439D02*
X778Y439D01*
X909Y439D02*
X928Y439D01*
X959Y439D02*
X978Y439D01*
X1309Y439D02*
X1328Y439D01*
X1358Y439D02*
X1378Y439D01*
X1509Y439D02*
X1528Y439D01*
X1558Y439D02*
X1578Y439D01*
X1809Y439D02*
X1828Y439D01*
X1858Y439D02*
X1877Y439D01*
X2009Y439D02*
X2028Y439D01*
X2058Y439D02*
X2077Y439D01*
X2309Y439D02*
X2328Y439D01*
X2358Y439D02*
X2377Y439D01*
X2509Y439D02*
X2528Y439D01*
X2558Y439D02*
X2577Y439D01*
X2909Y439D02*
X2928Y439D01*
X2958Y439D02*
X2977Y439D01*
X3109Y439D02*
X3128Y439D01*
X3158Y439D02*
X3177Y439D01*
X209Y438D02*
X228Y438D01*
X259Y438D02*
X278Y438D01*
X409Y438D02*
X428Y438D01*
X458Y438D02*
X478Y438D01*
X709Y438D02*
X728Y438D01*
X758Y438D02*
X778Y438D01*
X909Y438D02*
X928Y438D01*
X958Y438D02*
X978Y438D01*
X1309Y438D02*
X1328Y438D01*
X1358Y438D02*
X1378Y438D01*
X1509Y438D02*
X1528Y438D01*
X1558Y438D02*
X1578Y438D01*
X1809Y438D02*
X1828Y438D01*
X1858Y438D02*
X1877Y438D01*
X2009Y438D02*
X2028Y438D01*
X2058Y438D02*
X2077Y438D01*
X2309Y438D02*
X2328Y438D01*
X2358Y438D02*
X2377Y438D01*
X2509Y438D02*
X2528Y438D01*
X2558Y438D02*
X2577Y438D01*
X2909Y438D02*
X2928Y438D01*
X2958Y438D02*
X2977Y438D01*
X3109Y438D02*
X3128Y438D01*
X3158Y438D02*
X3177Y438D01*
X209Y437D02*
X228Y437D01*
X258Y437D02*
X278Y437D01*
X409Y437D02*
X428Y437D01*
X458Y437D02*
X478Y437D01*
X709Y437D02*
X728Y437D01*
X758Y437D02*
X778Y437D01*
X909Y437D02*
X928Y437D01*
X958Y437D02*
X978Y437D01*
X1309Y437D02*
X1328Y437D01*
X1358Y437D02*
X1378Y437D01*
X1509Y437D02*
X1528Y437D01*
X1558Y437D02*
X1578Y437D01*
X1809Y437D02*
X1828Y437D01*
X1858Y437D02*
X1877Y437D01*
X2009Y437D02*
X2028Y437D01*
X2058Y437D02*
X2077Y437D01*
X2309Y437D02*
X2328Y437D01*
X2358Y437D02*
X2377Y437D01*
X2509Y437D02*
X2528Y437D01*
X2558Y437D02*
X2577Y437D01*
X2909Y437D02*
X2928Y437D01*
X2958Y437D02*
X2977Y437D01*
X3109Y437D02*
X3128Y437D01*
X3158Y437D02*
X3177Y437D01*
X209Y436D02*
X229Y436D01*
X258Y436D02*
X278Y436D01*
X409Y436D02*
X429Y436D01*
X458Y436D02*
X478Y436D01*
X709Y436D02*
X729Y436D01*
X758Y436D02*
X778Y436D01*
X909Y436D02*
X929Y436D01*
X958Y436D02*
X978Y436D01*
X1309Y436D02*
X1329Y436D01*
X1358Y436D02*
X1378Y436D01*
X1509Y436D02*
X1529Y436D01*
X1558Y436D02*
X1578Y436D01*
X1809Y436D02*
X1828Y436D01*
X1858Y436D02*
X1877Y436D01*
X2009Y436D02*
X2028Y436D01*
X2058Y436D02*
X2077Y436D01*
X2309Y436D02*
X2328Y436D01*
X2358Y436D02*
X2377Y436D01*
X2509Y436D02*
X2528Y436D01*
X2558Y436D02*
X2577Y436D01*
X2909Y436D02*
X2928Y436D01*
X2958Y436D02*
X2977Y436D01*
X3109Y436D02*
X3128Y436D01*
X3158Y436D02*
X3177Y436D01*
X209Y435D02*
X229Y435D01*
X258Y435D02*
X278Y435D01*
X409Y435D02*
X429Y435D01*
X458Y435D02*
X478Y435D01*
X709Y435D02*
X729Y435D01*
X758Y435D02*
X778Y435D01*
X909Y435D02*
X929Y435D01*
X958Y435D02*
X978Y435D01*
X1309Y435D02*
X1329Y435D01*
X1358Y435D02*
X1378Y435D01*
X1509Y435D02*
X1529Y435D01*
X1558Y435D02*
X1578Y435D01*
X1809Y435D02*
X1829Y435D01*
X1858Y435D02*
X1877Y435D01*
X2009Y435D02*
X2029Y435D01*
X2058Y435D02*
X2077Y435D01*
X2309Y435D02*
X2329Y435D01*
X2358Y435D02*
X2377Y435D01*
X2509Y435D02*
X2529Y435D01*
X2558Y435D02*
X2577Y435D01*
X2909Y435D02*
X2929Y435D01*
X2958Y435D02*
X2977Y435D01*
X3109Y435D02*
X3129Y435D01*
X3158Y435D02*
X3177Y435D01*
X209Y434D02*
X229Y434D01*
X258Y434D02*
X278Y434D01*
X409Y434D02*
X429Y434D01*
X458Y434D02*
X478Y434D01*
X709Y434D02*
X729Y434D01*
X758Y434D02*
X778Y434D01*
X909Y434D02*
X929Y434D01*
X958Y434D02*
X978Y434D01*
X1309Y434D02*
X1329Y434D01*
X1358Y434D02*
X1378Y434D01*
X1509Y434D02*
X1529Y434D01*
X1558Y434D02*
X1578Y434D01*
X1809Y434D02*
X1829Y434D01*
X1857Y434D02*
X1877Y434D01*
X2009Y434D02*
X2029Y434D01*
X2057Y434D02*
X2077Y434D01*
X2309Y434D02*
X2329Y434D01*
X2357Y434D02*
X2377Y434D01*
X2509Y434D02*
X2529Y434D01*
X2557Y434D02*
X2577Y434D01*
X2909Y434D02*
X2929Y434D01*
X2957Y434D02*
X2977Y434D01*
X3109Y434D02*
X3129Y434D01*
X3157Y434D02*
X3177Y434D01*
X209Y433D02*
X230Y433D01*
X257Y433D02*
X278Y433D01*
X409Y433D02*
X430Y433D01*
X457Y433D02*
X478Y433D01*
X709Y433D02*
X730Y433D01*
X757Y433D02*
X778Y433D01*
X909Y433D02*
X930Y433D01*
X957Y433D02*
X978Y433D01*
X1309Y433D02*
X1330Y433D01*
X1357Y433D02*
X1378Y433D01*
X1509Y433D02*
X1530Y433D01*
X1557Y433D02*
X1578Y433D01*
X1809Y433D02*
X1830Y433D01*
X1857Y433D02*
X1877Y433D01*
X2009Y433D02*
X2030Y433D01*
X2057Y433D02*
X2077Y433D01*
X2309Y433D02*
X2329Y433D01*
X2357Y433D02*
X2377Y433D01*
X2509Y433D02*
X2529Y433D01*
X2557Y433D02*
X2577Y433D01*
X2909Y433D02*
X2929Y433D01*
X2957Y433D02*
X2977Y433D01*
X3109Y433D02*
X3129Y433D01*
X3157Y433D02*
X3177Y433D01*
X209Y432D02*
X230Y432D01*
X257Y432D02*
X278Y432D01*
X409Y432D02*
X430Y432D01*
X457Y432D02*
X478Y432D01*
X709Y432D02*
X730Y432D01*
X757Y432D02*
X778Y432D01*
X909Y432D02*
X930Y432D01*
X957Y432D02*
X978Y432D01*
X1309Y432D02*
X1330Y432D01*
X1357Y432D02*
X1378Y432D01*
X1509Y432D02*
X1530Y432D01*
X1557Y432D02*
X1578Y432D01*
X1809Y432D02*
X1830Y432D01*
X1856Y432D02*
X1877Y432D01*
X2009Y432D02*
X2030Y432D01*
X2056Y432D02*
X2077Y432D01*
X2309Y432D02*
X2330Y432D01*
X2356Y432D02*
X2377Y432D01*
X2509Y432D02*
X2530Y432D01*
X2556Y432D02*
X2577Y432D01*
X2909Y432D02*
X2930Y432D01*
X2956Y432D02*
X2977Y432D01*
X3109Y432D02*
X3130Y432D01*
X3156Y432D02*
X3177Y432D01*
X209Y431D02*
X231Y431D01*
X256Y431D02*
X278Y431D01*
X409Y431D02*
X431Y431D01*
X456Y431D02*
X478Y431D01*
X709Y431D02*
X731Y431D01*
X756Y431D02*
X778Y431D01*
X909Y431D02*
X931Y431D01*
X956Y431D02*
X978Y431D01*
X1309Y431D02*
X1331Y431D01*
X1356Y431D02*
X1378Y431D01*
X1509Y431D02*
X1531Y431D01*
X1556Y431D02*
X1578Y431D01*
X1809Y431D02*
X1831Y431D01*
X1856Y431D02*
X1877Y431D01*
X2009Y431D02*
X2031Y431D01*
X2056Y431D02*
X2077Y431D01*
X2309Y431D02*
X2331Y431D01*
X2356Y431D02*
X2377Y431D01*
X2509Y431D02*
X2531Y431D01*
X2556Y431D02*
X2577Y431D01*
X2909Y431D02*
X2931Y431D01*
X2956Y431D02*
X2977Y431D01*
X3109Y431D02*
X3131Y431D01*
X3156Y431D02*
X3177Y431D01*
X209Y430D02*
X232Y430D01*
X255Y430D02*
X278Y430D01*
X409Y430D02*
X432Y430D01*
X455Y430D02*
X478Y430D01*
X709Y430D02*
X732Y430D01*
X755Y430D02*
X778Y430D01*
X909Y430D02*
X932Y430D01*
X955Y430D02*
X978Y430D01*
X1309Y430D02*
X1332Y430D01*
X1355Y430D02*
X1378Y430D01*
X1509Y430D02*
X1532Y430D01*
X1555Y430D02*
X1578Y430D01*
X1809Y430D02*
X1832Y430D01*
X1855Y430D02*
X1877Y430D01*
X2009Y430D02*
X2032Y430D01*
X2055Y430D02*
X2077Y430D01*
X2309Y430D02*
X2332Y430D01*
X2355Y430D02*
X2377Y430D01*
X2509Y430D02*
X2532Y430D01*
X2555Y430D02*
X2577Y430D01*
X2909Y430D02*
X2931Y430D01*
X2955Y430D02*
X2977Y430D01*
X3109Y430D02*
X3131Y430D01*
X3155Y430D02*
X3177Y430D01*
X209Y429D02*
X233Y429D01*
X254Y429D02*
X278Y429D01*
X409Y429D02*
X433Y429D01*
X454Y429D02*
X478Y429D01*
X709Y429D02*
X733Y429D01*
X754Y429D02*
X778Y429D01*
X909Y429D02*
X933Y429D01*
X954Y429D02*
X978Y429D01*
X1309Y429D02*
X1333Y429D01*
X1354Y429D02*
X1378Y429D01*
X1509Y429D02*
X1533Y429D01*
X1554Y429D02*
X1578Y429D01*
X1809Y429D02*
X1832Y429D01*
X1854Y429D02*
X1877Y429D01*
X2009Y429D02*
X2032Y429D01*
X2054Y429D02*
X2077Y429D01*
X2309Y429D02*
X2332Y429D01*
X2354Y429D02*
X2377Y429D01*
X2509Y429D02*
X2532Y429D01*
X2554Y429D02*
X2577Y429D01*
X2909Y429D02*
X2932Y429D01*
X2954Y429D02*
X2977Y429D01*
X3109Y429D02*
X3132Y429D01*
X3154Y429D02*
X3177Y429D01*
X209Y428D02*
X234Y428D01*
X253Y428D02*
X278Y428D01*
X409Y428D02*
X434Y428D01*
X453Y428D02*
X478Y428D01*
X709Y428D02*
X734Y428D01*
X753Y428D02*
X778Y428D01*
X909Y428D02*
X934Y428D01*
X953Y428D02*
X978Y428D01*
X1309Y428D02*
X1334Y428D01*
X1353Y428D02*
X1378Y428D01*
X1509Y428D02*
X1534Y428D01*
X1553Y428D02*
X1578Y428D01*
X1809Y428D02*
X1834Y428D01*
X1853Y428D02*
X1877Y428D01*
X2009Y428D02*
X2034Y428D01*
X2053Y428D02*
X2077Y428D01*
X2309Y428D02*
X2334Y428D01*
X2353Y428D02*
X2377Y428D01*
X2509Y428D02*
X2534Y428D01*
X2553Y428D02*
X2577Y428D01*
X2909Y428D02*
X2933Y428D01*
X2953Y428D02*
X2977Y428D01*
X3109Y428D02*
X3133Y428D01*
X3153Y428D02*
X3177Y428D01*
X209Y427D02*
X235Y427D01*
X252Y427D02*
X278Y427D01*
X409Y427D02*
X435Y427D01*
X452Y427D02*
X478Y427D01*
X709Y427D02*
X735Y427D01*
X752Y427D02*
X778Y427D01*
X909Y427D02*
X935Y427D01*
X952Y427D02*
X978Y427D01*
X1309Y427D02*
X1335Y427D01*
X1352Y427D02*
X1378Y427D01*
X1509Y427D02*
X1535Y427D01*
X1552Y427D02*
X1578Y427D01*
X1809Y427D02*
X1835Y427D01*
X1852Y427D02*
X1877Y427D01*
X2009Y427D02*
X2035Y427D01*
X2052Y427D02*
X2077Y427D01*
X2309Y427D02*
X2335Y427D01*
X2352Y427D02*
X2377Y427D01*
X2509Y427D02*
X2535Y427D01*
X2552Y427D02*
X2577Y427D01*
X2909Y427D02*
X2935Y427D01*
X2952Y427D02*
X2977Y427D01*
X3109Y427D02*
X3135Y427D01*
X3152Y427D02*
X3177Y427D01*
X209Y426D02*
X237Y426D01*
X250Y426D02*
X278Y426D01*
X409Y426D02*
X437Y426D01*
X450Y426D02*
X478Y426D01*
X709Y426D02*
X737Y426D01*
X750Y426D02*
X778Y426D01*
X909Y426D02*
X937Y426D01*
X950Y426D02*
X978Y426D01*
X1309Y426D02*
X1337Y426D01*
X1350Y426D02*
X1378Y426D01*
X1509Y426D02*
X1537Y426D01*
X1550Y426D02*
X1578Y426D01*
X1809Y426D02*
X1837Y426D01*
X1850Y426D02*
X1877Y426D01*
X2009Y426D02*
X2037Y426D01*
X2050Y426D02*
X2077Y426D01*
X2309Y426D02*
X2337Y426D01*
X2350Y426D02*
X2377Y426D01*
X2509Y426D02*
X2537Y426D01*
X2550Y426D02*
X2577Y426D01*
X2909Y426D02*
X2937Y426D01*
X2950Y426D02*
X2977Y426D01*
X3109Y426D02*
X3137Y426D01*
X3150Y426D02*
X3177Y426D01*
X209Y425D02*
X240Y425D01*
X247Y425D02*
X278Y425D01*
X409Y425D02*
X440Y425D01*
X447Y425D02*
X478Y425D01*
X709Y425D02*
X740Y425D01*
X747Y425D02*
X778Y425D01*
X909Y425D02*
X940Y425D01*
X947Y425D02*
X978Y425D01*
X1309Y425D02*
X1340Y425D01*
X1347Y425D02*
X1378Y425D01*
X1509Y425D02*
X1540Y425D01*
X1547Y425D02*
X1578Y425D01*
X1809Y425D02*
X1840Y425D01*
X1847Y425D02*
X1877Y425D01*
X2009Y425D02*
X2040Y425D01*
X2047Y425D02*
X2077Y425D01*
X2309Y425D02*
X2340Y425D01*
X2347Y425D02*
X2377Y425D01*
X2509Y425D02*
X2540Y425D01*
X2547Y425D02*
X2577Y425D01*
X2909Y425D02*
X2940Y425D01*
X2947Y425D02*
X2977Y425D01*
X3109Y425D02*
X3140Y425D01*
X3147Y425D02*
X3177Y425D01*
X209Y424D02*
X278Y424D01*
X409Y424D02*
X478Y424D01*
X709Y424D02*
X778Y424D01*
X909Y424D02*
X978Y424D01*
X1309Y424D02*
X1378Y424D01*
X1509Y424D02*
X1578Y424D01*
X1809Y424D02*
X1877Y424D01*
X2009Y424D02*
X2077Y424D01*
X2309Y424D02*
X2377Y424D01*
X2509Y424D02*
X2577Y424D01*
X2909Y424D02*
X2977Y424D01*
X3109Y424D02*
X3177Y424D01*
X209Y423D02*
X278Y423D01*
X409Y423D02*
X478Y423D01*
X709Y423D02*
X778Y423D01*
X909Y423D02*
X978Y423D01*
X1309Y423D02*
X1378Y423D01*
X1509Y423D02*
X1578Y423D01*
X1809Y423D02*
X1877Y423D01*
X2009Y423D02*
X2077Y423D01*
X2309Y423D02*
X2377Y423D01*
X2509Y423D02*
X2577Y423D01*
X2909Y423D02*
X2977Y423D01*
X3109Y423D02*
X3177Y423D01*
X209Y422D02*
X278Y422D01*
X409Y422D02*
X478Y422D01*
X709Y422D02*
X778Y422D01*
X909Y422D02*
X978Y422D01*
X1309Y422D02*
X1378Y422D01*
X1509Y422D02*
X1578Y422D01*
X1809Y422D02*
X1877Y422D01*
X2009Y422D02*
X2077Y422D01*
X2309Y422D02*
X2377Y422D01*
X2509Y422D02*
X2577Y422D01*
X2909Y422D02*
X2977Y422D01*
X3109Y422D02*
X3177Y422D01*
X209Y421D02*
X278Y421D01*
X409Y421D02*
X478Y421D01*
X709Y421D02*
X778Y421D01*
X909Y421D02*
X978Y421D01*
X1309Y421D02*
X1378Y421D01*
X1509Y421D02*
X1578Y421D01*
X1809Y421D02*
X1877Y421D01*
X2009Y421D02*
X2077Y421D01*
X2309Y421D02*
X2377Y421D01*
X2509Y421D02*
X2577Y421D01*
X2909Y421D02*
X2977Y421D01*
X3109Y421D02*
X3177Y421D01*
X209Y420D02*
X278Y420D01*
X409Y420D02*
X478Y420D01*
X709Y420D02*
X778Y420D01*
X909Y420D02*
X978Y420D01*
X1309Y420D02*
X1378Y420D01*
X1509Y420D02*
X1578Y420D01*
X1809Y420D02*
X1877Y420D01*
X2009Y420D02*
X2077Y420D01*
X2309Y420D02*
X2377Y420D01*
X2509Y420D02*
X2577Y420D01*
X2909Y420D02*
X2977Y420D01*
X3109Y420D02*
X3177Y420D01*
X209Y419D02*
X278Y419D01*
X409Y419D02*
X478Y419D01*
X709Y419D02*
X778Y419D01*
X909Y419D02*
X978Y419D01*
X1309Y419D02*
X1378Y419D01*
X1509Y419D02*
X1578Y419D01*
X1809Y419D02*
X1877Y419D01*
X2009Y419D02*
X2077Y419D01*
X2309Y419D02*
X2377Y419D01*
X2509Y419D02*
X2577Y419D01*
X2909Y419D02*
X2977Y419D01*
X3109Y419D02*
X3177Y419D01*
X209Y418D02*
X278Y418D01*
X409Y418D02*
X478Y418D01*
X709Y418D02*
X778Y418D01*
X909Y418D02*
X978Y418D01*
X1309Y418D02*
X1378Y418D01*
X1509Y418D02*
X1578Y418D01*
X1809Y418D02*
X1877Y418D01*
X2009Y418D02*
X2077Y418D01*
X2309Y418D02*
X2377Y418D01*
X2509Y418D02*
X2577Y418D01*
X2909Y418D02*
X2977Y418D01*
X3109Y418D02*
X3177Y418D01*
X209Y417D02*
X278Y417D01*
X409Y417D02*
X478Y417D01*
X709Y417D02*
X778Y417D01*
X909Y417D02*
X978Y417D01*
X1309Y417D02*
X1378Y417D01*
X1509Y417D02*
X1578Y417D01*
X1809Y417D02*
X1877Y417D01*
X2009Y417D02*
X2077Y417D01*
X2309Y417D02*
X2377Y417D01*
X2509Y417D02*
X2577Y417D01*
X2909Y417D02*
X2977Y417D01*
X3109Y417D02*
X3177Y417D01*
X209Y416D02*
X278Y416D01*
X409Y416D02*
X478Y416D01*
X709Y416D02*
X778Y416D01*
X909Y416D02*
X978Y416D01*
X1309Y416D02*
X1378Y416D01*
X1509Y416D02*
X1578Y416D01*
X1809Y416D02*
X1877Y416D01*
X2009Y416D02*
X2077Y416D01*
X2309Y416D02*
X2377Y416D01*
X2509Y416D02*
X2577Y416D01*
X2909Y416D02*
X2977Y416D01*
X3109Y416D02*
X3177Y416D01*
X209Y415D02*
X278Y415D01*
X409Y415D02*
X478Y415D01*
X709Y415D02*
X778Y415D01*
X909Y415D02*
X978Y415D01*
X1309Y415D02*
X1378Y415D01*
X1509Y415D02*
X1578Y415D01*
X1809Y415D02*
X1877Y415D01*
X2009Y415D02*
X2077Y415D01*
X2309Y415D02*
X2377Y415D01*
X2509Y415D02*
X2577Y415D01*
X2909Y415D02*
X2977Y415D01*
X3109Y415D02*
X3177Y415D01*
X209Y414D02*
X278Y414D01*
X409Y414D02*
X478Y414D01*
X709Y414D02*
X778Y414D01*
X909Y414D02*
X978Y414D01*
X1309Y414D02*
X1378Y414D01*
X1509Y414D02*
X1578Y414D01*
X1809Y414D02*
X1877Y414D01*
X2009Y414D02*
X2077Y414D01*
X2309Y414D02*
X2377Y414D01*
X2509Y414D02*
X2577Y414D01*
X2909Y414D02*
X2977Y414D01*
X3109Y414D02*
X3177Y414D01*
X209Y413D02*
X278Y413D01*
X409Y413D02*
X478Y413D01*
X709Y413D02*
X778Y413D01*
X909Y413D02*
X978Y413D01*
X1309Y413D02*
X1378Y413D01*
X1509Y413D02*
X1578Y413D01*
X1809Y413D02*
X1877Y413D01*
X2009Y413D02*
X2077Y413D01*
X2309Y413D02*
X2377Y413D01*
X2509Y413D02*
X2577Y413D01*
X2909Y413D02*
X2977Y413D01*
X3109Y413D02*
X3177Y413D01*
X209Y412D02*
X278Y412D01*
X409Y412D02*
X478Y412D01*
X709Y412D02*
X778Y412D01*
X909Y412D02*
X978Y412D01*
X1309Y412D02*
X1378Y412D01*
X1509Y412D02*
X1578Y412D01*
X1809Y412D02*
X1877Y412D01*
X2009Y412D02*
X2077Y412D01*
X2309Y412D02*
X2377Y412D01*
X2509Y412D02*
X2577Y412D01*
X2909Y412D02*
X2977Y412D01*
X3109Y412D02*
X3177Y412D01*
X209Y411D02*
X278Y411D01*
X409Y411D02*
X478Y411D01*
X709Y411D02*
X778Y411D01*
X909Y411D02*
X978Y411D01*
X1309Y411D02*
X1378Y411D01*
X1509Y411D02*
X1578Y411D01*
X1809Y411D02*
X1877Y411D01*
X2009Y411D02*
X2077Y411D01*
X2309Y411D02*
X2377Y411D01*
X2509Y411D02*
X2577Y411D01*
X2909Y411D02*
X2977Y411D01*
X3109Y411D02*
X3177Y411D01*
X209Y410D02*
X278Y410D01*
X409Y410D02*
X478Y410D01*
X709Y410D02*
X778Y410D01*
X909Y410D02*
X978Y410D01*
X1309Y410D02*
X1378Y410D01*
X1509Y410D02*
X1578Y410D01*
X1809Y410D02*
X1877Y410D01*
X2009Y410D02*
X2077Y410D01*
X2309Y410D02*
X2377Y410D01*
X2509Y410D02*
X2577Y410D01*
X2909Y410D02*
X2977Y410D01*
X3109Y410D02*
X3177Y410D01*
X209Y409D02*
X278Y409D01*
X409Y409D02*
X478Y409D01*
X709Y409D02*
X778Y409D01*
X909Y409D02*
X978Y409D01*
X1309Y409D02*
X1378Y409D01*
X1509Y409D02*
X1578Y409D01*
X1809Y409D02*
X1877Y409D01*
X2009Y409D02*
X2077Y409D01*
X2309Y409D02*
X2377Y409D01*
X2509Y409D02*
X2577Y409D01*
X2909Y409D02*
X2977Y409D01*
X3109Y409D02*
X3177Y409D01*
X209Y408D02*
X278Y408D01*
X409Y408D02*
X478Y408D01*
X709Y408D02*
X778Y408D01*
X909Y408D02*
X978Y408D01*
X1309Y408D02*
X1378Y408D01*
X1509Y408D02*
X1578Y408D01*
X1809Y408D02*
X1877Y408D01*
X2009Y408D02*
X2077Y408D01*
X2309Y408D02*
X2377Y408D01*
X2509Y408D02*
X2577Y408D01*
X2909Y408D02*
X2977Y408D01*
X3109Y408D02*
X3177Y408D01*
X209Y407D02*
X278Y407D01*
X409Y407D02*
X478Y407D01*
X709Y407D02*
X778Y407D01*
X909Y407D02*
X978Y407D01*
X1309Y407D02*
X1378Y407D01*
X1509Y407D02*
X1578Y407D01*
X1809Y407D02*
X1877Y407D01*
X2009Y407D02*
X2077Y407D01*
X2309Y407D02*
X2377Y407D01*
X2509Y407D02*
X2577Y407D01*
X2909Y407D02*
X2977Y407D01*
X3109Y407D02*
X3177Y407D01*
X209Y406D02*
X278Y406D01*
X409Y406D02*
X478Y406D01*
X709Y406D02*
X778Y406D01*
X909Y406D02*
X978Y406D01*
X1309Y406D02*
X1378Y406D01*
X1509Y406D02*
X1578Y406D01*
X1809Y406D02*
X1877Y406D01*
X2009Y406D02*
X2077Y406D01*
X2309Y406D02*
X2377Y406D01*
X2509Y406D02*
X2577Y406D01*
X2909Y406D02*
X2977Y406D01*
X3109Y406D02*
X3177Y406D01*
X209Y405D02*
X277Y405D01*
X409Y405D02*
X477Y405D01*
X709Y405D02*
X777Y405D01*
X909Y405D02*
X977Y405D01*
X1309Y405D02*
X1377Y405D01*
X1509Y405D02*
X1577Y405D01*
X1809Y405D02*
X1877Y405D01*
X2009Y405D02*
X2077Y405D01*
X2309Y405D02*
X2377Y405D01*
X2509Y405D02*
X2577Y405D01*
X2909Y405D02*
X2977Y405D01*
X3109Y405D02*
X3177Y405D01*
X210Y174D02*
X277Y174D01*
X409Y174D02*
X477Y174D01*
X709Y174D02*
X777Y174D01*
X909Y174D02*
X977Y174D01*
X1309Y174D02*
X1377Y174D01*
X1509Y174D02*
X1577Y174D01*
X1809Y174D02*
X1877Y174D01*
X2009Y174D02*
X2077Y174D01*
X2309Y174D02*
X2377Y174D01*
X2509Y174D02*
X2577Y174D01*
X2909Y174D02*
X2977Y174D01*
X3109Y174D02*
X3177Y174D01*
X209Y173D02*
X278Y173D01*
X409Y173D02*
X478Y173D01*
X709Y173D02*
X778Y173D01*
X909Y173D02*
X978Y173D01*
X1309Y173D02*
X1378Y173D01*
X1509Y173D02*
X1578Y173D01*
X1809Y173D02*
X1877Y173D01*
X2009Y173D02*
X2077Y173D01*
X2309Y173D02*
X2377Y173D01*
X2509Y173D02*
X2577Y173D01*
X2909Y173D02*
X2977Y173D01*
X3109Y173D02*
X3177Y173D01*
X209Y172D02*
X278Y172D01*
X409Y172D02*
X478Y172D01*
X709Y172D02*
X778Y172D01*
X909Y172D02*
X978Y172D01*
X1309Y172D02*
X1378Y172D01*
X1509Y172D02*
X1578Y172D01*
X1809Y172D02*
X1877Y172D01*
X2009Y172D02*
X2077Y172D01*
X2309Y172D02*
X2377Y172D01*
X2509Y172D02*
X2577Y172D01*
X2909Y172D02*
X2977Y172D01*
X3109Y172D02*
X3177Y172D01*
X209Y171D02*
X278Y171D01*
X409Y171D02*
X478Y171D01*
X709Y171D02*
X778Y171D01*
X909Y171D02*
X978Y171D01*
X1309Y171D02*
X1378Y171D01*
X1509Y171D02*
X1578Y171D01*
X1809Y171D02*
X1877Y171D01*
X2009Y171D02*
X2077Y171D01*
X2309Y171D02*
X2377Y171D01*
X2509Y171D02*
X2577Y171D01*
X2909Y171D02*
X2977Y171D01*
X3109Y171D02*
X3177Y171D01*
X209Y170D02*
X278Y170D01*
X409Y170D02*
X478Y170D01*
X709Y170D02*
X778Y170D01*
X909Y170D02*
X978Y170D01*
X1309Y170D02*
X1378Y170D01*
X1509Y170D02*
X1578Y170D01*
X1809Y170D02*
X1877Y170D01*
X2009Y170D02*
X2077Y170D01*
X2309Y170D02*
X2377Y170D01*
X2509Y170D02*
X2577Y170D01*
X2909Y170D02*
X2977Y170D01*
X3109Y170D02*
X3177Y170D01*
X209Y169D02*
X278Y169D01*
X409Y169D02*
X478Y169D01*
X709Y169D02*
X778Y169D01*
X909Y169D02*
X978Y169D01*
X1309Y169D02*
X1378Y169D01*
X1509Y169D02*
X1578Y169D01*
X1809Y169D02*
X1877Y169D01*
X2009Y169D02*
X2077Y169D01*
X2309Y169D02*
X2377Y169D01*
X2509Y169D02*
X2577Y169D01*
X2909Y169D02*
X2977Y169D01*
X3109Y169D02*
X3177Y169D01*
X209Y168D02*
X278Y168D01*
X409Y168D02*
X478Y168D01*
X709Y168D02*
X778Y168D01*
X909Y168D02*
X978Y168D01*
X1309Y168D02*
X1378Y168D01*
X1509Y168D02*
X1578Y168D01*
X1809Y168D02*
X1877Y168D01*
X2009Y168D02*
X2077Y168D01*
X2309Y168D02*
X2377Y168D01*
X2509Y168D02*
X2577Y168D01*
X2909Y168D02*
X2977Y168D01*
X3109Y168D02*
X3177Y168D01*
X209Y167D02*
X278Y167D01*
X409Y167D02*
X478Y167D01*
X709Y167D02*
X778Y167D01*
X909Y167D02*
X978Y167D01*
X1309Y167D02*
X1378Y167D01*
X1509Y167D02*
X1578Y167D01*
X1809Y167D02*
X1877Y167D01*
X2009Y167D02*
X2077Y167D01*
X2309Y167D02*
X2377Y167D01*
X2509Y167D02*
X2577Y167D01*
X2909Y167D02*
X2977Y167D01*
X3109Y167D02*
X3177Y167D01*
X209Y166D02*
X278Y166D01*
X409Y166D02*
X478Y166D01*
X709Y166D02*
X778Y166D01*
X909Y166D02*
X978Y166D01*
X1309Y166D02*
X1378Y166D01*
X1509Y166D02*
X1578Y166D01*
X1809Y166D02*
X1877Y166D01*
X2009Y166D02*
X2077Y166D01*
X2309Y166D02*
X2377Y166D01*
X2509Y166D02*
X2577Y166D01*
X2909Y166D02*
X2977Y166D01*
X3109Y166D02*
X3177Y166D01*
X209Y165D02*
X278Y165D01*
X409Y165D02*
X478Y165D01*
X709Y165D02*
X778Y165D01*
X909Y165D02*
X978Y165D01*
X1309Y165D02*
X1378Y165D01*
X1509Y165D02*
X1578Y165D01*
X1809Y165D02*
X1877Y165D01*
X2009Y165D02*
X2077Y165D01*
X2309Y165D02*
X2377Y165D01*
X2509Y165D02*
X2577Y165D01*
X2909Y165D02*
X2977Y165D01*
X3109Y165D02*
X3177Y165D01*
X209Y164D02*
X278Y164D01*
X409Y164D02*
X478Y164D01*
X709Y164D02*
X778Y164D01*
X909Y164D02*
X978Y164D01*
X1309Y164D02*
X1378Y164D01*
X1509Y164D02*
X1578Y164D01*
X1809Y164D02*
X1877Y164D01*
X2009Y164D02*
X2077Y164D01*
X2309Y164D02*
X2377Y164D01*
X2509Y164D02*
X2577Y164D01*
X2909Y164D02*
X2977Y164D01*
X3109Y164D02*
X3177Y164D01*
X209Y163D02*
X278Y163D01*
X409Y163D02*
X478Y163D01*
X709Y163D02*
X778Y163D01*
X909Y163D02*
X978Y163D01*
X1309Y163D02*
X1378Y163D01*
X1509Y163D02*
X1578Y163D01*
X1809Y163D02*
X1877Y163D01*
X2009Y163D02*
X2077Y163D01*
X2309Y163D02*
X2377Y163D01*
X2509Y163D02*
X2577Y163D01*
X2909Y163D02*
X2977Y163D01*
X3109Y163D02*
X3177Y163D01*
X209Y162D02*
X278Y162D01*
X409Y162D02*
X478Y162D01*
X709Y162D02*
X778Y162D01*
X909Y162D02*
X978Y162D01*
X1309Y162D02*
X1378Y162D01*
X1509Y162D02*
X1578Y162D01*
X1809Y162D02*
X1877Y162D01*
X2009Y162D02*
X2077Y162D01*
X2309Y162D02*
X2377Y162D01*
X2509Y162D02*
X2577Y162D01*
X2909Y162D02*
X2977Y162D01*
X3109Y162D02*
X3177Y162D01*
X209Y161D02*
X278Y161D01*
X409Y161D02*
X478Y161D01*
X709Y161D02*
X778Y161D01*
X909Y161D02*
X978Y161D01*
X1309Y161D02*
X1378Y161D01*
X1509Y161D02*
X1578Y161D01*
X1809Y161D02*
X1877Y161D01*
X2009Y161D02*
X2077Y161D01*
X2309Y161D02*
X2377Y161D01*
X2509Y161D02*
X2577Y161D01*
X2909Y161D02*
X2977Y161D01*
X3109Y161D02*
X3177Y161D01*
X209Y160D02*
X278Y160D01*
X409Y160D02*
X478Y160D01*
X709Y160D02*
X778Y160D01*
X909Y160D02*
X978Y160D01*
X1309Y160D02*
X1378Y160D01*
X1509Y160D02*
X1578Y160D01*
X1809Y160D02*
X1877Y160D01*
X2009Y160D02*
X2077Y160D01*
X2309Y160D02*
X2377Y160D01*
X2509Y160D02*
X2577Y160D01*
X2909Y160D02*
X2977Y160D01*
X3109Y160D02*
X3177Y160D01*
X209Y159D02*
X278Y159D01*
X409Y159D02*
X478Y159D01*
X709Y159D02*
X778Y159D01*
X909Y159D02*
X978Y159D01*
X1309Y159D02*
X1378Y159D01*
X1509Y159D02*
X1578Y159D01*
X1809Y159D02*
X1877Y159D01*
X2009Y159D02*
X2077Y159D01*
X2309Y159D02*
X2377Y159D01*
X2509Y159D02*
X2577Y159D01*
X2909Y159D02*
X2977Y159D01*
X3109Y159D02*
X3177Y159D01*
X209Y158D02*
X278Y158D01*
X409Y158D02*
X478Y158D01*
X709Y158D02*
X778Y158D01*
X909Y158D02*
X978Y158D01*
X1309Y158D02*
X1378Y158D01*
X1509Y158D02*
X1578Y158D01*
X1809Y158D02*
X1877Y158D01*
X2009Y158D02*
X2077Y158D01*
X2309Y158D02*
X2377Y158D01*
X2509Y158D02*
X2577Y158D01*
X2909Y158D02*
X2977Y158D01*
X3109Y158D02*
X3177Y158D01*
X209Y157D02*
X278Y157D01*
X409Y157D02*
X478Y157D01*
X709Y157D02*
X778Y157D01*
X909Y157D02*
X978Y157D01*
X1309Y157D02*
X1378Y157D01*
X1509Y157D02*
X1578Y157D01*
X1809Y157D02*
X1877Y157D01*
X2009Y157D02*
X2077Y157D01*
X2309Y157D02*
X2377Y157D01*
X2509Y157D02*
X2577Y157D01*
X2909Y157D02*
X2977Y157D01*
X3109Y157D02*
X3177Y157D01*
X209Y156D02*
X278Y156D01*
X409Y156D02*
X478Y156D01*
X709Y156D02*
X778Y156D01*
X909Y156D02*
X978Y156D01*
X1309Y156D02*
X1378Y156D01*
X1509Y156D02*
X1578Y156D01*
X1809Y156D02*
X1877Y156D01*
X2009Y156D02*
X2077Y156D01*
X2309Y156D02*
X2377Y156D01*
X2509Y156D02*
X2577Y156D01*
X2909Y156D02*
X2977Y156D01*
X3109Y156D02*
X3177Y156D01*
X209Y155D02*
X278Y155D01*
X409Y155D02*
X478Y155D01*
X709Y155D02*
X778Y155D01*
X909Y155D02*
X978Y155D01*
X1309Y155D02*
X1378Y155D01*
X1509Y155D02*
X1578Y155D01*
X1809Y155D02*
X1877Y155D01*
X2009Y155D02*
X2077Y155D01*
X2309Y155D02*
X2377Y155D01*
X2509Y155D02*
X2577Y155D01*
X2909Y155D02*
X2977Y155D01*
X3109Y155D02*
X3177Y155D01*
X209Y154D02*
X241Y154D01*
X246Y154D02*
X278Y154D01*
X409Y154D02*
X441Y154D01*
X446Y154D02*
X478Y154D01*
X709Y154D02*
X741Y154D01*
X746Y154D02*
X778Y154D01*
X909Y154D02*
X941Y154D01*
X946Y154D02*
X978Y154D01*
X1309Y154D02*
X1341Y154D01*
X1346Y154D02*
X1378Y154D01*
X1509Y154D02*
X1540Y154D01*
X1546Y154D02*
X1578Y154D01*
X1809Y154D02*
X1840Y154D01*
X1846Y154D02*
X1877Y154D01*
X2009Y154D02*
X2040Y154D01*
X2046Y154D02*
X2077Y154D01*
X2309Y154D02*
X2340Y154D01*
X2346Y154D02*
X2377Y154D01*
X2509Y154D02*
X2540Y154D01*
X2546Y154D02*
X2577Y154D01*
X2909Y154D02*
X2940Y154D01*
X2946Y154D02*
X2977Y154D01*
X3109Y154D02*
X3140Y154D01*
X3146Y154D02*
X3177Y154D01*
X209Y153D02*
X237Y153D01*
X250Y153D02*
X278Y153D01*
X409Y153D02*
X437Y153D01*
X450Y153D02*
X478Y153D01*
X709Y153D02*
X737Y153D01*
X750Y153D02*
X778Y153D01*
X909Y153D02*
X937Y153D01*
X950Y153D02*
X978Y153D01*
X1309Y153D02*
X1337Y153D01*
X1350Y153D02*
X1378Y153D01*
X1509Y153D02*
X1537Y153D01*
X1550Y153D02*
X1578Y153D01*
X1809Y153D02*
X1837Y153D01*
X1850Y153D02*
X1877Y153D01*
X2009Y153D02*
X2037Y153D01*
X2050Y153D02*
X2077Y153D01*
X2309Y153D02*
X2337Y153D01*
X2350Y153D02*
X2377Y153D01*
X2509Y153D02*
X2537Y153D01*
X2550Y153D02*
X2577Y153D01*
X2909Y153D02*
X2937Y153D01*
X2950Y153D02*
X2977Y153D01*
X3109Y153D02*
X3137Y153D01*
X3150Y153D02*
X3177Y153D01*
X209Y152D02*
X235Y152D01*
X252Y152D02*
X278Y152D01*
X409Y152D02*
X435Y152D01*
X452Y152D02*
X478Y152D01*
X709Y152D02*
X735Y152D01*
X752Y152D02*
X778Y152D01*
X909Y152D02*
X935Y152D01*
X952Y152D02*
X978Y152D01*
X1309Y152D02*
X1335Y152D01*
X1352Y152D02*
X1378Y152D01*
X1509Y152D02*
X1535Y152D01*
X1552Y152D02*
X1578Y152D01*
X1809Y152D02*
X1835Y152D01*
X1852Y152D02*
X1877Y152D01*
X2009Y152D02*
X2035Y152D01*
X2052Y152D02*
X2077Y152D01*
X2309Y152D02*
X2335Y152D01*
X2352Y152D02*
X2377Y152D01*
X2509Y152D02*
X2535Y152D01*
X2551Y152D02*
X2577Y152D01*
X2909Y152D02*
X2935Y152D01*
X2951Y152D02*
X2977Y152D01*
X3109Y152D02*
X3135Y152D01*
X3151Y152D02*
X3177Y152D01*
X209Y151D02*
X234Y151D01*
X253Y151D02*
X278Y151D01*
X409Y151D02*
X434Y151D01*
X453Y151D02*
X478Y151D01*
X709Y151D02*
X734Y151D01*
X753Y151D02*
X778Y151D01*
X909Y151D02*
X934Y151D01*
X953Y151D02*
X978Y151D01*
X1309Y151D02*
X1334Y151D01*
X1353Y151D02*
X1378Y151D01*
X1509Y151D02*
X1534Y151D01*
X1553Y151D02*
X1578Y151D01*
X1809Y151D02*
X1834Y151D01*
X1853Y151D02*
X1877Y151D01*
X2009Y151D02*
X2034Y151D01*
X2053Y151D02*
X2077Y151D01*
X2309Y151D02*
X2334Y151D01*
X2353Y151D02*
X2377Y151D01*
X2509Y151D02*
X2534Y151D01*
X2553Y151D02*
X2577Y151D01*
X2909Y151D02*
X2934Y151D01*
X2953Y151D02*
X2977Y151D01*
X3109Y151D02*
X3134Y151D01*
X3153Y151D02*
X3177Y151D01*
X209Y150D02*
X233Y150D01*
X254Y150D02*
X278Y150D01*
X409Y150D02*
X433Y150D01*
X454Y150D02*
X478Y150D01*
X709Y150D02*
X733Y150D01*
X754Y150D02*
X778Y150D01*
X909Y150D02*
X933Y150D01*
X954Y150D02*
X978Y150D01*
X1309Y150D02*
X1333Y150D01*
X1354Y150D02*
X1378Y150D01*
X1509Y150D02*
X1533Y150D01*
X1554Y150D02*
X1578Y150D01*
X1809Y150D02*
X1833Y150D01*
X1854Y150D02*
X1877Y150D01*
X2009Y150D02*
X2033Y150D01*
X2054Y150D02*
X2077Y150D01*
X2309Y150D02*
X2332Y150D01*
X2354Y150D02*
X2377Y150D01*
X2509Y150D02*
X2532Y150D01*
X2554Y150D02*
X2577Y150D01*
X2909Y150D02*
X2932Y150D01*
X2954Y150D02*
X2977Y150D01*
X3109Y150D02*
X3132Y150D01*
X3154Y150D02*
X3177Y150D01*
X209Y149D02*
X232Y149D01*
X255Y149D02*
X278Y149D01*
X409Y149D02*
X432Y149D01*
X455Y149D02*
X478Y149D01*
X709Y149D02*
X732Y149D01*
X755Y149D02*
X778Y149D01*
X909Y149D02*
X932Y149D01*
X955Y149D02*
X978Y149D01*
X1309Y149D02*
X1332Y149D01*
X1355Y149D02*
X1378Y149D01*
X1509Y149D02*
X1532Y149D01*
X1555Y149D02*
X1578Y149D01*
X1809Y149D02*
X1832Y149D01*
X1855Y149D02*
X1877Y149D01*
X2009Y149D02*
X2032Y149D01*
X2055Y149D02*
X2077Y149D01*
X2309Y149D02*
X2332Y149D01*
X2355Y149D02*
X2377Y149D01*
X2509Y149D02*
X2532Y149D01*
X2555Y149D02*
X2577Y149D01*
X2909Y149D02*
X2932Y149D01*
X2955Y149D02*
X2977Y149D01*
X3109Y149D02*
X3131Y149D01*
X3155Y149D02*
X3177Y149D01*
X209Y148D02*
X231Y148D01*
X256Y148D02*
X278Y148D01*
X409Y148D02*
X431Y148D01*
X456Y148D02*
X478Y148D01*
X709Y148D02*
X731Y148D01*
X756Y148D02*
X778Y148D01*
X909Y148D02*
X931Y148D01*
X956Y148D02*
X978Y148D01*
X1309Y148D02*
X1331Y148D01*
X1356Y148D02*
X1378Y148D01*
X1509Y148D02*
X1531Y148D01*
X1556Y148D02*
X1578Y148D01*
X1809Y148D02*
X1831Y148D01*
X1856Y148D02*
X1877Y148D01*
X2009Y148D02*
X2031Y148D01*
X2056Y148D02*
X2077Y148D01*
X2309Y148D02*
X2331Y148D01*
X2356Y148D02*
X2377Y148D01*
X2509Y148D02*
X2531Y148D01*
X2556Y148D02*
X2577Y148D01*
X2909Y148D02*
X2931Y148D01*
X2956Y148D02*
X2977Y148D01*
X3109Y148D02*
X3131Y148D01*
X3156Y148D02*
X3177Y148D01*
X209Y147D02*
X230Y147D01*
X257Y147D02*
X278Y147D01*
X409Y147D02*
X430Y147D01*
X457Y147D02*
X478Y147D01*
X709Y147D02*
X730Y147D01*
X757Y147D02*
X778Y147D01*
X909Y147D02*
X930Y147D01*
X957Y147D02*
X978Y147D01*
X1309Y147D02*
X1330Y147D01*
X1356Y147D02*
X1378Y147D01*
X1509Y147D02*
X1530Y147D01*
X1556Y147D02*
X1578Y147D01*
X1809Y147D02*
X1830Y147D01*
X1856Y147D02*
X1877Y147D01*
X2009Y147D02*
X2030Y147D01*
X2056Y147D02*
X2077Y147D01*
X2309Y147D02*
X2330Y147D01*
X2356Y147D02*
X2377Y147D01*
X2509Y147D02*
X2530Y147D01*
X2556Y147D02*
X2577Y147D01*
X2909Y147D02*
X2930Y147D01*
X2956Y147D02*
X2977Y147D01*
X3109Y147D02*
X3130Y147D01*
X3156Y147D02*
X3177Y147D01*
X209Y146D02*
X230Y146D01*
X257Y146D02*
X278Y146D01*
X409Y146D02*
X430Y146D01*
X457Y146D02*
X478Y146D01*
X709Y146D02*
X730Y146D01*
X757Y146D02*
X778Y146D01*
X909Y146D02*
X930Y146D01*
X957Y146D02*
X978Y146D01*
X1309Y146D02*
X1330Y146D01*
X1357Y146D02*
X1378Y146D01*
X1509Y146D02*
X1530Y146D01*
X1557Y146D02*
X1578Y146D01*
X1809Y146D02*
X1830Y146D01*
X1857Y146D02*
X1877Y146D01*
X2009Y146D02*
X2030Y146D01*
X2057Y146D02*
X2077Y146D01*
X2309Y146D02*
X2330Y146D01*
X2357Y146D02*
X2377Y146D01*
X2509Y146D02*
X2530Y146D01*
X2557Y146D02*
X2577Y146D01*
X2909Y146D02*
X2929Y146D01*
X2957Y146D02*
X2977Y146D01*
X3109Y146D02*
X3129Y146D01*
X3157Y146D02*
X3177Y146D01*
X209Y145D02*
X229Y145D01*
X258Y145D02*
X278Y145D01*
X409Y145D02*
X429Y145D01*
X458Y145D02*
X478Y145D01*
X709Y145D02*
X729Y145D01*
X758Y145D02*
X778Y145D01*
X909Y145D02*
X929Y145D01*
X958Y145D02*
X978Y145D01*
X1309Y145D02*
X1329Y145D01*
X1358Y145D02*
X1378Y145D01*
X1509Y145D02*
X1529Y145D01*
X1558Y145D02*
X1578Y145D01*
X1809Y145D02*
X1829Y145D01*
X1857Y145D02*
X1877Y145D01*
X2009Y145D02*
X2029Y145D01*
X2057Y145D02*
X2077Y145D01*
X2309Y145D02*
X2329Y145D01*
X2357Y145D02*
X2377Y145D01*
X2509Y145D02*
X2529Y145D01*
X2557Y145D02*
X2577Y145D01*
X2909Y145D02*
X2929Y145D01*
X2957Y145D02*
X2977Y145D01*
X3109Y145D02*
X3129Y145D01*
X3157Y145D02*
X3177Y145D01*
X209Y144D02*
X229Y144D01*
X258Y144D02*
X278Y144D01*
X409Y144D02*
X429Y144D01*
X458Y144D02*
X478Y144D01*
X709Y144D02*
X729Y144D01*
X758Y144D02*
X778Y144D01*
X909Y144D02*
X929Y144D01*
X958Y144D02*
X978Y144D01*
X1309Y144D02*
X1329Y144D01*
X1358Y144D02*
X1378Y144D01*
X1509Y144D02*
X1529Y144D01*
X1558Y144D02*
X1578Y144D01*
X1809Y144D02*
X1829Y144D01*
X1858Y144D02*
X1877Y144D01*
X2009Y144D02*
X2029Y144D01*
X2058Y144D02*
X2077Y144D01*
X2309Y144D02*
X2329Y144D01*
X2358Y144D02*
X2377Y144D01*
X2509Y144D02*
X2529Y144D01*
X2558Y144D02*
X2577Y144D01*
X2909Y144D02*
X2929Y144D01*
X2958Y144D02*
X2977Y144D01*
X3109Y144D02*
X3129Y144D01*
X3158Y144D02*
X3177Y144D01*
X209Y143D02*
X229Y143D01*
X258Y143D02*
X278Y143D01*
X409Y143D02*
X429Y143D01*
X458Y143D02*
X478Y143D01*
X709Y143D02*
X729Y143D01*
X758Y143D02*
X778Y143D01*
X909Y143D02*
X929Y143D01*
X958Y143D02*
X978Y143D01*
X1309Y143D02*
X1329Y143D01*
X1358Y143D02*
X1378Y143D01*
X1509Y143D02*
X1529Y143D01*
X1558Y143D02*
X1578Y143D01*
X1809Y143D02*
X1829Y143D01*
X1858Y143D02*
X1877Y143D01*
X2009Y143D02*
X2028Y143D01*
X2058Y143D02*
X2077Y143D01*
X2309Y143D02*
X2328Y143D01*
X2358Y143D02*
X2377Y143D01*
X2509Y143D02*
X2528Y143D01*
X2558Y143D02*
X2577Y143D01*
X2909Y143D02*
X2928Y143D01*
X2958Y143D02*
X2977Y143D01*
X3109Y143D02*
X3128Y143D01*
X3158Y143D02*
X3177Y143D01*
X209Y142D02*
X228Y142D01*
X258Y142D02*
X278Y142D01*
X409Y142D02*
X428Y142D01*
X458Y142D02*
X478Y142D01*
X709Y142D02*
X728Y142D01*
X758Y142D02*
X778Y142D01*
X909Y142D02*
X928Y142D01*
X958Y142D02*
X978Y142D01*
X1309Y142D02*
X1328Y142D01*
X1358Y142D02*
X1378Y142D01*
X1509Y142D02*
X1528Y142D01*
X1558Y142D02*
X1578Y142D01*
X1809Y142D02*
X1828Y142D01*
X1858Y142D02*
X1877Y142D01*
X2009Y142D02*
X2028Y142D01*
X2058Y142D02*
X2077Y142D01*
X2309Y142D02*
X2328Y142D01*
X2358Y142D02*
X2377Y142D01*
X2509Y142D02*
X2528Y142D01*
X2558Y142D02*
X2577Y142D01*
X2909Y142D02*
X2928Y142D01*
X2958Y142D02*
X2977Y142D01*
X3109Y142D02*
X3128Y142D01*
X3158Y142D02*
X3177Y142D01*
X209Y141D02*
X228Y141D01*
X259Y141D02*
X278Y141D01*
X409Y141D02*
X428Y141D01*
X458Y141D02*
X478Y141D01*
X709Y141D02*
X728Y141D01*
X758Y141D02*
X778Y141D01*
X909Y141D02*
X928Y141D01*
X958Y141D02*
X978Y141D01*
X1309Y141D02*
X1328Y141D01*
X1358Y141D02*
X1378Y141D01*
X1509Y141D02*
X1528Y141D01*
X1558Y141D02*
X1578Y141D01*
X1809Y141D02*
X1828Y141D01*
X1858Y141D02*
X1877Y141D01*
X2009Y141D02*
X2028Y141D01*
X2058Y141D02*
X2077Y141D01*
X2309Y141D02*
X2328Y141D01*
X2358Y141D02*
X2377Y141D01*
X2509Y141D02*
X2528Y141D01*
X2558Y141D02*
X2577Y141D01*
X2909Y141D02*
X2928Y141D01*
X2958Y141D02*
X2977Y141D01*
X3109Y141D02*
X3128Y141D01*
X3158Y141D02*
X3177Y141D01*
X209Y140D02*
X228Y140D01*
X259Y140D02*
X278Y140D01*
X409Y140D02*
X428Y140D01*
X459Y140D02*
X478Y140D01*
X709Y140D02*
X728Y140D01*
X759Y140D02*
X778Y140D01*
X909Y140D02*
X928Y140D01*
X959Y140D02*
X978Y140D01*
X1309Y140D02*
X1328Y140D01*
X1358Y140D02*
X1378Y140D01*
X1509Y140D02*
X1528Y140D01*
X1558Y140D02*
X1578Y140D01*
X1809Y140D02*
X1828Y140D01*
X1858Y140D02*
X1877Y140D01*
X2009Y140D02*
X2028Y140D01*
X2058Y140D02*
X2077Y140D01*
X2309Y140D02*
X2328Y140D01*
X2358Y140D02*
X2377Y140D01*
X2509Y140D02*
X2528Y140D01*
X2558Y140D02*
X2577Y140D01*
X2909Y140D02*
X2928Y140D01*
X2958Y140D02*
X2977Y140D01*
X3109Y140D02*
X3128Y140D01*
X3158Y140D02*
X3177Y140D01*
X209Y139D02*
X228Y139D01*
X259Y139D02*
X278Y139D01*
X409Y139D02*
X428Y139D01*
X459Y139D02*
X478Y139D01*
X709Y139D02*
X728Y139D01*
X759Y139D02*
X778Y139D01*
X909Y139D02*
X928Y139D01*
X959Y139D02*
X978Y139D01*
X1309Y139D02*
X1328Y139D01*
X1358Y139D02*
X1378Y139D01*
X1509Y139D02*
X1528Y139D01*
X1558Y139D02*
X1578Y139D01*
X1809Y139D02*
X1828Y139D01*
X1858Y139D02*
X1877Y139D01*
X2009Y139D02*
X2028Y139D01*
X2058Y139D02*
X2077Y139D01*
X2309Y139D02*
X2328Y139D01*
X2358Y139D02*
X2377Y139D01*
X2509Y139D02*
X2528Y139D01*
X2558Y139D02*
X2577Y139D01*
X2909Y139D02*
X2928Y139D01*
X2958Y139D02*
X2977Y139D01*
X3109Y139D02*
X3128Y139D01*
X3158Y139D02*
X3177Y139D01*
X209Y138D02*
X228Y138D01*
X259Y138D02*
X278Y138D01*
X409Y138D02*
X428Y138D01*
X458Y138D02*
X478Y138D01*
X709Y138D02*
X728Y138D01*
X758Y138D02*
X778Y138D01*
X909Y138D02*
X928Y138D01*
X958Y138D02*
X978Y138D01*
X1309Y138D02*
X1328Y138D01*
X1358Y138D02*
X1378Y138D01*
X1509Y138D02*
X1528Y138D01*
X1558Y138D02*
X1578Y138D01*
X1809Y138D02*
X1828Y138D01*
X1858Y138D02*
X1877Y138D01*
X2009Y138D02*
X2028Y138D01*
X2058Y138D02*
X2077Y138D01*
X2309Y138D02*
X2328Y138D01*
X2358Y138D02*
X2377Y138D01*
X2509Y138D02*
X2528Y138D01*
X2558Y138D02*
X2577Y138D01*
X2909Y138D02*
X2928Y138D01*
X2958Y138D02*
X2977Y138D01*
X3109Y138D02*
X3128Y138D01*
X3158Y138D02*
X3177Y138D01*
X209Y137D02*
X229Y137D01*
X258Y137D02*
X278Y137D01*
X409Y137D02*
X428Y137D01*
X458Y137D02*
X478Y137D01*
X709Y137D02*
X728Y137D01*
X758Y137D02*
X778Y137D01*
X909Y137D02*
X928Y137D01*
X958Y137D02*
X978Y137D01*
X1309Y137D02*
X1328Y137D01*
X1358Y137D02*
X1378Y137D01*
X1509Y137D02*
X1528Y137D01*
X1558Y137D02*
X1578Y137D01*
X1809Y137D02*
X1828Y137D01*
X1858Y137D02*
X1877Y137D01*
X2009Y137D02*
X2028Y137D01*
X2058Y137D02*
X2077Y137D01*
X2309Y137D02*
X2328Y137D01*
X2358Y137D02*
X2377Y137D01*
X2509Y137D02*
X2528Y137D01*
X2558Y137D02*
X2577Y137D01*
X2909Y137D02*
X2928Y137D01*
X2958Y137D02*
X2977Y137D01*
X3109Y137D02*
X3128Y137D01*
X3158Y137D02*
X3177Y137D01*
X209Y136D02*
X229Y136D01*
X258Y136D02*
X278Y136D01*
X409Y136D02*
X429Y136D01*
X458Y136D02*
X478Y136D01*
X709Y136D02*
X729Y136D01*
X758Y136D02*
X778Y136D01*
X909Y136D02*
X929Y136D01*
X958Y136D02*
X978Y136D01*
X1309Y136D02*
X1329Y136D01*
X1358Y136D02*
X1378Y136D01*
X1509Y136D02*
X1529Y136D01*
X1558Y136D02*
X1578Y136D01*
X1809Y136D02*
X1829Y136D01*
X1858Y136D02*
X1877Y136D01*
X2009Y136D02*
X2028Y136D01*
X2058Y136D02*
X2077Y136D01*
X2309Y136D02*
X2328Y136D01*
X2358Y136D02*
X2377Y136D01*
X2509Y136D02*
X2528Y136D01*
X2558Y136D02*
X2577Y136D01*
X2909Y136D02*
X2928Y136D01*
X2958Y136D02*
X2977Y136D01*
X3109Y136D02*
X3128Y136D01*
X3158Y136D02*
X3177Y136D01*
X209Y135D02*
X229Y135D01*
X258Y135D02*
X278Y135D01*
X409Y135D02*
X429Y135D01*
X458Y135D02*
X478Y135D01*
X709Y135D02*
X729Y135D01*
X758Y135D02*
X778Y135D01*
X909Y135D02*
X929Y135D01*
X958Y135D02*
X978Y135D01*
X1309Y135D02*
X1329Y135D01*
X1358Y135D02*
X1378Y135D01*
X1509Y135D02*
X1529Y135D01*
X1558Y135D02*
X1578Y135D01*
X1809Y135D02*
X1829Y135D01*
X1858Y135D02*
X1877Y135D01*
X2009Y135D02*
X2029Y135D01*
X2058Y135D02*
X2077Y135D01*
X2309Y135D02*
X2329Y135D01*
X2358Y135D02*
X2377Y135D01*
X2509Y135D02*
X2529Y135D01*
X2558Y135D02*
X2577Y135D01*
X2909Y135D02*
X2929Y135D01*
X2958Y135D02*
X2977Y135D01*
X3109Y135D02*
X3129Y135D01*
X3158Y135D02*
X3177Y135D01*
X209Y134D02*
X229Y134D01*
X258Y134D02*
X278Y134D01*
X409Y134D02*
X429Y134D01*
X458Y134D02*
X478Y134D01*
X709Y134D02*
X729Y134D01*
X758Y134D02*
X778Y134D01*
X909Y134D02*
X929Y134D01*
X958Y134D02*
X978Y134D01*
X1309Y134D02*
X1329Y134D01*
X1358Y134D02*
X1378Y134D01*
X1509Y134D02*
X1529Y134D01*
X1558Y134D02*
X1578Y134D01*
X1809Y134D02*
X1829Y134D01*
X1857Y134D02*
X1877Y134D01*
X2009Y134D02*
X2029Y134D01*
X2057Y134D02*
X2077Y134D01*
X2309Y134D02*
X2329Y134D01*
X2357Y134D02*
X2377Y134D01*
X2509Y134D02*
X2529Y134D01*
X2557Y134D02*
X2577Y134D01*
X2909Y134D02*
X2929Y134D01*
X2957Y134D02*
X2977Y134D01*
X3109Y134D02*
X3129Y134D01*
X3157Y134D02*
X3177Y134D01*
X209Y133D02*
X230Y133D01*
X257Y133D02*
X278Y133D01*
X409Y133D02*
X430Y133D01*
X457Y133D02*
X478Y133D01*
X709Y133D02*
X730Y133D01*
X757Y133D02*
X778Y133D01*
X909Y133D02*
X930Y133D01*
X957Y133D02*
X978Y133D01*
X1309Y133D02*
X1330Y133D01*
X1357Y133D02*
X1378Y133D01*
X1509Y133D02*
X1530Y133D01*
X1557Y133D02*
X1578Y133D01*
X1809Y133D02*
X1830Y133D01*
X1857Y133D02*
X1877Y133D01*
X2009Y133D02*
X2030Y133D01*
X2057Y133D02*
X2077Y133D01*
X2309Y133D02*
X2330Y133D01*
X2357Y133D02*
X2377Y133D01*
X2509Y133D02*
X2530Y133D01*
X2557Y133D02*
X2577Y133D01*
X2909Y133D02*
X2929Y133D01*
X2957Y133D02*
X2977Y133D01*
X3109Y133D02*
X3129Y133D01*
X3157Y133D02*
X3177Y133D01*
X209Y132D02*
X230Y132D01*
X257Y132D02*
X278Y132D01*
X409Y132D02*
X430Y132D01*
X457Y132D02*
X478Y132D01*
X709Y132D02*
X730Y132D01*
X757Y132D02*
X778Y132D01*
X909Y132D02*
X930Y132D01*
X957Y132D02*
X978Y132D01*
X1309Y132D02*
X1330Y132D01*
X1356Y132D02*
X1378Y132D01*
X1509Y132D02*
X1530Y132D01*
X1556Y132D02*
X1578Y132D01*
X1809Y132D02*
X1830Y132D01*
X1856Y132D02*
X1877Y132D01*
X2009Y132D02*
X2030Y132D01*
X2056Y132D02*
X2077Y132D01*
X2309Y132D02*
X2330Y132D01*
X2356Y132D02*
X2377Y132D01*
X2509Y132D02*
X2530Y132D01*
X2556Y132D02*
X2577Y132D01*
X2909Y132D02*
X2930Y132D01*
X2956Y132D02*
X2977Y132D01*
X3109Y132D02*
X3130Y132D01*
X3156Y132D02*
X3177Y132D01*
X209Y131D02*
X231Y131D01*
X256Y131D02*
X278Y131D01*
X409Y131D02*
X431Y131D01*
X456Y131D02*
X478Y131D01*
X709Y131D02*
X731Y131D01*
X756Y131D02*
X778Y131D01*
X909Y131D02*
X931Y131D01*
X956Y131D02*
X978Y131D01*
X1309Y131D02*
X1331Y131D01*
X1356Y131D02*
X1378Y131D01*
X1509Y131D02*
X1531Y131D01*
X1556Y131D02*
X1578Y131D01*
X1809Y131D02*
X1831Y131D01*
X1856Y131D02*
X1877Y131D01*
X2009Y131D02*
X2031Y131D01*
X2056Y131D02*
X2077Y131D01*
X2309Y131D02*
X2331Y131D01*
X2356Y131D02*
X2377Y131D01*
X2509Y131D02*
X2531Y131D01*
X2556Y131D02*
X2577Y131D01*
X2909Y131D02*
X2931Y131D01*
X2956Y131D02*
X2977Y131D01*
X3109Y131D02*
X3131Y131D01*
X3156Y131D02*
X3177Y131D01*
X209Y130D02*
X232Y130D01*
X255Y130D02*
X278Y130D01*
X409Y130D02*
X432Y130D01*
X455Y130D02*
X478Y130D01*
X709Y130D02*
X732Y130D01*
X755Y130D02*
X778Y130D01*
X909Y130D02*
X932Y130D01*
X955Y130D02*
X978Y130D01*
X1309Y130D02*
X1332Y130D01*
X1355Y130D02*
X1378Y130D01*
X1509Y130D02*
X1532Y130D01*
X1555Y130D02*
X1578Y130D01*
X1809Y130D02*
X1832Y130D01*
X1855Y130D02*
X1877Y130D01*
X2009Y130D02*
X2032Y130D01*
X2055Y130D02*
X2077Y130D01*
X2309Y130D02*
X2332Y130D01*
X2355Y130D02*
X2377Y130D01*
X2509Y130D02*
X2532Y130D01*
X2555Y130D02*
X2577Y130D01*
X2909Y130D02*
X2932Y130D01*
X2955Y130D02*
X2977Y130D01*
X3109Y130D02*
X3132Y130D01*
X3155Y130D02*
X3177Y130D01*
X209Y129D02*
X233Y129D01*
X254Y129D02*
X278Y129D01*
X409Y129D02*
X433Y129D01*
X454Y129D02*
X478Y129D01*
X709Y129D02*
X733Y129D01*
X754Y129D02*
X778Y129D01*
X909Y129D02*
X933Y129D01*
X954Y129D02*
X978Y129D01*
X1309Y129D02*
X1333Y129D01*
X1354Y129D02*
X1378Y129D01*
X1509Y129D02*
X1533Y129D01*
X1554Y129D02*
X1578Y129D01*
X1809Y129D02*
X1833Y129D01*
X1854Y129D02*
X1877Y129D01*
X2009Y129D02*
X2033Y129D01*
X2054Y129D02*
X2077Y129D01*
X2309Y129D02*
X2333Y129D01*
X2354Y129D02*
X2377Y129D01*
X2509Y129D02*
X2533Y129D01*
X2554Y129D02*
X2577Y129D01*
X2909Y129D02*
X2932Y129D01*
X2954Y129D02*
X2977Y129D01*
X3109Y129D02*
X3132Y129D01*
X3154Y129D02*
X3177Y129D01*
X209Y128D02*
X234Y128D01*
X253Y128D02*
X278Y128D01*
X409Y128D02*
X434Y128D01*
X453Y128D02*
X478Y128D01*
X709Y128D02*
X734Y128D01*
X753Y128D02*
X778Y128D01*
X909Y128D02*
X934Y128D01*
X953Y128D02*
X978Y128D01*
X1309Y128D02*
X1334Y128D01*
X1353Y128D02*
X1378Y128D01*
X1509Y128D02*
X1534Y128D01*
X1553Y128D02*
X1578Y128D01*
X1809Y128D02*
X1834Y128D01*
X1853Y128D02*
X1877Y128D01*
X2009Y128D02*
X2034Y128D01*
X2053Y128D02*
X2077Y128D01*
X2309Y128D02*
X2334Y128D01*
X2353Y128D02*
X2377Y128D01*
X2509Y128D02*
X2534Y128D01*
X2553Y128D02*
X2577Y128D01*
X2909Y128D02*
X2934Y128D01*
X2953Y128D02*
X2977Y128D01*
X3109Y128D02*
X3134Y128D01*
X3153Y128D02*
X3177Y128D01*
X209Y127D02*
X235Y127D01*
X252Y127D02*
X278Y127D01*
X409Y127D02*
X435Y127D01*
X452Y127D02*
X478Y127D01*
X709Y127D02*
X735Y127D01*
X752Y127D02*
X778Y127D01*
X909Y127D02*
X935Y127D01*
X952Y127D02*
X978Y127D01*
X1309Y127D02*
X1335Y127D01*
X1352Y127D02*
X1378Y127D01*
X1509Y127D02*
X1535Y127D01*
X1552Y127D02*
X1578Y127D01*
X1809Y127D02*
X1835Y127D01*
X1852Y127D02*
X1877Y127D01*
X2009Y127D02*
X2035Y127D01*
X2051Y127D02*
X2077Y127D01*
X2309Y127D02*
X2335Y127D01*
X2351Y127D02*
X2377Y127D01*
X2509Y127D02*
X2535Y127D01*
X2551Y127D02*
X2577Y127D01*
X2909Y127D02*
X2935Y127D01*
X2951Y127D02*
X2977Y127D01*
X3109Y127D02*
X3135Y127D01*
X3151Y127D02*
X3177Y127D01*
X209Y126D02*
X237Y126D01*
X250Y126D02*
X278Y126D01*
X409Y126D02*
X437Y126D01*
X450Y126D02*
X478Y126D01*
X709Y126D02*
X737Y126D01*
X750Y126D02*
X778Y126D01*
X909Y126D02*
X937Y126D01*
X950Y126D02*
X978Y126D01*
X1309Y126D02*
X1337Y126D01*
X1350Y126D02*
X1378Y126D01*
X1509Y126D02*
X1537Y126D01*
X1550Y126D02*
X1578Y126D01*
X1809Y126D02*
X1837Y126D01*
X1850Y126D02*
X1877Y126D01*
X2009Y126D02*
X2037Y126D01*
X2050Y126D02*
X2077Y126D01*
X2309Y126D02*
X2337Y126D01*
X2350Y126D02*
X2377Y126D01*
X2509Y126D02*
X2537Y126D01*
X2550Y126D02*
X2577Y126D01*
X2909Y126D02*
X2937Y126D01*
X2950Y126D02*
X2977Y126D01*
X3109Y126D02*
X3137Y126D01*
X3150Y126D02*
X3177Y126D01*
X209Y125D02*
X241Y125D01*
X246Y125D02*
X278Y125D01*
X409Y125D02*
X441Y125D01*
X446Y125D02*
X478Y125D01*
X709Y125D02*
X741Y125D01*
X746Y125D02*
X778Y125D01*
X909Y125D02*
X941Y125D01*
X946Y125D02*
X978Y125D01*
X1309Y125D02*
X1341Y125D01*
X1346Y125D02*
X1378Y125D01*
X1509Y125D02*
X1541Y125D01*
X1546Y125D02*
X1578Y125D01*
X1809Y125D02*
X1841Y125D01*
X1846Y125D02*
X1877Y125D01*
X2009Y125D02*
X2041Y125D01*
X2046Y125D02*
X2077Y125D01*
X2309Y125D02*
X2341Y125D01*
X2345Y125D02*
X2377Y125D01*
X2509Y125D02*
X2541Y125D01*
X2545Y125D02*
X2577Y125D01*
X2909Y125D02*
X2941Y125D01*
X2945Y125D02*
X2977Y125D01*
X3109Y125D02*
X3141Y125D01*
X3145Y125D02*
X3177Y125D01*
X209Y124D02*
X278Y124D01*
X409Y124D02*
X478Y124D01*
X709Y124D02*
X778Y124D01*
X909Y124D02*
X978Y124D01*
X1309Y124D02*
X1378Y124D01*
X1509Y124D02*
X1578Y124D01*
X1809Y124D02*
X1877Y124D01*
X2009Y124D02*
X2077Y124D01*
X2309Y124D02*
X2377Y124D01*
X2509Y124D02*
X2577Y124D01*
X2909Y124D02*
X2977Y124D01*
X3109Y124D02*
X3177Y124D01*
X209Y123D02*
X278Y123D01*
X409Y123D02*
X478Y123D01*
X709Y123D02*
X778Y123D01*
X909Y123D02*
X978Y123D01*
X1309Y123D02*
X1378Y123D01*
X1509Y123D02*
X1578Y123D01*
X1809Y123D02*
X1877Y123D01*
X2009Y123D02*
X2077Y123D01*
X2309Y123D02*
X2377Y123D01*
X2509Y123D02*
X2577Y123D01*
X2909Y123D02*
X2977Y123D01*
X3109Y123D02*
X3177Y123D01*
X209Y122D02*
X278Y122D01*
X409Y122D02*
X478Y122D01*
X709Y122D02*
X778Y122D01*
X909Y122D02*
X978Y122D01*
X1309Y122D02*
X1378Y122D01*
X1509Y122D02*
X1578Y122D01*
X1809Y122D02*
X1877Y122D01*
X2009Y122D02*
X2077Y122D01*
X2309Y122D02*
X2377Y122D01*
X2509Y122D02*
X2577Y122D01*
X2909Y122D02*
X2977Y122D01*
X3109Y122D02*
X3177Y122D01*
X209Y121D02*
X278Y121D01*
X409Y121D02*
X478Y121D01*
X709Y121D02*
X778Y121D01*
X909Y121D02*
X978Y121D01*
X1309Y121D02*
X1378Y121D01*
X1509Y121D02*
X1578Y121D01*
X1809Y121D02*
X1877Y121D01*
X2009Y121D02*
X2077Y121D01*
X2309Y121D02*
X2377Y121D01*
X2509Y121D02*
X2577Y121D01*
X2909Y121D02*
X2977Y121D01*
X3109Y121D02*
X3177Y121D01*
X209Y120D02*
X278Y120D01*
X409Y120D02*
X478Y120D01*
X709Y120D02*
X778Y120D01*
X909Y120D02*
X978Y120D01*
X1309Y120D02*
X1378Y120D01*
X1509Y120D02*
X1578Y120D01*
X1809Y120D02*
X1877Y120D01*
X2009Y120D02*
X2077Y120D01*
X2309Y120D02*
X2377Y120D01*
X2509Y120D02*
X2577Y120D01*
X2909Y120D02*
X2977Y120D01*
X3109Y120D02*
X3177Y120D01*
X209Y119D02*
X278Y119D01*
X409Y119D02*
X478Y119D01*
X709Y119D02*
X778Y119D01*
X909Y119D02*
X978Y119D01*
X1309Y119D02*
X1378Y119D01*
X1509Y119D02*
X1578Y119D01*
X1809Y119D02*
X1877Y119D01*
X2009Y119D02*
X2077Y119D01*
X2309Y119D02*
X2377Y119D01*
X2509Y119D02*
X2577Y119D01*
X2909Y119D02*
X2977Y119D01*
X3109Y119D02*
X3177Y119D01*
X209Y118D02*
X278Y118D01*
X409Y118D02*
X478Y118D01*
X709Y118D02*
X778Y118D01*
X909Y118D02*
X978Y118D01*
X1309Y118D02*
X1378Y118D01*
X1509Y118D02*
X1578Y118D01*
X1809Y118D02*
X1877Y118D01*
X2009Y118D02*
X2077Y118D01*
X2309Y118D02*
X2377Y118D01*
X2509Y118D02*
X2577Y118D01*
X2909Y118D02*
X2977Y118D01*
X3109Y118D02*
X3177Y118D01*
X209Y117D02*
X278Y117D01*
X409Y117D02*
X478Y117D01*
X709Y117D02*
X778Y117D01*
X909Y117D02*
X978Y117D01*
X1309Y117D02*
X1378Y117D01*
X1509Y117D02*
X1578Y117D01*
X1809Y117D02*
X1877Y117D01*
X2009Y117D02*
X2077Y117D01*
X2309Y117D02*
X2377Y117D01*
X2509Y117D02*
X2577Y117D01*
X2909Y117D02*
X2977Y117D01*
X3109Y117D02*
X3177Y117D01*
X209Y116D02*
X278Y116D01*
X409Y116D02*
X478Y116D01*
X709Y116D02*
X778Y116D01*
X909Y116D02*
X978Y116D01*
X1309Y116D02*
X1378Y116D01*
X1509Y116D02*
X1578Y116D01*
X1809Y116D02*
X1877Y116D01*
X2009Y116D02*
X2077Y116D01*
X2309Y116D02*
X2377Y116D01*
X2509Y116D02*
X2577Y116D01*
X2909Y116D02*
X2977Y116D01*
X3109Y116D02*
X3177Y116D01*
X209Y115D02*
X278Y115D01*
X409Y115D02*
X478Y115D01*
X709Y115D02*
X778Y115D01*
X909Y115D02*
X978Y115D01*
X1309Y115D02*
X1378Y115D01*
X1509Y115D02*
X1578Y115D01*
X1809Y115D02*
X1877Y115D01*
X2009Y115D02*
X2077Y115D01*
X2309Y115D02*
X2377Y115D01*
X2509Y115D02*
X2577Y115D01*
X2909Y115D02*
X2977Y115D01*
X3109Y115D02*
X3177Y115D01*
X209Y114D02*
X278Y114D01*
X409Y114D02*
X478Y114D01*
X709Y114D02*
X778Y114D01*
X909Y114D02*
X978Y114D01*
X1309Y114D02*
X1378Y114D01*
X1509Y114D02*
X1578Y114D01*
X1809Y114D02*
X1877Y114D01*
X2009Y114D02*
X2077Y114D01*
X2309Y114D02*
X2377Y114D01*
X2509Y114D02*
X2577Y114D01*
X2909Y114D02*
X2977Y114D01*
X3109Y114D02*
X3177Y114D01*
X209Y113D02*
X278Y113D01*
X409Y113D02*
X478Y113D01*
X709Y113D02*
X778Y113D01*
X909Y113D02*
X978Y113D01*
X1309Y113D02*
X1378Y113D01*
X1509Y113D02*
X1578Y113D01*
X1809Y113D02*
X1877Y113D01*
X2009Y113D02*
X2077Y113D01*
X2309Y113D02*
X2377Y113D01*
X2509Y113D02*
X2577Y113D01*
X2909Y113D02*
X2977Y113D01*
X3109Y113D02*
X3177Y113D01*
X209Y112D02*
X278Y112D01*
X409Y112D02*
X478Y112D01*
X709Y112D02*
X778Y112D01*
X909Y112D02*
X978Y112D01*
X1309Y112D02*
X1378Y112D01*
X1509Y112D02*
X1578Y112D01*
X1809Y112D02*
X1877Y112D01*
X2009Y112D02*
X2077Y112D01*
X2309Y112D02*
X2377Y112D01*
X2509Y112D02*
X2577Y112D01*
X2909Y112D02*
X2977Y112D01*
X3109Y112D02*
X3177Y112D01*
X209Y111D02*
X278Y111D01*
X409Y111D02*
X478Y111D01*
X709Y111D02*
X778Y111D01*
X909Y111D02*
X978Y111D01*
X1309Y111D02*
X1378Y111D01*
X1509Y111D02*
X1578Y111D01*
X1809Y111D02*
X1877Y111D01*
X2009Y111D02*
X2077Y111D01*
X2309Y111D02*
X2377Y111D01*
X2509Y111D02*
X2577Y111D01*
X2909Y111D02*
X2977Y111D01*
X3109Y111D02*
X3177Y111D01*
X209Y110D02*
X278Y110D01*
X409Y110D02*
X478Y110D01*
X709Y110D02*
X778Y110D01*
X909Y110D02*
X978Y110D01*
X1309Y110D02*
X1378Y110D01*
X1509Y110D02*
X1578Y110D01*
X1809Y110D02*
X1877Y110D01*
X2009Y110D02*
X2077Y110D01*
X2309Y110D02*
X2377Y110D01*
X2509Y110D02*
X2577Y110D01*
X2909Y110D02*
X2977Y110D01*
X3109Y110D02*
X3177Y110D01*
X209Y109D02*
X278Y109D01*
X409Y109D02*
X478Y109D01*
X709Y109D02*
X778Y109D01*
X909Y109D02*
X978Y109D01*
X1309Y109D02*
X1378Y109D01*
X1509Y109D02*
X1578Y109D01*
X1809Y109D02*
X1877Y109D01*
X2009Y109D02*
X2077Y109D01*
X2309Y109D02*
X2377Y109D01*
X2509Y109D02*
X2577Y109D01*
X2909Y109D02*
X2977Y109D01*
X3109Y109D02*
X3177Y109D01*
X209Y108D02*
X278Y108D01*
X409Y108D02*
X478Y108D01*
X709Y108D02*
X778Y108D01*
X909Y108D02*
X978Y108D01*
X1309Y108D02*
X1378Y108D01*
X1509Y108D02*
X1578Y108D01*
X1809Y108D02*
X1877Y108D01*
X2009Y108D02*
X2077Y108D01*
X2309Y108D02*
X2377Y108D01*
X2509Y108D02*
X2577Y108D01*
X2909Y108D02*
X2977Y108D01*
X3109Y108D02*
X3177Y108D01*
X209Y107D02*
X278Y107D01*
X409Y107D02*
X478Y107D01*
X709Y107D02*
X778Y107D01*
X909Y107D02*
X978Y107D01*
X1309Y107D02*
X1378Y107D01*
X1509Y107D02*
X1578Y107D01*
X1809Y107D02*
X1877Y107D01*
X2009Y107D02*
X2077Y107D01*
X2309Y107D02*
X2377Y107D01*
X2509Y107D02*
X2577Y107D01*
X2909Y107D02*
X2977Y107D01*
X3109Y107D02*
X3177Y107D01*
X209Y106D02*
X278Y106D01*
X409Y106D02*
X478Y106D01*
X709Y106D02*
X778Y106D01*
X909Y106D02*
X978Y106D01*
X1309Y106D02*
X1378Y106D01*
X1509Y106D02*
X1578Y106D01*
X1809Y106D02*
X1877Y106D01*
X2009Y106D02*
X2077Y106D01*
X2309Y106D02*
X2377Y106D01*
X2509Y106D02*
X2577Y106D01*
X2909Y106D02*
X2977Y106D01*
X3109Y106D02*
X3177Y106D01*
X210Y105D02*
X277Y105D01*
X410Y105D02*
X477Y105D01*
X709Y105D02*
X777Y105D01*
X909Y105D02*
X977Y105D01*
X1309Y105D02*
X1377Y105D01*
X1509Y105D02*
X1577Y105D01*
X1809Y105D02*
X1877Y105D01*
X2009Y105D02*
X2077Y105D01*
X2309Y105D02*
X2377Y105D01*
X2509Y105D02*
X2577Y105D01*
X2909Y105D02*
X2977Y105D01*
X3109Y105D02*
X3177Y105D01*
D02*
G04 End of Mask0*
M02*