<?xml version="1.0" encoding="UTF-8" standalone="no"?>
<!-- Created with Inkscape (http://www.inkscape.org/) -->

<svg
   xmlns:dc="http://purl.org/dc/elements/1.1/"
   xmlns:cc="http://creativecommons.org/ns#"
   xmlns:rdf="http://www.w3.org/1999/02/22-rdf-syntax-ns#"
   xmlns:svg="http://www.w3.org/2000/svg"
   xmlns="http://www.w3.org/2000/svg"
   xmlns:sodipodi="http://sodipodi.sourceforge.net/DTD/sodipodi-0.dtd"
   xmlns:inkscape="http://www.inkscape.org/namespaces/inkscape"
   width="210mm"
   height="297mm"
   viewBox="0 0 210 297"
   version="1.1"
   id="svg8"
   inkscape:version="0.92.3 (2405546, 2018-03-11)"
   sodipodi:docname="x0x-GAS-adapter.svg">
  <defs
     id="defs2" />
  <sodipodi:namedview
     id="base"
     pagecolor="#ffffff"
     bordercolor="#666666"
     borderopacity="1.0"
     inkscape:pageopacity="0.0"
     inkscape:pageshadow="2"
     inkscape:zoom="9.3132257"
     inkscape:cx="303.9051"
     inkscape:cy="557.91133"
     inkscape:document-units="in"
     inkscape:current-layer="layer1"
     showgrid="false"
     inkscape:window-width="1920"
     inkscape:window-height="995"
     inkscape:window-x="0"
     inkscape:window-y="0"
     inkscape:window-maximized="1"
     showguides="true"
     inkscape:guide-bbox="true">
    <sodipodi:guide
       position="76.74352,158.20096"
       orientation="0,1"
       id="guide88"
       inkscape:locked="false" />
  </sodipodi:namedview>
  <metadata
     id="metadata5">
    <rdf:RDF>
      <cc:Work
         rdf:about="">
        <dc:format>image/svg+xml</dc:format>
        <dc:type
           rdf:resource="http://purl.org/dc/dcmitype/StillImage" />
        <dc:title />
      </cc:Work>
    </rdf:RDF>
  </metadata>
  <g
     inkscape:label="Layer 1"
     inkscape:groupmode="layer"
     id="layer1">
    <circle
       id="path3713"
       cx="74.340347"
       cy="156.79729"
       style="stroke-width:0.13947777"
       r="0.63499999" />
    <circle
       r="0.63499999"
       style="stroke-width:0.13947777"
       cy="156.79729"
       cx="79.420349"
       id="circle3719" />
    <circle
       id="circle3721"
       cx="84.500351"
       cy="156.79724"
       style="stroke-width:0.13947777"
       r="0.63499999" />
    <g
       id="g3882">
      <circle
         id="circle3723"
         cx="74.340347"
         cy="154.25729"
         style="stroke-width:0.13947777;fill:#0000ff"
         r="0.63499999" />
      <circle
         r="0.79374999"
         style="fill:#0000ff;stroke-width:0.17434722"
         cy="151.7173"
         cx="74.340347"
         id="circle3733" />
      <path
         inkscape:connector-curvature="0"
         id="path3735"
         d="m 74.321068,151.71879 v 2.56192"
         style="fill:#0000ff;stroke:#0000ff;stroke-width:0.26458332px;stroke-linecap:butt;stroke-linejoin:miter;stroke-opacity:1" />
    </g>
    <g
       id="g3887">
      <circle
         r="0.63499999"
         style="fill:#0000ff;stroke-width:0.13947777"
         cy="154.25729"
         cx="79.420349"
         id="circle3725" />
      <circle
         id="circle3731"
         cx="79.420349"
         cy="151.7173"
         style="fill:#0000ff;stroke-width:0.17434722"
         r="0.79374999" />
      <path
         style="fill:#0000ff;stroke:#0000ff;stroke-width:0.26458332px;stroke-linecap:butt;stroke-linejoin:miter;stroke-opacity:1"
         d="m 79.40107,151.71879 v 2.56192"
         id="path3737"
         inkscape:connector-curvature="0" />
    </g>
    <g
       id="g3892"
       transform="translate(-5.08,4.5006665e-5)">
      <circle
         id="circle3727"
         cx="89.580353"
         cy="154.25729"
         style="fill:#0000ff;stroke-width:0.13947777"
         r="0.63499999" />
      <circle
         r="0.79374999"
         style="fill:#0000ff;stroke-width:0.17434722"
         cy="151.7173"
         cx="89.580353"
         id="circle3729" />
      <path
         style="fill:#0000ff;stroke:#0000ff;stroke-width:0.26458332px;stroke-linecap:butt;stroke-linejoin:miter;stroke-opacity:1"
         d="m 89.56107,151.71879 v 2.56192"
         id="path3739"
         inkscape:connector-curvature="0" />
    </g>
    <text
       xml:space="preserve"
       style="font-style:normal;font-weight:normal;font-size:10.58333302px;line-height:1.25;font-family:sans-serif;letter-spacing:0px;word-spacing:0px;fill:#000000;fill-opacity:1;stroke:none;stroke-width:0.26458332"
       x="67.074966"
       y="153.99054"
       id="text3781"><tspan
         sodipodi:role="line"
         id="tspan3779"
         x="67.074966"
         y="153.99054"
         style="font-size:2.82222223px;stroke-width:0.26458332">12k</tspan></text>
    <g
       id="g3831"
       transform="rotate(-180,83.843603,142.82975)">
      <rect
         y="137.17673"
         x="76.37133"
         height="6.2613606"
         width="18.707361"
         id="rect3783"
         style="fill:none;stroke:#000000;stroke-width:0.34263954" />
      <circle
         id="circle3785"
         cx="78.105003"
         cy="144.09732"
         style="stroke-width:0.13947777"
         r="0.63499999" />
      <circle
         r="0.63499999"
         style="stroke-width:0.13947777"
         cy="144.09732"
         cx="80.645004"
         id="circle3787" />
      <circle
         id="circle3789"
         cx="83.185005"
         cy="144.09732"
         style="stroke-width:0.13947777"
         r="0.63499999" />
      <circle
         r="0.63499999"
         style="stroke-width:0.13947777"
         cy="144.09732"
         cx="85.725006"
         id="circle3791" />
      <circle
         id="circle3793"
         cx="88.265007"
         cy="144.09732"
         style="stroke-width:0.13947777"
         r="0.63499999" />
      <circle
         r="0.63499999"
         style="stroke-width:0.13947777"
         cy="144.09732"
         cx="90.805008"
         id="circle3795" />
      <circle
         id="circle3797"
         cx="93.345009"
         cy="144.09732"
         style="stroke-width:0.13947777"
         r="0.63499999" />
      <circle
         r="0.63499999"
         style="stroke-width:0.13947777"
         cy="136.47734"
         cx="78.105003"
         id="circle3799" />
      <circle
         id="circle3801"
         cx="80.645004"
         cy="136.47734"
         style="stroke-width:0.13947777"
         r="0.63499999" />
      <circle
         r="0.63499999"
         style="stroke-width:0.13947777"
         cy="136.47734"
         cx="83.185005"
         id="circle3803" />
      <circle
         id="circle3805"
         cx="85.725006"
         cy="136.47734"
         style="stroke-width:0.13947777"
         r="0.63499999" />
      <circle
         r="0.63499999"
         style="stroke-width:0.13947777"
         cy="136.47734"
         cx="88.265007"
         id="circle3807" />
      <circle
         id="circle3809"
         cx="90.805008"
         cy="136.47734"
         style="stroke-width:0.13947777"
         r="0.63499999" />
      <circle
         r="0.63499999"
         style="stroke-width:0.13947777"
         cy="136.47734"
         cx="93.345009"
         id="circle3811" />
      <circle
         id="circle3813"
         cx="94.622139"
         cy="140.282"
         style="stroke-width:0.13947777"
         r="0.63499999" />
    </g>
    <g
       id="g3839"
       transform="translate(0,-0.1981684)">
      <path
         inkscape:connector-curvature="0"
         id="path3833"
         d="m 74.282177,148.34275 c 0.02064,-0.0413 0.04129,-0.0826 0.06193,-0.12386 0.02064,-0.0103 0.04913,-0.0117 0.06193,-0.031 0.01146,-0.0172 -0.0065,-0.0423 0,-0.0619 0.0046,-0.0138 0.02445,-0.0179 0.03096,-0.031 0.0092,-0.0185 -0.0065,-0.0423 0,-0.0619 0.0073,-0.0219 0.01815,-0.0427 0.03096,-0.0619 0.0081,-0.0121 0.02635,-0.0171 0.03096,-0.031 0.0065,-0.0196 -0.005,-0.0419 0,-0.0619 0.0056,-0.0224 0.02365,-0.04 0.03096,-0.0619 0.0033,-0.01 0,-0.0206 0,-0.031 0.01032,-0.0206 0.02365,-0.04 0.03096,-0.0619 0.0065,-0.0196 -0.0092,-0.0435 0,-0.0619 0.0065,-0.013 0.02445,-0.0179 0.03097,-0.031 0.0046,-0.009 -0.0073,-0.0237 0,-0.031 0.01849,-0.0185 0.06193,0.0335 0.06193,-0.031 0,-0.14095 -0.07262,0.0417 0,-0.031 0.0073,-0.007 -0.0073,-0.0237 0,-0.031 0.0092,-0.009 0.104674,0.01 0.123854,0 0.04742,-0.0237 0.02421,-0.0552 0.06193,-0.0929 0.0073,-0.007 0.02635,0.009 0.03096,0 0.0092,-0.0185 -0.01146,-0.0448 0,-0.0619 0.01281,-0.0192 0.04561,-0.0147 0.06193,-0.031 0.01461,-0.0146 -0.01461,-0.0473 0,-0.0619 0.0073,-0.007 0.02365,0.007 0.03096,0 0.0073,-0.007 -0.0073,-0.0237 0,-0.031 0.0073,-0.007 0.02172,0.005 0.03096,0 0.02611,-0.013 0.03582,-0.0489 0.06193,-0.0619 0.0092,-0.005 0.02064,0 0.03096,0 0.01032,-0.0103 0.01791,-0.0244 0.03096,-0.031 0.0092,-0.005 0.02365,0.007 0.03096,0 0.0073,-0.007 -0.0046,-0.0217 0,-0.031 0.0065,-0.013 0.02064,-0.0206 0.03096,-0.031 0.01032,-0.0103 0.01791,-0.0245 0.03096,-0.031 0.01228,-0.006 0.08656,0.006 0.09289,0 0.0073,-0.007 -0.0073,-0.0237 0,-0.031 0.0073,-0.007 0.02172,0.005 0.03096,0 0.01307,-0.007 0.01791,-0.0244 0.03096,-0.031 0.01976,-0.01 0.146542,0.008 0.154821,0 0.0073,-0.007 -0.0046,-0.0217 0,-0.031 0.0065,-0.0131 0.02445,-0.0179 0.03096,-0.031 0.0046,-0.009 -0.0073,-0.0237 0,-0.031 0.0073,-0.007 0.02064,0 0.03096,0 0.03097,0 0.06285,-0.008 0.09289,0 0.129545,-0.0561 0.03582,0.0489 0.06193,0.0619 0.01847,0.009 0.04234,-0.007 0.06193,0 0.09665,0.0322 -0.01032,0.0206 0.03096,0.0619 0.02527,0.0253 0.150109,0.0661 0.185783,0.0929 0.02336,0.0175 0.03764,0.0457 0.06193,0.0619 0.01717,0.0115 0.04234,-0.007 0.06193,0 0.02191,0.007 0.04003,0.0237 0.06193,0.031 0.01958,0.007 0.04347,-0.009 0.06193,0 0.02611,0.013 0.03423,0.0527 0.06193,0.0619 0.01958,0.007 0.0419,-0.005 0.06193,0 0.07489,0.0187 0.07162,0.0581 0.123854,0.0929 0.01921,0.0128 0.04273,0.0181 0.06193,0.031 0.01214,0.008 0.01712,0.0264 0.03096,0.031 0.01958,0.007 0.04346,-0.009 0.06193,0 0.0092,0.005 -0.0073,0.0237 0,0.031 0.0073,0.007 0.02172,-0.005 0.03096,0 0.01307,0.007 0.01791,0.0244 0.03096,0.031 0.0092,0.005 0.02365,-0.007 0.03096,0 0.0073,0.007 -0.0073,0.0237 0,0.031 0.0073,0.007 0.02172,-0.005 0.03096,0 0.01304,0.007 0.02064,0.0206 0.03097,0.031 0.01032,0.0103 0.02445,0.0179 0.03096,0.031 0.0092,0.0185 -0.0092,0.0435 0,0.0619 0.01307,0.0261 0.04887,0.0358 0.06193,0.0619 0.0046,0.009 -0.0046,0.0217 0,0.031 0.0065,0.0131 0.02445,0.0179 0.03096,0.031 0.0046,0.009 -0.0046,0.0217 0,0.031 0.0065,0.013 0.03096,0.0164 0.03096,0.031 0,0.0146 -0.03096,0.0164 -0.03096,0.031 0,0.0146 0.02445,0.0179 0.03096,0.031 0.0046,0.009 0,0.0206 0,0.031 0,0.0206 0.0092,0.0435 0,0.0619 -0.0046,0.009 -0.03096,-0.0103 -0.03096,0 0,0.0146 0.02445,0.0179 0.03096,0.031 7.94e-4,0.002 7.94e-4,0.0913 0,0.0929 -0.0065,0.0131 -0.03096,0.0164 -0.03096,0.031 0,0.0146 0.02445,0.0179 0.03096,0.031 0.0032,0.006 0.0044,0.0885 0,0.0929 -0.0073,0.007 -0.02365,-0.007 -0.03096,0 -0.0073,0.007 0,0.0206 0,0.031 0,0.0146 0.0013,0.15342 0,0.15482 -0.0073,0.007 -0.02365,-0.007 -0.03096,0 -0.0073,0.007 -0.0073,0.0237 0,0.031 0.0073,0.007 0.03096,-0.0103 0.03096,0 0,0.0103 -0.02365,-0.007 -0.03096,0 -0.0073,0.007 0.0073,0.0237 0,0.031 -0.04129,0.0413 -0.03096,-0.0516 -0.03096,0.031"
         style="fill:none;stroke:#000000;stroke-width:0.26458332px;stroke-linecap:butt;stroke-linejoin:miter;stroke-opacity:1" />
      <path
         inkscape:connector-curvature="0"
         id="path3835"
         d="m 76.439092,147.90128 c 0.0075,0.0424 0.05454,0.0292 0.0761,0.0507 0.0067,0.007 0.0074,0.0175 0.01267,0.0254 0.0098,0.0146 0.02829,0.0234 0.03805,0.038 0.01871,0.0281 0.0051,0.0288 0.03805,0.0507 0.01574,0.0105 0.03452,0.0156 0.05073,0.0254 0.0094,0.006 0.02938,0.0294 0.03805,0.038 0.0042,0.004 0.0073,0.01 0.01267,0.0127 0.0038,0.002 0.0087,-0.001 0.01267,0 0.01119,0.004 0.06606,0.0314 0.0761,0.038 0.01635,0.0109 0.03419,0.0383 0.05073,0.0507 0.0122,0.009 0.02585,0.0162 0.03805,0.0254 0.01939,0.0146 0.01,0.015 0.02537,0.038 0.01942,0.0291 0.0072,-0.005 0.03805,0.0254 0.003,0.003 -0.0019,0.009 0,0.0127 0.0016,0.003 0.03468,0.0364 0.03805,0.038 0.0038,0.002 0.0089,-0.002 0.01267,0 0.01521,0.008 0.02283,0.0304 0.03805,0.038 0.0038,0.002 0.0097,0.003 0.01267,0 0.03203,-0.032 0.0049,-0.0146 0.01267,-0.038 0.01532,-0.046 0.006,-0.009 0.02537,-0.038 0.0052,-0.008 0.006,-0.0187 0.01267,-0.0254 0.003,-0.003 0.0097,0.003 0.01267,0 0.003,-0.003 -0.003,-0.01 0,-0.0127 0.003,-0.003 0.0089,0.002 0.01267,0 0.0053,-0.003 0.0085,-0.008 0.01267,-0.0127 0.0042,-0.004 0.01,-0.007 0.01267,-0.0127 0.0019,-0.004 -0.0019,-0.009 0,-0.0127 0.02706,-0.0541 -0.0016,0.0288 0.02537,-0.0254 0.0019,-0.004 -0.0019,-0.009 0,-0.0127 0.0053,-0.0107 0.01873,-0.0154 0.02537,-0.0254 0.0052,-0.008 0.0085,-0.0169 0.01267,-0.0254 0.0042,-0.008 0.0104,-0.0162 0.01267,-0.0254 0.005,-0.0199 -0.005,-0.0435 0,-0.0634 0.02135,-0.0854 1.96e-4,-1.9e-4 0.02537,-0.0254 0.0026,-0.003 -0.0026,-0.033 0,-0.038 0.0053,-0.0107 0.02159,-0.014 0.02537,-0.0254 0.02638,-0.0792 -0.01267,0.0145 -0.01267,-0.038 0,-0.006 0.01,-0.007 0.01267,-0.0127 0.0019,-0.004 -0.0019,-0.009 0,-0.0127 0.0027,-0.005 0.01,-0.007 0.01267,-0.0127 0.0019,-0.004 -0.003,-0.01 0,-0.0127 0.003,-0.003 0.0089,0.002 0.01267,0 0.0034,-0.002 0.03637,-0.0347 0.03805,-0.038 0.0019,-0.004 0,-0.008 0,-0.0127"
         style="fill:none;stroke:#000000;stroke-width:0.26458332px;stroke-linecap:butt;stroke-linejoin:miter;stroke-opacity:1" />
    </g>
    <g
       id="g3845"
       transform="translate(5.08,-0.1981684)">
      <path
         style="fill:none;stroke:#000000;stroke-width:0.26458332px;stroke-linecap:butt;stroke-linejoin:miter;stroke-opacity:1"
         d="m 74.282177,148.34275 c 0.02064,-0.0413 0.04129,-0.0826 0.06193,-0.12386 0.02064,-0.0103 0.04913,-0.0117 0.06193,-0.031 0.01146,-0.0172 -0.0065,-0.0423 0,-0.0619 0.0046,-0.0138 0.02445,-0.0179 0.03096,-0.031 0.0092,-0.0185 -0.0065,-0.0423 0,-0.0619 0.0073,-0.0219 0.01815,-0.0427 0.03096,-0.0619 0.0081,-0.0121 0.02635,-0.0171 0.03096,-0.031 0.0065,-0.0196 -0.005,-0.0419 0,-0.0619 0.0056,-0.0224 0.02365,-0.04 0.03096,-0.0619 0.0033,-0.01 0,-0.0206 0,-0.031 0.01032,-0.0206 0.02365,-0.04 0.03096,-0.0619 0.0065,-0.0196 -0.0092,-0.0435 0,-0.0619 0.0065,-0.013 0.02445,-0.0179 0.03097,-0.031 0.0046,-0.009 -0.0073,-0.0237 0,-0.031 0.01849,-0.0185 0.06193,0.0335 0.06193,-0.031 0,-0.14095 -0.07262,0.0417 0,-0.031 0.0073,-0.007 -0.0073,-0.0237 0,-0.031 0.0092,-0.009 0.104674,0.01 0.123854,0 0.04742,-0.0237 0.02421,-0.0552 0.06193,-0.0929 0.0073,-0.007 0.02635,0.009 0.03096,0 0.0092,-0.0185 -0.01146,-0.0448 0,-0.0619 0.01281,-0.0192 0.04561,-0.0147 0.06193,-0.031 0.01461,-0.0146 -0.01461,-0.0473 0,-0.0619 0.0073,-0.007 0.02365,0.007 0.03096,0 0.0073,-0.007 -0.0073,-0.0237 0,-0.031 0.0073,-0.007 0.02172,0.005 0.03096,0 0.02611,-0.013 0.03582,-0.0489 0.06193,-0.0619 0.0092,-0.005 0.02064,0 0.03096,0 0.01032,-0.0103 0.01791,-0.0244 0.03096,-0.031 0.0092,-0.005 0.02365,0.007 0.03096,0 0.0073,-0.007 -0.0046,-0.0217 0,-0.031 0.0065,-0.013 0.02064,-0.0206 0.03096,-0.031 0.01032,-0.0103 0.01791,-0.0245 0.03096,-0.031 0.01228,-0.006 0.08656,0.006 0.09289,0 0.0073,-0.007 -0.0073,-0.0237 0,-0.031 0.0073,-0.007 0.02172,0.005 0.03096,0 0.01307,-0.007 0.01791,-0.0244 0.03096,-0.031 0.01976,-0.01 0.146542,0.008 0.154821,0 0.0073,-0.007 -0.0046,-0.0217 0,-0.031 0.0065,-0.0131 0.02445,-0.0179 0.03096,-0.031 0.0046,-0.009 -0.0073,-0.0237 0,-0.031 0.0073,-0.007 0.02064,0 0.03096,0 0.03097,0 0.06285,-0.008 0.09289,0 0.129545,-0.0561 0.03582,0.0489 0.06193,0.0619 0.01847,0.009 0.04234,-0.007 0.06193,0 0.09665,0.0322 -0.01032,0.0206 0.03096,0.0619 0.02527,0.0253 0.150109,0.0661 0.185783,0.0929 0.02336,0.0175 0.03764,0.0457 0.06193,0.0619 0.01717,0.0115 0.04234,-0.007 0.06193,0 0.02191,0.007 0.04003,0.0237 0.06193,0.031 0.01958,0.007 0.04347,-0.009 0.06193,0 0.02611,0.013 0.03423,0.0527 0.06193,0.0619 0.01958,0.007 0.0419,-0.005 0.06193,0 0.07489,0.0187 0.07162,0.0581 0.123854,0.0929 0.01921,0.0128 0.04273,0.0181 0.06193,0.031 0.01214,0.008 0.01712,0.0264 0.03096,0.031 0.01958,0.007 0.04346,-0.009 0.06193,0 0.0092,0.005 -0.0073,0.0237 0,0.031 0.0073,0.007 0.02172,-0.005 0.03096,0 0.01307,0.007 0.01791,0.0244 0.03096,0.031 0.0092,0.005 0.02365,-0.007 0.03096,0 0.0073,0.007 -0.0073,0.0237 0,0.031 0.0073,0.007 0.02172,-0.005 0.03096,0 0.01304,0.007 0.02064,0.0206 0.03097,0.031 0.01032,0.0103 0.02445,0.0179 0.03096,0.031 0.0092,0.0185 -0.0092,0.0435 0,0.0619 0.01307,0.0261 0.04887,0.0358 0.06193,0.0619 0.0046,0.009 -0.0046,0.0217 0,0.031 0.0065,0.0131 0.02445,0.0179 0.03096,0.031 0.0046,0.009 -0.0046,0.0217 0,0.031 0.0065,0.013 0.03096,0.0164 0.03096,0.031 0,0.0146 -0.03096,0.0164 -0.03096,0.031 0,0.0146 0.02445,0.0179 0.03096,0.031 0.0046,0.009 0,0.0206 0,0.031 0,0.0206 0.0092,0.0435 0,0.0619 -0.0046,0.009 -0.03096,-0.0103 -0.03096,0 0,0.0146 0.02445,0.0179 0.03096,0.031 7.94e-4,0.002 7.94e-4,0.0913 0,0.0929 -0.0065,0.0131 -0.03096,0.0164 -0.03096,0.031 0,0.0146 0.02445,0.0179 0.03096,0.031 0.0032,0.006 0.0044,0.0885 0,0.0929 -0.0073,0.007 -0.02365,-0.007 -0.03096,0 -0.0073,0.007 0,0.0206 0,0.031 0,0.0146 0.0013,0.15342 0,0.15482 -0.0073,0.007 -0.02365,-0.007 -0.03096,0 -0.0073,0.007 -0.0073,0.0237 0,0.031 0.0073,0.007 0.03096,-0.0103 0.03096,0 0,0.0103 -0.02365,-0.007 -0.03096,0 -0.0073,0.007 0.0073,0.0237 0,0.031 -0.04129,0.0413 -0.03096,-0.0516 -0.03096,0.031"
         id="path3841"
         inkscape:connector-curvature="0" />
      <path
         style="fill:none;stroke:#000000;stroke-width:0.26458332px;stroke-linecap:butt;stroke-linejoin:miter;stroke-opacity:1"
         d="m 76.439092,147.90128 c 0.0075,0.0424 0.05454,0.0292 0.0761,0.0507 0.0067,0.007 0.0074,0.0175 0.01267,0.0254 0.0098,0.0146 0.02829,0.0234 0.03805,0.038 0.01871,0.0281 0.0051,0.0288 0.03805,0.0507 0.01574,0.0105 0.03452,0.0156 0.05073,0.0254 0.0094,0.006 0.02938,0.0294 0.03805,0.038 0.0042,0.004 0.0073,0.01 0.01267,0.0127 0.0038,0.002 0.0087,-0.001 0.01267,0 0.01119,0.004 0.06606,0.0314 0.0761,0.038 0.01635,0.0109 0.03419,0.0383 0.05073,0.0507 0.0122,0.009 0.02585,0.0162 0.03805,0.0254 0.01939,0.0146 0.01,0.015 0.02537,0.038 0.01942,0.0291 0.0072,-0.005 0.03805,0.0254 0.003,0.003 -0.0019,0.009 0,0.0127 0.0016,0.003 0.03468,0.0364 0.03805,0.038 0.0038,0.002 0.0089,-0.002 0.01267,0 0.01521,0.008 0.02283,0.0304 0.03805,0.038 0.0038,0.002 0.0097,0.003 0.01267,0 0.03203,-0.032 0.0049,-0.0146 0.01267,-0.038 0.01532,-0.046 0.006,-0.009 0.02537,-0.038 0.0052,-0.008 0.006,-0.0187 0.01267,-0.0254 0.003,-0.003 0.0097,0.003 0.01267,0 0.003,-0.003 -0.003,-0.01 0,-0.0127 0.003,-0.003 0.0089,0.002 0.01267,0 0.0053,-0.003 0.0085,-0.008 0.01267,-0.0127 0.0042,-0.004 0.01,-0.007 0.01267,-0.0127 0.0019,-0.004 -0.0019,-0.009 0,-0.0127 0.02706,-0.0541 -0.0016,0.0288 0.02537,-0.0254 0.0019,-0.004 -0.0019,-0.009 0,-0.0127 0.0053,-0.0107 0.01873,-0.0154 0.02537,-0.0254 0.0052,-0.008 0.0085,-0.0169 0.01267,-0.0254 0.0042,-0.008 0.0104,-0.0162 0.01267,-0.0254 0.005,-0.0199 -0.005,-0.0435 0,-0.0634 0.02135,-0.0854 1.96e-4,-1.9e-4 0.02537,-0.0254 0.0026,-0.003 -0.0026,-0.033 0,-0.038 0.0053,-0.0107 0.02159,-0.014 0.02537,-0.0254 0.02638,-0.0792 -0.01267,0.0145 -0.01267,-0.038 0,-0.006 0.01,-0.007 0.01267,-0.0127 0.0019,-0.004 -0.0019,-0.009 0,-0.0127 0.0027,-0.005 0.01,-0.007 0.01267,-0.0127 0.0019,-0.004 -0.003,-0.01 0,-0.0127 0.003,-0.003 0.0089,0.002 0.01267,0 0.0034,-0.002 0.03637,-0.0347 0.03805,-0.038 0.0019,-0.004 0,-0.008 0,-0.0127"
         id="path3843"
         inkscape:connector-curvature="0" />
    </g>
    <g
       transform="translate(10.16,-0.1981684)"
       id="g3851">
      <path
         inkscape:connector-curvature="0"
         id="path3847"
         d="m 74.282177,148.34275 c 0.02064,-0.0413 0.04129,-0.0826 0.06193,-0.12386 0.02064,-0.0103 0.04913,-0.0117 0.06193,-0.031 0.01146,-0.0172 -0.0065,-0.0423 0,-0.0619 0.0046,-0.0138 0.02445,-0.0179 0.03096,-0.031 0.0092,-0.0185 -0.0065,-0.0423 0,-0.0619 0.0073,-0.0219 0.01815,-0.0427 0.03096,-0.0619 0.0081,-0.0121 0.02635,-0.0171 0.03096,-0.031 0.0065,-0.0196 -0.005,-0.0419 0,-0.0619 0.0056,-0.0224 0.02365,-0.04 0.03096,-0.0619 0.0033,-0.01 0,-0.0206 0,-0.031 0.01032,-0.0206 0.02365,-0.04 0.03096,-0.0619 0.0065,-0.0196 -0.0092,-0.0435 0,-0.0619 0.0065,-0.013 0.02445,-0.0179 0.03097,-0.031 0.0046,-0.009 -0.0073,-0.0237 0,-0.031 0.01849,-0.0185 0.06193,0.0335 0.06193,-0.031 0,-0.14095 -0.07262,0.0417 0,-0.031 0.0073,-0.007 -0.0073,-0.0237 0,-0.031 0.0092,-0.009 0.104674,0.01 0.123854,0 0.04742,-0.0237 0.02421,-0.0552 0.06193,-0.0929 0.0073,-0.007 0.02635,0.009 0.03096,0 0.0092,-0.0185 -0.01146,-0.0448 0,-0.0619 0.01281,-0.0192 0.04561,-0.0147 0.06193,-0.031 0.01461,-0.0146 -0.01461,-0.0473 0,-0.0619 0.0073,-0.007 0.02365,0.007 0.03096,0 0.0073,-0.007 -0.0073,-0.0237 0,-0.031 0.0073,-0.007 0.02172,0.005 0.03096,0 0.02611,-0.013 0.03582,-0.0489 0.06193,-0.0619 0.0092,-0.005 0.02064,0 0.03096,0 0.01032,-0.0103 0.01791,-0.0244 0.03096,-0.031 0.0092,-0.005 0.02365,0.007 0.03096,0 0.0073,-0.007 -0.0046,-0.0217 0,-0.031 0.0065,-0.013 0.02064,-0.0206 0.03096,-0.031 0.01032,-0.0103 0.01791,-0.0245 0.03096,-0.031 0.01228,-0.006 0.08656,0.006 0.09289,0 0.0073,-0.007 -0.0073,-0.0237 0,-0.031 0.0073,-0.007 0.02172,0.005 0.03096,0 0.01307,-0.007 0.01791,-0.0244 0.03096,-0.031 0.01976,-0.01 0.146542,0.008 0.154821,0 0.0073,-0.007 -0.0046,-0.0217 0,-0.031 0.0065,-0.0131 0.02445,-0.0179 0.03096,-0.031 0.0046,-0.009 -0.0073,-0.0237 0,-0.031 0.0073,-0.007 0.02064,0 0.03096,0 0.03097,0 0.06285,-0.008 0.09289,0 0.129545,-0.0561 0.03582,0.0489 0.06193,0.0619 0.01847,0.009 0.04234,-0.007 0.06193,0 0.09665,0.0322 -0.01032,0.0206 0.03096,0.0619 0.02527,0.0253 0.150109,0.0661 0.185783,0.0929 0.02336,0.0175 0.03764,0.0457 0.06193,0.0619 0.01717,0.0115 0.04234,-0.007 0.06193,0 0.02191,0.007 0.04003,0.0237 0.06193,0.031 0.01958,0.007 0.04347,-0.009 0.06193,0 0.02611,0.013 0.03423,0.0527 0.06193,0.0619 0.01958,0.007 0.0419,-0.005 0.06193,0 0.07489,0.0187 0.07162,0.0581 0.123854,0.0929 0.01921,0.0128 0.04273,0.0181 0.06193,0.031 0.01214,0.008 0.01712,0.0264 0.03096,0.031 0.01958,0.007 0.04346,-0.009 0.06193,0 0.0092,0.005 -0.0073,0.0237 0,0.031 0.0073,0.007 0.02172,-0.005 0.03096,0 0.01307,0.007 0.01791,0.0244 0.03096,0.031 0.0092,0.005 0.02365,-0.007 0.03096,0 0.0073,0.007 -0.0073,0.0237 0,0.031 0.0073,0.007 0.02172,-0.005 0.03096,0 0.01304,0.007 0.02064,0.0206 0.03097,0.031 0.01032,0.0103 0.02445,0.0179 0.03096,0.031 0.0092,0.0185 -0.0092,0.0435 0,0.0619 0.01307,0.0261 0.04887,0.0358 0.06193,0.0619 0.0046,0.009 -0.0046,0.0217 0,0.031 0.0065,0.0131 0.02445,0.0179 0.03096,0.031 0.0046,0.009 -0.0046,0.0217 0,0.031 0.0065,0.013 0.03096,0.0164 0.03096,0.031 0,0.0146 -0.03096,0.0164 -0.03096,0.031 0,0.0146 0.02445,0.0179 0.03096,0.031 0.0046,0.009 0,0.0206 0,0.031 0,0.0206 0.0092,0.0435 0,0.0619 -0.0046,0.009 -0.03096,-0.0103 -0.03096,0 0,0.0146 0.02445,0.0179 0.03096,0.031 7.94e-4,0.002 7.94e-4,0.0913 0,0.0929 -0.0065,0.0131 -0.03096,0.0164 -0.03096,0.031 0,0.0146 0.02445,0.0179 0.03096,0.031 0.0032,0.006 0.0044,0.0885 0,0.0929 -0.0073,0.007 -0.02365,-0.007 -0.03096,0 -0.0073,0.007 0,0.0206 0,0.031 0,0.0146 0.0013,0.15342 0,0.15482 -0.0073,0.007 -0.02365,-0.007 -0.03096,0 -0.0073,0.007 -0.0073,0.0237 0,0.031 0.0073,0.007 0.03096,-0.0103 0.03096,0 0,0.0103 -0.02365,-0.007 -0.03096,0 -0.0073,0.007 0.0073,0.0237 0,0.031 -0.04129,0.0413 -0.03096,-0.0516 -0.03096,0.031"
         style="fill:none;stroke:#000000;stroke-width:0.26458332px;stroke-linecap:butt;stroke-linejoin:miter;stroke-opacity:1" />
      <path
         inkscape:connector-curvature="0"
         id="path3849"
         d="m 76.439092,147.90128 c 0.0075,0.0424 0.05454,0.0292 0.0761,0.0507 0.0067,0.007 0.0074,0.0175 0.01267,0.0254 0.0098,0.0146 0.02829,0.0234 0.03805,0.038 0.01871,0.0281 0.0051,0.0288 0.03805,0.0507 0.01574,0.0105 0.03452,0.0156 0.05073,0.0254 0.0094,0.006 0.02938,0.0294 0.03805,0.038 0.0042,0.004 0.0073,0.01 0.01267,0.0127 0.0038,0.002 0.0087,-0.001 0.01267,0 0.01119,0.004 0.06606,0.0314 0.0761,0.038 0.01635,0.0109 0.03419,0.0383 0.05073,0.0507 0.0122,0.009 0.02585,0.0162 0.03805,0.0254 0.01939,0.0146 0.01,0.015 0.02537,0.038 0.01942,0.0291 0.0072,-0.005 0.03805,0.0254 0.003,0.003 -0.0019,0.009 0,0.0127 0.0016,0.003 0.03468,0.0364 0.03805,0.038 0.0038,0.002 0.0089,-0.002 0.01267,0 0.01521,0.008 0.02283,0.0304 0.03805,0.038 0.0038,0.002 0.0097,0.003 0.01267,0 0.03203,-0.032 0.0049,-0.0146 0.01267,-0.038 0.01532,-0.046 0.006,-0.009 0.02537,-0.038 0.0052,-0.008 0.006,-0.0187 0.01267,-0.0254 0.003,-0.003 0.0097,0.003 0.01267,0 0.003,-0.003 -0.003,-0.01 0,-0.0127 0.003,-0.003 0.0089,0.002 0.01267,0 0.0053,-0.003 0.0085,-0.008 0.01267,-0.0127 0.0042,-0.004 0.01,-0.007 0.01267,-0.0127 0.0019,-0.004 -0.0019,-0.009 0,-0.0127 0.02706,-0.0541 -0.0016,0.0288 0.02537,-0.0254 0.0019,-0.004 -0.0019,-0.009 0,-0.0127 0.0053,-0.0107 0.01873,-0.0154 0.02537,-0.0254 0.0052,-0.008 0.0085,-0.0169 0.01267,-0.0254 0.0042,-0.008 0.0104,-0.0162 0.01267,-0.0254 0.005,-0.0199 -0.005,-0.0435 0,-0.0634 0.02135,-0.0854 1.96e-4,-1.9e-4 0.02537,-0.0254 0.0026,-0.003 -0.0026,-0.033 0,-0.038 0.0053,-0.0107 0.02159,-0.014 0.02537,-0.0254 0.02638,-0.0792 -0.01267,0.0145 -0.01267,-0.038 0,-0.006 0.01,-0.007 0.01267,-0.0127 0.0019,-0.004 -0.0019,-0.009 0,-0.0127 0.0027,-0.005 0.01,-0.007 0.01267,-0.0127 0.0019,-0.004 -0.003,-0.01 0,-0.0127 0.003,-0.003 0.0089,0.002 0.01267,0 0.0034,-0.002 0.03637,-0.0347 0.03805,-0.038 0.0019,-0.004 0,-0.008 0,-0.0127"
         style="fill:none;stroke:#000000;stroke-width:0.26458332px;stroke-linecap:butt;stroke-linejoin:miter;stroke-opacity:1" />
    </g>
    <g
       id="g3857"
       transform="matrix(1,0,0,-1,12.62312,290.86622)">
      <path
         style="fill:none;stroke:#000000;stroke-width:0.26458332px;stroke-linecap:butt;stroke-linejoin:miter;stroke-opacity:1"
         d="m 74.282177,148.34275 c 0.02064,-0.0413 0.04129,-0.0826 0.06193,-0.12386 0.02064,-0.0103 0.04913,-0.0117 0.06193,-0.031 0.01146,-0.0172 -0.0065,-0.0423 0,-0.0619 0.0046,-0.0138 0.02445,-0.0179 0.03096,-0.031 0.0092,-0.0185 -0.0065,-0.0423 0,-0.0619 0.0073,-0.0219 0.01815,-0.0427 0.03096,-0.0619 0.0081,-0.0121 0.02635,-0.0171 0.03096,-0.031 0.0065,-0.0196 -0.005,-0.0419 0,-0.0619 0.0056,-0.0224 0.02365,-0.04 0.03096,-0.0619 0.0033,-0.01 0,-0.0206 0,-0.031 0.01032,-0.0206 0.02365,-0.04 0.03096,-0.0619 0.0065,-0.0196 -0.0092,-0.0435 0,-0.0619 0.0065,-0.013 0.02445,-0.0179 0.03097,-0.031 0.0046,-0.009 -0.0073,-0.0237 0,-0.031 0.01849,-0.0185 0.06193,0.0335 0.06193,-0.031 0,-0.14095 -0.07262,0.0417 0,-0.031 0.0073,-0.007 -0.0073,-0.0237 0,-0.031 0.0092,-0.009 0.104674,0.01 0.123854,0 0.04742,-0.0237 0.02421,-0.0552 0.06193,-0.0929 0.0073,-0.007 0.02635,0.009 0.03096,0 0.0092,-0.0185 -0.01146,-0.0448 0,-0.0619 0.01281,-0.0192 0.04561,-0.0147 0.06193,-0.031 0.01461,-0.0146 -0.01461,-0.0473 0,-0.0619 0.0073,-0.007 0.02365,0.007 0.03096,0 0.0073,-0.007 -0.0073,-0.0237 0,-0.031 0.0073,-0.007 0.02172,0.005 0.03096,0 0.02611,-0.013 0.03582,-0.0489 0.06193,-0.0619 0.0092,-0.005 0.02064,0 0.03096,0 0.01032,-0.0103 0.01791,-0.0244 0.03096,-0.031 0.0092,-0.005 0.02365,0.007 0.03096,0 0.0073,-0.007 -0.0046,-0.0217 0,-0.031 0.0065,-0.013 0.02064,-0.0206 0.03096,-0.031 0.01032,-0.0103 0.01791,-0.0245 0.03096,-0.031 0.01228,-0.006 0.08656,0.006 0.09289,0 0.0073,-0.007 -0.0073,-0.0237 0,-0.031 0.0073,-0.007 0.02172,0.005 0.03096,0 0.01307,-0.007 0.01791,-0.0244 0.03096,-0.031 0.01976,-0.01 0.146542,0.008 0.154821,0 0.0073,-0.007 -0.0046,-0.0217 0,-0.031 0.0065,-0.0131 0.02445,-0.0179 0.03096,-0.031 0.0046,-0.009 -0.0073,-0.0237 0,-0.031 0.0073,-0.007 0.02064,0 0.03096,0 0.03097,0 0.06285,-0.008 0.09289,0 0.129545,-0.0561 0.03582,0.0489 0.06193,0.0619 0.01847,0.009 0.04234,-0.007 0.06193,0 0.09665,0.0322 -0.01032,0.0206 0.03096,0.0619 0.02527,0.0253 0.150109,0.0661 0.185783,0.0929 0.02336,0.0175 0.03764,0.0457 0.06193,0.0619 0.01717,0.0115 0.04234,-0.007 0.06193,0 0.02191,0.007 0.04003,0.0237 0.06193,0.031 0.01958,0.007 0.04347,-0.009 0.06193,0 0.02611,0.013 0.03423,0.0527 0.06193,0.0619 0.01958,0.007 0.0419,-0.005 0.06193,0 0.07489,0.0187 0.07162,0.0581 0.123854,0.0929 0.01921,0.0128 0.04273,0.0181 0.06193,0.031 0.01214,0.008 0.01712,0.0264 0.03096,0.031 0.01958,0.007 0.04346,-0.009 0.06193,0 0.0092,0.005 -0.0073,0.0237 0,0.031 0.0073,0.007 0.02172,-0.005 0.03096,0 0.01307,0.007 0.01791,0.0244 0.03096,0.031 0.0092,0.005 0.02365,-0.007 0.03096,0 0.0073,0.007 -0.0073,0.0237 0,0.031 0.0073,0.007 0.02172,-0.005 0.03096,0 0.01304,0.007 0.02064,0.0206 0.03097,0.031 0.01032,0.0103 0.02445,0.0179 0.03096,0.031 0.0092,0.0185 -0.0092,0.0435 0,0.0619 0.01307,0.0261 0.04887,0.0358 0.06193,0.0619 0.0046,0.009 -0.0046,0.0217 0,0.031 0.0065,0.0131 0.02445,0.0179 0.03096,0.031 0.0046,0.009 -0.0046,0.0217 0,0.031 0.0065,0.013 0.03096,0.0164 0.03096,0.031 0,0.0146 -0.03096,0.0164 -0.03096,0.031 0,0.0146 0.02445,0.0179 0.03096,0.031 0.0046,0.009 0,0.0206 0,0.031 0,0.0206 0.0092,0.0435 0,0.0619 -0.0046,0.009 -0.03096,-0.0103 -0.03096,0 0,0.0146 0.02445,0.0179 0.03096,0.031 7.94e-4,0.002 7.94e-4,0.0913 0,0.0929 -0.0065,0.0131 -0.03096,0.0164 -0.03096,0.031 0,0.0146 0.02445,0.0179 0.03096,0.031 0.0032,0.006 0.0044,0.0885 0,0.0929 -0.0073,0.007 -0.02365,-0.007 -0.03096,0 -0.0073,0.007 0,0.0206 0,0.031 0,0.0146 0.0013,0.15342 0,0.15482 -0.0073,0.007 -0.02365,-0.007 -0.03096,0 -0.0073,0.007 -0.0073,0.0237 0,0.031 0.0073,0.007 0.03096,-0.0103 0.03096,0 0,0.0103 -0.02365,-0.007 -0.03096,0 -0.0073,0.007 0.0073,0.0237 0,0.031 -0.04129,0.0413 -0.03096,-0.0516 -0.03096,0.031"
         id="path3853"
         inkscape:connector-curvature="0" />
      <path
         style="fill:none;stroke:#000000;stroke-width:0.26458332px;stroke-linecap:butt;stroke-linejoin:miter;stroke-opacity:1"
         d="m 76.439092,147.90128 c 0.0075,0.0424 0.05454,0.0292 0.0761,0.0507 0.0067,0.007 0.0074,0.0175 0.01267,0.0254 0.0098,0.0146 0.02829,0.0234 0.03805,0.038 0.01871,0.0281 0.0051,0.0288 0.03805,0.0507 0.01574,0.0105 0.03452,0.0156 0.05073,0.0254 0.0094,0.006 0.02938,0.0294 0.03805,0.038 0.0042,0.004 0.0073,0.01 0.01267,0.0127 0.0038,0.002 0.0087,-0.001 0.01267,0 0.01119,0.004 0.06606,0.0314 0.0761,0.038 0.01635,0.0109 0.03419,0.0383 0.05073,0.0507 0.0122,0.009 0.02585,0.0162 0.03805,0.0254 0.01939,0.0146 0.01,0.015 0.02537,0.038 0.01942,0.0291 0.0072,-0.005 0.03805,0.0254 0.003,0.003 -0.0019,0.009 0,0.0127 0.0016,0.003 0.03468,0.0364 0.03805,0.038 0.0038,0.002 0.0089,-0.002 0.01267,0 0.01521,0.008 0.02283,0.0304 0.03805,0.038 0.0038,0.002 0.0097,0.003 0.01267,0 0.03203,-0.032 0.0049,-0.0146 0.01267,-0.038 0.01532,-0.046 0.006,-0.009 0.02537,-0.038 0.0052,-0.008 0.006,-0.0187 0.01267,-0.0254 0.003,-0.003 0.0097,0.003 0.01267,0 0.003,-0.003 -0.003,-0.01 0,-0.0127 0.003,-0.003 0.0089,0.002 0.01267,0 0.0053,-0.003 0.0085,-0.008 0.01267,-0.0127 0.0042,-0.004 0.01,-0.007 0.01267,-0.0127 0.0019,-0.004 -0.0019,-0.009 0,-0.0127 0.02706,-0.0541 -0.0016,0.0288 0.02537,-0.0254 0.0019,-0.004 -0.0019,-0.009 0,-0.0127 0.0053,-0.0107 0.01873,-0.0154 0.02537,-0.0254 0.0052,-0.008 0.0085,-0.0169 0.01267,-0.0254 0.0042,-0.008 0.0104,-0.0162 0.01267,-0.0254 0.005,-0.0199 -0.005,-0.0435 0,-0.0634 0.02135,-0.0854 1.96e-4,-1.9e-4 0.02537,-0.0254 0.0026,-0.003 -0.0026,-0.033 0,-0.038 0.0053,-0.0107 0.02159,-0.014 0.02537,-0.0254 0.02638,-0.0792 -0.01267,0.0145 -0.01267,-0.038 0,-0.006 0.01,-0.007 0.01267,-0.0127 0.0019,-0.004 -0.0019,-0.009 0,-0.0127 0.0027,-0.005 0.01,-0.007 0.01267,-0.0127 0.0019,-0.004 -0.003,-0.01 0,-0.0127 0.003,-0.003 0.0089,0.002 0.01267,0 0.0034,-0.002 0.03637,-0.0347 0.03805,-0.038 0.0019,-0.004 0,-0.008 0,-0.0127"
         id="path3855"
         inkscape:connector-curvature="0" />
    </g>
    <g
       transform="matrix(1,0,0,-1,7.54312,290.86622)"
       id="g3863">
      <path
         inkscape:connector-curvature="0"
         id="path3859"
         d="m 74.282177,148.34275 c 0.02064,-0.0413 0.04129,-0.0826 0.06193,-0.12386 0.02064,-0.0103 0.04913,-0.0117 0.06193,-0.031 0.01146,-0.0172 -0.0065,-0.0423 0,-0.0619 0.0046,-0.0138 0.02445,-0.0179 0.03096,-0.031 0.0092,-0.0185 -0.0065,-0.0423 0,-0.0619 0.0073,-0.0219 0.01815,-0.0427 0.03096,-0.0619 0.0081,-0.0121 0.02635,-0.0171 0.03096,-0.031 0.0065,-0.0196 -0.005,-0.0419 0,-0.0619 0.0056,-0.0224 0.02365,-0.04 0.03096,-0.0619 0.0033,-0.01 0,-0.0206 0,-0.031 0.01032,-0.0206 0.02365,-0.04 0.03096,-0.0619 0.0065,-0.0196 -0.0092,-0.0435 0,-0.0619 0.0065,-0.013 0.02445,-0.0179 0.03097,-0.031 0.0046,-0.009 -0.0073,-0.0237 0,-0.031 0.01849,-0.0185 0.06193,0.0335 0.06193,-0.031 0,-0.14095 -0.07262,0.0417 0,-0.031 0.0073,-0.007 -0.0073,-0.0237 0,-0.031 0.0092,-0.009 0.104674,0.01 0.123854,0 0.04742,-0.0237 0.02421,-0.0552 0.06193,-0.0929 0.0073,-0.007 0.02635,0.009 0.03096,0 0.0092,-0.0185 -0.01146,-0.0448 0,-0.0619 0.01281,-0.0192 0.04561,-0.0147 0.06193,-0.031 0.01461,-0.0146 -0.01461,-0.0473 0,-0.0619 0.0073,-0.007 0.02365,0.007 0.03096,0 0.0073,-0.007 -0.0073,-0.0237 0,-0.031 0.0073,-0.007 0.02172,0.005 0.03096,0 0.02611,-0.013 0.03582,-0.0489 0.06193,-0.0619 0.0092,-0.005 0.02064,0 0.03096,0 0.01032,-0.0103 0.01791,-0.0244 0.03096,-0.031 0.0092,-0.005 0.02365,0.007 0.03096,0 0.0073,-0.007 -0.0046,-0.0217 0,-0.031 0.0065,-0.013 0.02064,-0.0206 0.03096,-0.031 0.01032,-0.0103 0.01791,-0.0245 0.03096,-0.031 0.01228,-0.006 0.08656,0.006 0.09289,0 0.0073,-0.007 -0.0073,-0.0237 0,-0.031 0.0073,-0.007 0.02172,0.005 0.03096,0 0.01307,-0.007 0.01791,-0.0244 0.03096,-0.031 0.01976,-0.01 0.146542,0.008 0.154821,0 0.0073,-0.007 -0.0046,-0.0217 0,-0.031 0.0065,-0.0131 0.02445,-0.0179 0.03096,-0.031 0.0046,-0.009 -0.0073,-0.0237 0,-0.031 0.0073,-0.007 0.02064,0 0.03096,0 0.03097,0 0.06285,-0.008 0.09289,0 0.129545,-0.0561 0.03582,0.0489 0.06193,0.0619 0.01847,0.009 0.04234,-0.007 0.06193,0 0.09665,0.0322 -0.01032,0.0206 0.03096,0.0619 0.02527,0.0253 0.150109,0.0661 0.185783,0.0929 0.02336,0.0175 0.03764,0.0457 0.06193,0.0619 0.01717,0.0115 0.04234,-0.007 0.06193,0 0.02191,0.007 0.04003,0.0237 0.06193,0.031 0.01958,0.007 0.04347,-0.009 0.06193,0 0.02611,0.013 0.03423,0.0527 0.06193,0.0619 0.01958,0.007 0.0419,-0.005 0.06193,0 0.07489,0.0187 0.07162,0.0581 0.123854,0.0929 0.01921,0.0128 0.04273,0.0181 0.06193,0.031 0.01214,0.008 0.01712,0.0264 0.03096,0.031 0.01958,0.007 0.04346,-0.009 0.06193,0 0.0092,0.005 -0.0073,0.0237 0,0.031 0.0073,0.007 0.02172,-0.005 0.03096,0 0.01307,0.007 0.01791,0.0244 0.03096,0.031 0.0092,0.005 0.02365,-0.007 0.03096,0 0.0073,0.007 -0.0073,0.0237 0,0.031 0.0073,0.007 0.02172,-0.005 0.03096,0 0.01304,0.007 0.02064,0.0206 0.03097,0.031 0.01032,0.0103 0.02445,0.0179 0.03096,0.031 0.0092,0.0185 -0.0092,0.0435 0,0.0619 0.01307,0.0261 0.04887,0.0358 0.06193,0.0619 0.0046,0.009 -0.0046,0.0217 0,0.031 0.0065,0.0131 0.02445,0.0179 0.03096,0.031 0.0046,0.009 -0.0046,0.0217 0,0.031 0.0065,0.013 0.03096,0.0164 0.03096,0.031 0,0.0146 -0.03096,0.0164 -0.03096,0.031 0,0.0146 0.02445,0.0179 0.03096,0.031 0.0046,0.009 0,0.0206 0,0.031 0,0.0206 0.0092,0.0435 0,0.0619 -0.0046,0.009 -0.03096,-0.0103 -0.03096,0 0,0.0146 0.02445,0.0179 0.03096,0.031 7.94e-4,0.002 7.94e-4,0.0913 0,0.0929 -0.0065,0.0131 -0.03096,0.0164 -0.03096,0.031 0,0.0146 0.02445,0.0179 0.03096,0.031 0.0032,0.006 0.0044,0.0885 0,0.0929 -0.0073,0.007 -0.02365,-0.007 -0.03096,0 -0.0073,0.007 0,0.0206 0,0.031 0,0.0146 0.0013,0.15342 0,0.15482 -0.0073,0.007 -0.02365,-0.007 -0.03096,0 -0.0073,0.007 -0.0073,0.0237 0,0.031 0.0073,0.007 0.03096,-0.0103 0.03096,0 0,0.0103 -0.02365,-0.007 -0.03096,0 -0.0073,0.007 0.0073,0.0237 0,0.031 -0.04129,0.0413 -0.03096,-0.0516 -0.03096,0.031"
         style="fill:none;stroke:#000000;stroke-width:0.26458332px;stroke-linecap:butt;stroke-linejoin:miter;stroke-opacity:1" />
      <path
         inkscape:connector-curvature="0"
         id="path3861"
         d="m 76.439092,147.90128 c 0.0075,0.0424 0.05454,0.0292 0.0761,0.0507 0.0067,0.007 0.0074,0.0175 0.01267,0.0254 0.0098,0.0146 0.02829,0.0234 0.03805,0.038 0.01871,0.0281 0.0051,0.0288 0.03805,0.0507 0.01574,0.0105 0.03452,0.0156 0.05073,0.0254 0.0094,0.006 0.02938,0.0294 0.03805,0.038 0.0042,0.004 0.0073,0.01 0.01267,0.0127 0.0038,0.002 0.0087,-0.001 0.01267,0 0.01119,0.004 0.06606,0.0314 0.0761,0.038 0.01635,0.0109 0.03419,0.0383 0.05073,0.0507 0.0122,0.009 0.02585,0.0162 0.03805,0.0254 0.01939,0.0146 0.01,0.015 0.02537,0.038 0.01942,0.0291 0.0072,-0.005 0.03805,0.0254 0.003,0.003 -0.0019,0.009 0,0.0127 0.0016,0.003 0.03468,0.0364 0.03805,0.038 0.0038,0.002 0.0089,-0.002 0.01267,0 0.01521,0.008 0.02283,0.0304 0.03805,0.038 0.0038,0.002 0.0097,0.003 0.01267,0 0.03203,-0.032 0.0049,-0.0146 0.01267,-0.038 0.01532,-0.046 0.006,-0.009 0.02537,-0.038 0.0052,-0.008 0.006,-0.0187 0.01267,-0.0254 0.003,-0.003 0.0097,0.003 0.01267,0 0.003,-0.003 -0.003,-0.01 0,-0.0127 0.003,-0.003 0.0089,0.002 0.01267,0 0.0053,-0.003 0.0085,-0.008 0.01267,-0.0127 0.0042,-0.004 0.01,-0.007 0.01267,-0.0127 0.0019,-0.004 -0.0019,-0.009 0,-0.0127 0.02706,-0.0541 -0.0016,0.0288 0.02537,-0.0254 0.0019,-0.004 -0.0019,-0.009 0,-0.0127 0.0053,-0.0107 0.01873,-0.0154 0.02537,-0.0254 0.0052,-0.008 0.0085,-0.0169 0.01267,-0.0254 0.0042,-0.008 0.0104,-0.0162 0.01267,-0.0254 0.005,-0.0199 -0.005,-0.0435 0,-0.0634 0.02135,-0.0854 1.96e-4,-1.9e-4 0.02537,-0.0254 0.0026,-0.003 -0.0026,-0.033 0,-0.038 0.0053,-0.0107 0.02159,-0.014 0.02537,-0.0254 0.02638,-0.0792 -0.01267,0.0145 -0.01267,-0.038 0,-0.006 0.01,-0.007 0.01267,-0.0127 0.0019,-0.004 -0.0019,-0.009 0,-0.0127 0.0027,-0.005 0.01,-0.007 0.01267,-0.0127 0.0019,-0.004 -0.003,-0.01 0,-0.0127 0.003,-0.003 0.0089,0.002 0.01267,0 0.0034,-0.002 0.03637,-0.0347 0.03805,-0.038 0.0019,-0.004 0,-0.008 0,-0.0127"
         style="fill:none;stroke:#000000;stroke-width:0.26458332px;stroke-linecap:butt;stroke-linejoin:miter;stroke-opacity:1" />
    </g>
    <g
       id="g3869"
       transform="matrix(1,0,0,-1,2.46312,290.86622)">
      <path
         style="fill:none;stroke:#000000;stroke-width:0.26458332px;stroke-linecap:butt;stroke-linejoin:miter;stroke-opacity:1"
         d="m 74.282177,148.34275 c 0.02064,-0.0413 0.04129,-0.0826 0.06193,-0.12386 0.02064,-0.0103 0.04913,-0.0117 0.06193,-0.031 0.01146,-0.0172 -0.0065,-0.0423 0,-0.0619 0.0046,-0.0138 0.02445,-0.0179 0.03096,-0.031 0.0092,-0.0185 -0.0065,-0.0423 0,-0.0619 0.0073,-0.0219 0.01815,-0.0427 0.03096,-0.0619 0.0081,-0.0121 0.02635,-0.0171 0.03096,-0.031 0.0065,-0.0196 -0.005,-0.0419 0,-0.0619 0.0056,-0.0224 0.02365,-0.04 0.03096,-0.0619 0.0033,-0.01 0,-0.0206 0,-0.031 0.01032,-0.0206 0.02365,-0.04 0.03096,-0.0619 0.0065,-0.0196 -0.0092,-0.0435 0,-0.0619 0.0065,-0.013 0.02445,-0.0179 0.03097,-0.031 0.0046,-0.009 -0.0073,-0.0237 0,-0.031 0.01849,-0.0185 0.06193,0.0335 0.06193,-0.031 0,-0.14095 -0.07262,0.0417 0,-0.031 0.0073,-0.007 -0.0073,-0.0237 0,-0.031 0.0092,-0.009 0.104674,0.01 0.123854,0 0.04742,-0.0237 0.02421,-0.0552 0.06193,-0.0929 0.0073,-0.007 0.02635,0.009 0.03096,0 0.0092,-0.0185 -0.01146,-0.0448 0,-0.0619 0.01281,-0.0192 0.04561,-0.0147 0.06193,-0.031 0.01461,-0.0146 -0.01461,-0.0473 0,-0.0619 0.0073,-0.007 0.02365,0.007 0.03096,0 0.0073,-0.007 -0.0073,-0.0237 0,-0.031 0.0073,-0.007 0.02172,0.005 0.03096,0 0.02611,-0.013 0.03582,-0.0489 0.06193,-0.0619 0.0092,-0.005 0.02064,0 0.03096,0 0.01032,-0.0103 0.01791,-0.0244 0.03096,-0.031 0.0092,-0.005 0.02365,0.007 0.03096,0 0.0073,-0.007 -0.0046,-0.0217 0,-0.031 0.0065,-0.013 0.02064,-0.0206 0.03096,-0.031 0.01032,-0.0103 0.01791,-0.0245 0.03096,-0.031 0.01228,-0.006 0.08656,0.006 0.09289,0 0.0073,-0.007 -0.0073,-0.0237 0,-0.031 0.0073,-0.007 0.02172,0.005 0.03096,0 0.01307,-0.007 0.01791,-0.0244 0.03096,-0.031 0.01976,-0.01 0.146542,0.008 0.154821,0 0.0073,-0.007 -0.0046,-0.0217 0,-0.031 0.0065,-0.0131 0.02445,-0.0179 0.03096,-0.031 0.0046,-0.009 -0.0073,-0.0237 0,-0.031 0.0073,-0.007 0.02064,0 0.03096,0 0.03097,0 0.06285,-0.008 0.09289,0 0.129545,-0.0561 0.03582,0.0489 0.06193,0.0619 0.01847,0.009 0.04234,-0.007 0.06193,0 0.09665,0.0322 -0.01032,0.0206 0.03096,0.0619 0.02527,0.0253 0.150109,0.0661 0.185783,0.0929 0.02336,0.0175 0.03764,0.0457 0.06193,0.0619 0.01717,0.0115 0.04234,-0.007 0.06193,0 0.02191,0.007 0.04003,0.0237 0.06193,0.031 0.01958,0.007 0.04347,-0.009 0.06193,0 0.02611,0.013 0.03423,0.0527 0.06193,0.0619 0.01958,0.007 0.0419,-0.005 0.06193,0 0.07489,0.0187 0.07162,0.0581 0.123854,0.0929 0.01921,0.0128 0.04273,0.0181 0.06193,0.031 0.01214,0.008 0.01712,0.0264 0.03096,0.031 0.01958,0.007 0.04346,-0.009 0.06193,0 0.0092,0.005 -0.0073,0.0237 0,0.031 0.0073,0.007 0.02172,-0.005 0.03096,0 0.01307,0.007 0.01791,0.0244 0.03096,0.031 0.0092,0.005 0.02365,-0.007 0.03096,0 0.0073,0.007 -0.0073,0.0237 0,0.031 0.0073,0.007 0.02172,-0.005 0.03096,0 0.01304,0.007 0.02064,0.0206 0.03097,0.031 0.01032,0.0103 0.02445,0.0179 0.03096,0.031 0.0092,0.0185 -0.0092,0.0435 0,0.0619 0.01307,0.0261 0.04887,0.0358 0.06193,0.0619 0.0046,0.009 -0.0046,0.0217 0,0.031 0.0065,0.0131 0.02445,0.0179 0.03096,0.031 0.0046,0.009 -0.0046,0.0217 0,0.031 0.0065,0.013 0.03096,0.0164 0.03096,0.031 0,0.0146 -0.03096,0.0164 -0.03096,0.031 0,0.0146 0.02445,0.0179 0.03096,0.031 0.0046,0.009 0,0.0206 0,0.031 0,0.0206 0.0092,0.0435 0,0.0619 -0.0046,0.009 -0.03096,-0.0103 -0.03096,0 0,0.0146 0.02445,0.0179 0.03096,0.031 7.94e-4,0.002 7.94e-4,0.0913 0,0.0929 -0.0065,0.0131 -0.03096,0.0164 -0.03096,0.031 0,0.0146 0.02445,0.0179 0.03096,0.031 0.0032,0.006 0.0044,0.0885 0,0.0929 -0.0073,0.007 -0.02365,-0.007 -0.03096,0 -0.0073,0.007 0,0.0206 0,0.031 0,0.0146 0.0013,0.15342 0,0.15482 -0.0073,0.007 -0.02365,-0.007 -0.03096,0 -0.0073,0.007 -0.0073,0.0237 0,0.031 0.0073,0.007 0.03096,-0.0103 0.03096,0 0,0.0103 -0.02365,-0.007 -0.03096,0 -0.0073,0.007 0.0073,0.0237 0,0.031 -0.04129,0.0413 -0.03096,-0.0516 -0.03096,0.031"
         id="path3865"
         inkscape:connector-curvature="0" />
      <path
         style="fill:none;stroke:#000000;stroke-width:0.26458332px;stroke-linecap:butt;stroke-linejoin:miter;stroke-opacity:1"
         d="m 76.439092,147.90128 c 0.0075,0.0424 0.05454,0.0292 0.0761,0.0507 0.0067,0.007 0.0074,0.0175 0.01267,0.0254 0.0098,0.0146 0.02829,0.0234 0.03805,0.038 0.01871,0.0281 0.0051,0.0288 0.03805,0.0507 0.01574,0.0105 0.03452,0.0156 0.05073,0.0254 0.0094,0.006 0.02938,0.0294 0.03805,0.038 0.0042,0.004 0.0073,0.01 0.01267,0.0127 0.0038,0.002 0.0087,-0.001 0.01267,0 0.01119,0.004 0.06606,0.0314 0.0761,0.038 0.01635,0.0109 0.03419,0.0383 0.05073,0.0507 0.0122,0.009 0.02585,0.0162 0.03805,0.0254 0.01939,0.0146 0.01,0.015 0.02537,0.038 0.01942,0.0291 0.0072,-0.005 0.03805,0.0254 0.003,0.003 -0.0019,0.009 0,0.0127 0.0016,0.003 0.03468,0.0364 0.03805,0.038 0.0038,0.002 0.0089,-0.002 0.01267,0 0.01521,0.008 0.02283,0.0304 0.03805,0.038 0.0038,0.002 0.0097,0.003 0.01267,0 0.03203,-0.032 0.0049,-0.0146 0.01267,-0.038 0.01532,-0.046 0.006,-0.009 0.02537,-0.038 0.0052,-0.008 0.006,-0.0187 0.01267,-0.0254 0.003,-0.003 0.0097,0.003 0.01267,0 0.003,-0.003 -0.003,-0.01 0,-0.0127 0.003,-0.003 0.0089,0.002 0.01267,0 0.0053,-0.003 0.0085,-0.008 0.01267,-0.0127 0.0042,-0.004 0.01,-0.007 0.01267,-0.0127 0.0019,-0.004 -0.0019,-0.009 0,-0.0127 0.02706,-0.0541 -0.0016,0.0288 0.02537,-0.0254 0.0019,-0.004 -0.0019,-0.009 0,-0.0127 0.0053,-0.0107 0.01873,-0.0154 0.02537,-0.0254 0.0052,-0.008 0.0085,-0.0169 0.01267,-0.0254 0.0042,-0.008 0.0104,-0.0162 0.01267,-0.0254 0.005,-0.0199 -0.005,-0.0435 0,-0.0634 0.02135,-0.0854 1.96e-4,-1.9e-4 0.02537,-0.0254 0.0026,-0.003 -0.0026,-0.033 0,-0.038 0.0053,-0.0107 0.02159,-0.014 0.02537,-0.0254 0.02638,-0.0792 -0.01267,0.0145 -0.01267,-0.038 0,-0.006 0.01,-0.007 0.01267,-0.0127 0.0019,-0.004 -0.0019,-0.009 0,-0.0127 0.0027,-0.005 0.01,-0.007 0.01267,-0.0127 0.0019,-0.004 -0.003,-0.01 0,-0.0127 0.003,-0.003 0.0089,0.002 0.01267,0 0.0034,-0.002 0.03637,-0.0347 0.03805,-0.038 0.0019,-0.004 0,-0.008 0,-0.0127"
         id="path3867"
         inkscape:connector-curvature="0" />
    </g>
    <text
       xml:space="preserve"
       style="font-style:normal;font-weight:normal;font-size:10.58333302px;line-height:1.25;font-family:sans-serif;letter-spacing:0px;word-spacing:0px;fill:#000000;fill-opacity:1;stroke:none;stroke-width:0.26458332"
       x="88.135391"
       y="147.72968"
       id="text3873"><tspan
         sodipodi:role="line"
         id="tspan3871"
         x="88.135391"
         y="147.72968"
         style="font-size:1.41111112px;stroke-width:0.26458332">gnd</tspan></text>
    <text
       id="text3877"
       y="143.64246"
       x="73.074593"
       style="font-style:normal;font-weight:normal;font-size:10.58333302px;line-height:1.25;font-family:sans-serif;letter-spacing:0px;word-spacing:0px;fill:#000000;fill-opacity:1;stroke:none;stroke-width:0.26458332"
       xml:space="preserve"><tspan
         style="font-size:1.41111112px;stroke-width:0.26458332"
         y="143.64246"
         x="73.074593"
         id="tspan3875"
         sodipodi:role="line">vcc</tspan></text>
    <circle
       r="0.63499999"
       style="stroke-width:0.13947777"
       cy="156.79729"
       cx="76.880348"
       id="circle3894" />
    <circle
       id="circle3896"
       cx="81.96035"
       cy="156.79729"
       style="stroke-width:0.13947777"
       r="0.63499999" />
    <circle
       r="0.63499999"
       style="stroke-width:0.13947777"
       cy="156.79729"
       cx="87.040352"
       id="circle3898" />
    <circle
       id="circle3900"
       cx="89.580353"
       cy="156.79729"
       style="stroke-width:0.13947777"
       r="0.63499999" />
    <path
       style="fill:none;stroke:#000000;stroke-width:0.26476267px;stroke-linecap:butt;stroke-linejoin:miter;stroke-opacity:1"
       d="m 87.059373,147.26016 v -5.08"
       id="path3902"
       inkscape:connector-curvature="0" />
    <text
       xml:space="preserve"
       style="font-size:1.41111112px;line-height:1.25;fill:#000000;stroke:none;stroke-width:0.26458332"
       x="76.272568"
       y="159.52068"
       id="text3906"><tspan
         sodipodi:role="line"
         id="tspan3904"
         x="76.272568"
         y="159.52068"
         style="fill:#000000;stroke:none;stroke-width:0.26458332">G</tspan></text>
    <text
       id="text3910"
       y="159.28845"
       x="81.342888"
       style="font-size:1.41111112px;line-height:1.25;fill:#000000;stroke:none;stroke-width:0.26458332"
       xml:space="preserve"><tspan
         style="fill:#000000;stroke:none;stroke-width:0.26458332"
         y="159.28845"
         x="81.342888"
         id="tspan3908"
         sodipodi:role="line">A</tspan></text>
    <text
       xml:space="preserve"
       style="font-size:1.41111112px;line-height:1.25;fill:#000000;stroke:none;stroke-width:0.26458332"
       x="88.962891"
       y="159.28845"
       id="text3924"><tspan
         sodipodi:role="line"
         id="tspan3922"
         x="88.962891"
         y="159.28845"
         style="fill:#000000;stroke:none;stroke-width:0.26458332">S</tspan></text>
    <text
       xml:space="preserve"
       style="font-size:1.41111112px;line-height:1.25;fill:#000000;stroke:none;stroke-width:0.26458332"
       x="86.42289"
       y="159.28845"
       id="text3928"><tspan
         sodipodi:role="line"
         id="tspan3926"
         x="86.42289"
         y="159.28845"
         style="fill:#000000;stroke:none;stroke-width:0.26458332">!S</tspan></text>
    <path
       inkscape:connector-curvature="0"
       id="path3930"
       d="m 76.899373,147.26016 v -5.08"
       style="fill:none;stroke:#000000;stroke-width:0.26476267px;stroke-linecap:butt;stroke-linejoin:miter;stroke-opacity:1" />
    <path
       style="fill:none;stroke:#000000;stroke-width:0.26476267px;stroke-linecap:butt;stroke-linejoin:miter;stroke-opacity:1"
       d="m 81.979373,147.26016 v -5.08"
       id="path3932"
       inkscape:connector-curvature="0" />
    <path
       style="fill:none;stroke:#008000;stroke-width:0.26458332px;stroke-linecap:butt;stroke-linejoin:miter;stroke-opacity:1"
       d="m 79.346218,142.33751 c -2.478561,14.28032 -2.439858,14.35773 -2.439858,14.35773 v 0"
       id="path82"
       inkscape:connector-curvature="0" />
    <path
       inkscape:connector-curvature="0"
       id="path84"
       d="m 84.637888,142.33751 c -2.478561,14.28032 -2.439858,14.35773 -2.439858,14.35773 v 0"
       style="fill:none;stroke:#008000;stroke-width:0.26458332px;stroke-linecap:butt;stroke-linejoin:miter;stroke-opacity:1" />
    <path
       style="fill:none;stroke:#008000;stroke-width:0.26458332px;stroke-linecap:butt;stroke-linejoin:miter;stroke-opacity:1"
       d="m 89.400391,142.33751 c -2.478561,14.28032 0.100142,14.35773 0.100142,14.35773"
       id="path86"
       inkscape:connector-curvature="0"
       sodipodi:nodetypes="cc" />
    <path
       style="fill:none;stroke:#000000;stroke-width:0.18721548px;stroke-linecap:butt;stroke-linejoin:miter;stroke-opacity:1"
       d="m 74.359373,151.85452 v -2.54"
       id="path90"
       inkscape:connector-curvature="0" />
    <path
       inkscape:connector-curvature="0"
       id="path92"
       d="m 79.439373,151.85452 v -2.54"
       style="fill:none;stroke:#000000;stroke-width:0.18721548px;stroke-linecap:butt;stroke-linejoin:miter;stroke-opacity:1" />
    <path
       style="fill:none;stroke:#000000;stroke-width:0.18721548px;stroke-linecap:butt;stroke-linejoin:miter;stroke-opacity:1"
       d="m 84.519373,151.85452 v -2.54"
       id="path94"
       inkscape:connector-curvature="0" />
    <path
       style="fill:none;stroke:#000000;stroke-width:0.26476264px;stroke-linecap:butt;stroke-linejoin:miter;stroke-opacity:1"
       d="m 87.059369,156.97498 v -10.16"
       id="path100"
       inkscape:connector-curvature="0" />
    <path
       inkscape:connector-curvature="0"
       id="path102"
       d="m 74.359373,156.93452 v -2.54"
       style="fill:none;stroke:#000000;stroke-width:0.18721548px;stroke-linecap:butt;stroke-linejoin:miter;stroke-opacity:1" />
    <path
       style="fill:none;stroke:#000000;stroke-width:0.18721548px;stroke-linecap:butt;stroke-linejoin:miter;stroke-opacity:1"
       d="m 79.439373,156.93452 v -2.54"
       id="path104"
       inkscape:connector-curvature="0" />
    <path
       inkscape:connector-curvature="0"
       id="path106"
       d="m 84.519373,156.93452 v -2.54"
       style="fill:none;stroke:#000000;stroke-width:0.18721548px;stroke-linecap:butt;stroke-linejoin:miter;stroke-opacity:1" />
    <path
       style="fill:none;stroke:#ffcc00;stroke-width:0.26458332px;stroke-linecap:butt;stroke-linejoin:miter;stroke-opacity:1"
       d="m 73.838211,159.32042 c 0.09154,-0.11048 0.111604,-0.14902 0.126813,-0.27991 0.0045,-0.0387 0.002,-0.0785 0.0096,-0.11674 0.01651,-0.0831 0.05393,-0.16072 0.07534,-0.24267 0.0129,-0.0493 0.02019,-0.1 0.03307,-0.14937 0.01071,-0.041 0.02752,-0.0802 0.03767,-0.12134 0.0072,-0.0291 0.01079,-0.0589 0.01424,-0.0887 0.0045,-0.0387 -2.38e-4,-0.0789 0.0096,-0.11673 0.01397,-0.0535 0.04472,-0.10128 0.06111,-0.15398 0.0089,-0.0286 0.0019,-0.0614 0.01424,-0.0887 0.01658,-0.0366 0.04992,-0.0633 0.07031,-0.0979 0.01733,-0.0294 0.02235,-0.0656 0.04228,-0.0933 0.0055,-0.008 0.0031,0.0188 0.0046,0.028 0.0046,0.028 0.0058,0.0568 0.0138,0.0841 0.08602,0.29148 0.02527,-0.0215 0.07403,0.27575 0.0731,0.44553 -0.02732,-0.1091 0.08323,0.33181 0.02308,0.0919 0.02045,0.18917 0.04599,0.28035 0.01426,0.0879 0.07276,0.15938 0.09747,0.24311 0.01073,0.0363 0.01227,0.0748 0.0184,0.11214 0.0046,0.028 0.0017,0.0584 0.01379,0.0841 0.04967,0.10525 0.147927,0.15569 0.23764,0.22012"
       id="path108"
       inkscape:connector-curvature="0" />
    <path
       inkscape:connector-curvature="0"
       id="path110"
       d="m 78.918211,159.32042 c 0.09154,-0.11048 0.111604,-0.14902 0.126813,-0.27991 0.0045,-0.0387 0.002,-0.0785 0.0096,-0.11674 0.01651,-0.0831 0.05393,-0.16072 0.07534,-0.24267 0.0129,-0.0493 0.02019,-0.1 0.03307,-0.14937 0.01071,-0.041 0.02752,-0.0802 0.03767,-0.12134 0.0072,-0.0291 0.01079,-0.0589 0.01424,-0.0887 0.0045,-0.0387 -2.38e-4,-0.0789 0.0096,-0.11673 0.01397,-0.0535 0.04472,-0.10128 0.06111,-0.15398 0.0089,-0.0286 0.0019,-0.0614 0.01424,-0.0887 0.01658,-0.0366 0.04992,-0.0633 0.07031,-0.0979 0.01733,-0.0294 0.02235,-0.0656 0.04228,-0.0933 0.0055,-0.008 0.0031,0.0188 0.0046,0.028 0.0046,0.028 0.0058,0.0568 0.0138,0.0841 0.08602,0.29148 0.02527,-0.0215 0.07403,0.27575 0.0731,0.44553 -0.02732,-0.1091 0.08323,0.33181 0.02308,0.0919 0.02045,0.18917 0.04599,0.28035 0.01426,0.0879 0.07276,0.15938 0.09747,0.24311 0.01073,0.0363 0.01227,0.0748 0.0184,0.11214 0.0046,0.028 0.0017,0.0584 0.01379,0.0841 0.04967,0.10525 0.147927,0.15569 0.23764,0.22012"
       style="fill:none;stroke:#ffcc00;stroke-width:0.26458332px;stroke-linecap:butt;stroke-linejoin:miter;stroke-opacity:1" />
    <path
       style="fill:none;stroke:#ffcc00;stroke-width:0.26458332px;stroke-linecap:butt;stroke-linejoin:miter;stroke-opacity:1"
       d="m 83.998211,159.32042 c 0.09154,-0.11048 0.111604,-0.14902 0.126813,-0.27991 0.0045,-0.0387 0.002,-0.0785 0.0096,-0.11674 0.01651,-0.0831 0.05393,-0.16072 0.07534,-0.24267 0.0129,-0.0493 0.02019,-0.1 0.03307,-0.14937 0.01071,-0.041 0.02752,-0.0802 0.03767,-0.12134 0.0072,-0.0291 0.01079,-0.0589 0.01424,-0.0887 0.0045,-0.0387 -2.38e-4,-0.0789 0.0096,-0.11673 0.01397,-0.0535 0.04472,-0.10128 0.06111,-0.15398 0.0089,-0.0286 0.0019,-0.0614 0.01424,-0.0887 0.01658,-0.0366 0.04992,-0.0633 0.07031,-0.0979 0.01733,-0.0294 0.02235,-0.0656 0.04228,-0.0933 0.0055,-0.008 0.0031,0.0188 0.0046,0.028 0.0046,0.028 0.0058,0.0568 0.0138,0.0841 0.08602,0.29148 0.02527,-0.0215 0.07403,0.27575 0.0731,0.44553 -0.02732,-0.1091 0.08323,0.33181 0.02308,0.0919 0.02045,0.18917 0.04599,0.28035 0.01426,0.0879 0.07276,0.15938 0.09747,0.24311 0.01073,0.0363 0.01227,0.0748 0.0184,0.11214 0.0046,0.028 0.0017,0.0584 0.01379,0.0841 0.04967,0.10525 0.147927,0.15569 0.23764,0.22012"
       id="path112"
       inkscape:connector-curvature="0" />
  </g>
</svg>
